<?xml version="1.0" encoding="utf-8" ?>
<svg baseProfile="full" height="2970" version="1.1" width="2100" xmlns="http://www.w3.org/2000/svg" xmlns:ev="http://www.w3.org/2001/xml-events" xmlns:xlink="http://www.w3.org/1999/xlink"><defs /><polygon fill="none" points="125.00000000000003,43.30127018922194 25.000000000000043,216.5063509461097 -174.99999999999997,216.5063509461097 -275.0,43.301270189222016 -175.0000000000001,-129.9038105676658 24.9999999999999,-129.90381056766591" stroke="black" /><polygon fill="none" points="725.0,43.30127018922194 625.0,216.5063509461097 425.0,216.5063509461097 325.0,43.301270189222016 424.9999999999999,-129.9038105676658 624.9999999999999,-129.90381056766591" stroke="black" /><polygon fill="none" points="1325.0,43.30127018922194 1225.0,216.5063509461097 1025.0,216.5063509461097 925.0,43.301270189222016 1024.9999999999998,-129.9038105676658 1225.0,-129.90381056766591" stroke="black" /><polygon fill="none" points="1925.0,43.30127018922194 1825.0,216.5063509461097 1625.0,216.5063509461097 1525.0,43.301270189222016 1624.9999999999998,-129.9038105676658 1825.0,-129.90381056766591" stroke="black" /><polygon fill="none" points="2525.0,43.30127018922194 2425.0,216.5063509461097 2225.0,216.5063509461097 2125.0,43.301270189222016 2225.0,-129.9038105676658 2425.0,-129.90381056766591" stroke="black" /><polygon fill="none" points="425.0,216.5063509461097 325.00000000000006,389.71143170299746 125.00000000000003,389.7114317029975 24.99999999999997,216.5063509461098 124.99999999999987,43.30127018922198 324.9999999999999,43.30127018922184" stroke="black" /><polygon fill="none" points="1025.0,216.5063509461097 925.0,389.71143170299746 725.0,389.7114317029975 625.0,216.5063509461098 724.9999999999999,43.30127018922198 924.9999999999999,43.30127018922184" stroke="black" /><polygon fill="none" points="1625.0,216.5063509461097 1525.0,389.71143170299746 1325.0,389.7114317029975 1225.0,216.5063509461098 1324.9999999999998,43.30127018922198 1525.0,43.30127018922184" stroke="black" /><polygon fill="none" points="2225.0,216.5063509461097 2125.0,389.71143170299746 1925.0,389.7114317029975 1825.0,216.5063509461098 1924.9999999999998,43.30127018922198 2125.0,43.30127018922184" stroke="black" /><polygon fill="none" points="2825.0,216.5063509461097 2725.0,389.71143170299746 2525.0,389.7114317029975 2425.0,216.5063509461098 2525.0,43.30127018922198 2725.0,43.30127018922184" stroke="black" /><polygon fill="none" points="125.00000000000003,389.71143170299746 25.000000000000043,562.9165124598852 -174.99999999999997,562.9165124598852 -275.0,389.7114317029975 -175.0000000000001,216.50635094610973 24.9999999999999,216.5063509461096" stroke="black" /><polygon fill="none" points="725.0,389.71143170299746 625.0,562.9165124598852 425.0,562.9165124598852 325.0,389.7114317029975 424.9999999999999,216.50635094610973 624.9999999999999,216.5063509461096" stroke="black" /><polygon fill="none" points="1325.0,389.71143170299746 1225.0,562.9165124598852 1025.0,562.9165124598852 925.0,389.7114317029975 1024.9999999999998,216.50635094610973 1225.0,216.5063509461096" stroke="black" /><polygon fill="none" points="1925.0,389.71143170299746 1825.0,562.9165124598852 1625.0,562.9165124598852 1525.0,389.7114317029975 1624.9999999999998,216.50635094610973 1825.0,216.5063509461096" stroke="black" /><polygon fill="none" points="2525.0,389.71143170299746 2425.0,562.9165124598852 2225.0,562.9165124598852 2125.0,389.7114317029975 2225.0,216.50635094610973 2425.0,216.5063509461096" stroke="black" /><polygon fill="none" points="425.0,562.9165124598852 325.00000000000006,736.1215932167729 125.00000000000003,736.121593216773 24.99999999999997,562.9165124598853 124.99999999999987,389.7114317029975 324.9999999999999,389.71143170299734" stroke="black" /><polygon fill="none" points="1025.0,562.9165124598852 925.0,736.1215932167729 725.0,736.121593216773 625.0,562.9165124598853 724.9999999999999,389.7114317029975 924.9999999999999,389.71143170299734" stroke="black" /><polygon fill="none" points="1625.0,562.9165124598852 1525.0,736.1215932167729 1325.0,736.121593216773 1225.0,562.9165124598853 1324.9999999999998,389.7114317029975 1525.0,389.71143170299734" stroke="black" /><polygon fill="none" points="2225.0,562.9165124598852 2125.0,736.1215932167729 1925.0,736.121593216773 1825.0,562.9165124598853 1924.9999999999998,389.7114317029975 2125.0,389.71143170299734" stroke="black" /><polygon fill="none" points="2825.0,562.9165124598852 2725.0,736.1215932167729 2525.0,736.121593216773 2425.0,562.9165124598853 2525.0,389.7114317029975 2725.0,389.71143170299734" stroke="black" /><polygon fill="none" points="125.00000000000003,736.1215932167729 25.000000000000043,909.3266739736607 -174.99999999999997,909.3266739736607 -275.0,736.121593216773 -175.0000000000001,562.9165124598852 24.9999999999999,562.9165124598851" stroke="black" /><polygon fill="none" points="725.0,736.1215932167729 625.0,909.3266739736607 425.0,909.3266739736607 325.0,736.121593216773 424.9999999999999,562.9165124598852 624.9999999999999,562.9165124598851" stroke="black" /><polygon fill="none" points="1325.0,736.1215932167729 1225.0,909.3266739736607 1025.0,909.3266739736607 925.0,736.121593216773 1024.9999999999998,562.9165124598852 1225.0,562.9165124598851" stroke="black" /><polygon fill="none" points="1925.0,736.1215932167729 1825.0,909.3266739736607 1625.0,909.3266739736607 1525.0,736.121593216773 1624.9999999999998,562.9165124598852 1825.0,562.9165124598851" stroke="black" /><polygon fill="none" points="2525.0,736.1215932167729 2425.0,909.3266739736607 2225.0,909.3266739736607 2125.0,736.121593216773 2225.0,562.9165124598852 2425.0,562.9165124598851" stroke="black" /><polygon fill="none" points="425.0,909.3266739736607 325.00000000000006,1082.5317547305485 125.00000000000003,1082.5317547305485 24.99999999999997,909.3266739736608 124.99999999999987,736.121593216773 324.9999999999999,736.1215932167729" stroke="black" /><polygon fill="none" points="1025.0,909.3266739736607 925.0,1082.5317547305485 725.0,1082.5317547305485 625.0,909.3266739736608 724.9999999999999,736.121593216773 924.9999999999999,736.1215932167729" stroke="black" /><polygon fill="none" points="1625.0,909.3266739736607 1525.0,1082.5317547305485 1325.0,1082.5317547305485 1225.0,909.3266739736608 1324.9999999999998,736.121593216773 1525.0,736.1215932167729" stroke="black" /><polygon fill="none" points="2225.0,909.3266739736607 2125.0,1082.5317547305485 1925.0,1082.5317547305485 1825.0,909.3266739736608 1924.9999999999998,736.121593216773 2125.0,736.1215932167729" stroke="black" /><polygon fill="none" points="2825.0,909.3266739736607 2725.0,1082.5317547305485 2525.0,1082.5317547305485 2425.0,909.3266739736608 2525.0,736.121593216773 2725.0,736.1215932167729" stroke="black" /><polygon fill="none" points="125.00000000000003,1082.5317547305485 25.000000000000043,1255.7368354874363 -174.99999999999997,1255.7368354874363 -275.0,1082.5317547305485 -175.0000000000001,909.3266739736608 24.9999999999999,909.3266739736607" stroke="black" /><polygon fill="none" points="725.0,1082.5317547305485 625.0,1255.7368354874363 425.0,1255.7368354874363 325.0,1082.5317547305485 424.9999999999999,909.3266739736608 624.9999999999999,909.3266739736607" stroke="black" /><polygon fill="none" points="1325.0,1082.5317547305485 1225.0,1255.7368354874363 1025.0,1255.7368354874363 925.0,1082.5317547305485 1024.9999999999998,909.3266739736608 1225.0,909.3266739736607" stroke="black" /><polygon fill="none" points="1925.0,1082.5317547305485 1825.0,1255.7368354874363 1625.0,1255.7368354874363 1525.0,1082.5317547305485 1624.9999999999998,909.3266739736608 1825.0,909.3266739736607" stroke="black" /><polygon fill="none" points="2525.0,1082.5317547305485 2425.0,1255.7368354874363 2225.0,1255.7368354874363 2125.0,1082.5317547305485 2225.0,909.3266739736608 2425.0,909.3266739736607" stroke="black" /><polygon fill="none" points="425.0,1255.736835487436 325.00000000000006,1428.941916244324 125.00000000000003,1428.941916244324 24.99999999999997,1255.736835487436 124.99999999999987,1082.5317547305483 324.9999999999999,1082.5317547305483" stroke="black" /><polygon fill="none" points="1025.0,1255.736835487436 925.0,1428.941916244324 725.0,1428.941916244324 625.0,1255.736835487436 724.9999999999999,1082.5317547305483 924.9999999999999,1082.5317547305483" stroke="black" /><polygon fill="none" points="1625.0,1255.736835487436 1525.0,1428.941916244324 1325.0,1428.941916244324 1225.0,1255.736835487436 1324.9999999999998,1082.5317547305483 1525.0,1082.5317547305483" stroke="black" /><polygon fill="none" points="2225.0,1255.736835487436 2125.0,1428.941916244324 1925.0,1428.941916244324 1825.0,1255.736835487436 1924.9999999999998,1082.5317547305483 2125.0,1082.5317547305483" stroke="black" /><polygon fill="none" points="2825.0,1255.736835487436 2725.0,1428.941916244324 2525.0,1428.941916244324 2425.0,1255.736835487436 2525.0,1082.5317547305483 2725.0,1082.5317547305483" stroke="black" /><polygon fill="none" points="125.00000000000003,1428.941916244324 25.000000000000043,1602.1469970012117 -174.99999999999997,1602.1469970012117 -275.0,1428.941916244324 -175.0000000000001,1255.736835487436 24.9999999999999,1255.736835487436" stroke="black" /><polygon fill="none" points="725.0,1428.941916244324 625.0,1602.1469970012117 425.0,1602.1469970012117 325.0,1428.941916244324 424.9999999999999,1255.736835487436 624.9999999999999,1255.736835487436" stroke="black" /><polygon fill="none" points="1325.0,1428.941916244324 1225.0,1602.1469970012117 1025.0,1602.1469970012117 925.0,1428.941916244324 1024.9999999999998,1255.736835487436 1225.0,1255.736835487436" stroke="black" /><polygon fill="none" points="1925.0,1428.941916244324 1825.0,1602.1469970012117 1625.0,1602.1469970012117 1525.0,1428.941916244324 1624.9999999999998,1255.736835487436 1825.0,1255.736835487436" stroke="black" /><polygon fill="none" points="2525.0,1428.941916244324 2425.0,1602.1469970012117 2225.0,1602.1469970012117 2125.0,1428.941916244324 2225.0,1255.736835487436 2425.0,1255.736835487436" stroke="black" /><polygon fill="none" points="425.0,1602.1469970012117 325.00000000000006,1775.3520777580995 125.00000000000003,1775.3520777580995 24.99999999999997,1602.1469970012117 124.99999999999987,1428.941916244324 324.9999999999999,1428.941916244324" stroke="black" /><polygon fill="none" points="1025.0,1602.1469970012117 925.0,1775.3520777580995 725.0,1775.3520777580995 625.0,1602.1469970012117 724.9999999999999,1428.941916244324 924.9999999999999,1428.941916244324" stroke="black" /><polygon fill="none" points="1625.0,1602.1469970012117 1525.0,1775.3520777580995 1325.0,1775.3520777580995 1225.0,1602.1469970012117 1324.9999999999998,1428.941916244324 1525.0,1428.941916244324" stroke="black" /><polygon fill="none" points="2225.0,1602.1469970012117 2125.0,1775.3520777580995 1925.0,1775.3520777580995 1825.0,1602.1469970012117 1924.9999999999998,1428.941916244324 2125.0,1428.941916244324" stroke="black" /><polygon fill="none" points="2825.0,1602.1469970012117 2725.0,1775.3520777580995 2525.0,1775.3520777580995 2425.0,1602.1469970012117 2525.0,1428.941916244324 2725.0,1428.941916244324" stroke="black" /><polygon fill="none" points="125.00000000000003,1775.3520777580995 25.000000000000043,1948.5571585149873 -174.99999999999997,1948.5571585149873 -275.0,1775.3520777580995 -175.0000000000001,1602.1469970012117 24.9999999999999,1602.1469970012117" stroke="black" /><polygon fill="none" points="725.0,1775.3520777580995 625.0,1948.5571585149873 425.0,1948.5571585149873 325.0,1775.3520777580995 424.9999999999999,1602.1469970012117 624.9999999999999,1602.1469970012117" stroke="black" /><polygon fill="none" points="1325.0,1775.3520777580995 1225.0,1948.5571585149873 1025.0,1948.5571585149873 925.0,1775.3520777580995 1024.9999999999998,1602.1469970012117 1225.0,1602.1469970012117" stroke="black" /><polygon fill="none" points="1925.0,1775.3520777580995 1825.0,1948.5571585149873 1625.0,1948.5571585149873 1525.0,1775.3520777580995 1624.9999999999998,1602.1469970012117 1825.0,1602.1469970012117" stroke="black" /><polygon fill="none" points="2525.0,1775.3520777580995 2425.0,1948.5571585149873 2225.0,1948.5571585149873 2125.0,1775.3520777580995 2225.0,1602.1469970012117 2425.0,1602.1469970012117" stroke="black" /><polygon fill="none" points="425.0,1948.5571585149871 325.00000000000006,2121.762239271875 125.00000000000003,2121.762239271875 24.99999999999997,1948.5571585149871 124.99999999999987,1775.3520777580993 324.9999999999999,1775.3520777580993" stroke="black" /><polygon fill="none" points="1025.0,1948.5571585149871 925.0,2121.762239271875 725.0,2121.762239271875 625.0,1948.5571585149871 724.9999999999999,1775.3520777580993 924.9999999999999,1775.3520777580993" stroke="black" /><polygon fill="none" points="1625.0,1948.5571585149871 1525.0,2121.762239271875 1325.0,2121.762239271875 1225.0,1948.5571585149871 1324.9999999999998,1775.3520777580993 1525.0,1775.3520777580993" stroke="black" /><polygon fill="none" points="2225.0,1948.5571585149871 2125.0,2121.762239271875 1925.0,2121.762239271875 1825.0,1948.5571585149871 1924.9999999999998,1775.3520777580993 2125.0,1775.3520777580993" stroke="black" /><polygon fill="none" points="2825.0,1948.5571585149871 2725.0,2121.762239271875 2525.0,2121.762239271875 2425.0,1948.5571585149871 2525.0,1775.3520777580993 2725.0,1775.3520777580993" stroke="black" /><polygon fill="none" points="125.00000000000003,2121.762239271875 25.000000000000043,2294.9673200287625 -174.99999999999997,2294.9673200287625 -275.0,2121.762239271875 -175.0000000000001,1948.5571585149871 24.9999999999999,1948.5571585149871" stroke="black" /><polygon fill="none" points="725.0,2121.762239271875 625.0,2294.9673200287625 425.0,2294.9673200287625 325.0,2121.762239271875 424.9999999999999,1948.5571585149871 624.9999999999999,1948.5571585149871" stroke="black" /><polygon fill="none" points="1325.0,2121.762239271875 1225.0,2294.9673200287625 1025.0,2294.9673200287625 925.0,2121.762239271875 1024.9999999999998,1948.5571585149871 1225.0,1948.5571585149871" stroke="black" /><polygon fill="none" points="1925.0,2121.762239271875 1825.0,2294.9673200287625 1625.0,2294.9673200287625 1525.0,2121.762239271875 1624.9999999999998,1948.5571585149871 1825.0,1948.5571585149871" stroke="black" /><polygon fill="none" points="2525.0,2121.762239271875 2425.0,2294.9673200287625 2225.0,2294.9673200287625 2125.0,2121.762239271875 2225.0,1948.5571585149871 2425.0,1948.5571585149871" stroke="black" /><polygon fill="none" points="425.0,2294.9673200287625 325.00000000000006,2468.17240078565 125.00000000000003,2468.17240078565 24.99999999999997,2294.9673200287625 124.99999999999987,2121.762239271875 324.9999999999999,2121.7622392718745" stroke="black" /><polygon fill="none" points="1025.0,2294.9673200287625 925.0,2468.17240078565 725.0,2468.17240078565 625.0,2294.9673200287625 724.9999999999999,2121.762239271875 924.9999999999999,2121.7622392718745" stroke="black" /><polygon fill="none" points="1625.0,2294.9673200287625 1525.0,2468.17240078565 1325.0,2468.17240078565 1225.0,2294.9673200287625 1324.9999999999998,2121.762239271875 1525.0,2121.7622392718745" stroke="black" /><polygon fill="none" points="2225.0,2294.9673200287625 2125.0,2468.17240078565 1925.0,2468.17240078565 1825.0,2294.9673200287625 1924.9999999999998,2121.762239271875 2125.0,2121.7622392718745" stroke="black" /><polygon fill="none" points="2825.0,2294.9673200287625 2725.0,2468.17240078565 2525.0,2468.17240078565 2425.0,2294.9673200287625 2525.0,2121.762239271875 2725.0,2121.7622392718745" stroke="black" /><polygon fill="none" points="125.00000000000003,2468.1724007856506 25.000000000000043,2641.377481542538 -174.99999999999997,2641.377481542538 -275.0,2468.1724007856506 -175.0000000000001,2294.967320028763 24.9999999999999,2294.9673200287625" stroke="black" /><polygon fill="none" points="725.0,2468.1724007856506 625.0,2641.377481542538 425.0,2641.377481542538 325.0,2468.1724007856506 424.9999999999999,2294.967320028763 624.9999999999999,2294.9673200287625" stroke="black" /><polygon fill="none" points="1325.0,2468.1724007856506 1225.0,2641.377481542538 1025.0,2641.377481542538 925.0,2468.1724007856506 1024.9999999999998,2294.967320028763 1225.0,2294.9673200287625" stroke="black" /><polygon fill="none" points="1925.0,2468.1724007856506 1825.0,2641.377481542538 1625.0,2641.377481542538 1525.0,2468.1724007856506 1624.9999999999998,2294.967320028763 1825.0,2294.9673200287625" stroke="black" /><polygon fill="none" points="2525.0,2468.1724007856506 2425.0,2641.377481542538 2225.0,2641.377481542538 2125.0,2468.1724007856506 2225.0,2294.967320028763 2425.0,2294.9673200287625" stroke="black" /><polygon fill="none" points="425.0,2641.377481542538 325.00000000000006,2814.5825622994257 125.00000000000003,2814.5825622994257 24.99999999999997,2641.377481542538 124.99999999999987,2468.1724007856506 324.9999999999999,2468.17240078565" stroke="black" /><polygon fill="none" points="1025.0,2641.377481542538 925.0,2814.5825622994257 725.0,2814.5825622994257 625.0,2641.377481542538 724.9999999999999,2468.1724007856506 924.9999999999999,2468.17240078565" stroke="black" /><polygon fill="none" points="1625.0,2641.377481542538 1525.0,2814.5825622994257 1325.0,2814.5825622994257 1225.0,2641.377481542538 1324.9999999999998,2468.1724007856506 1525.0,2468.17240078565" stroke="black" /><polygon fill="none" points="2225.0,2641.377481542538 2125.0,2814.5825622994257 1925.0,2814.5825622994257 1825.0,2641.377481542538 1924.9999999999998,2468.1724007856506 2125.0,2468.17240078565" stroke="black" /><polygon fill="none" points="2825.0,2641.377481542538 2725.0,2814.5825622994257 2525.0,2814.5825622994257 2425.0,2641.377481542538 2525.0,2468.1724007856506 2725.0,2468.17240078565" stroke="black" /><polygon fill="none" points="125.00000000000003,2814.582562299426 25.000000000000043,2987.7876430563138 -174.99999999999997,2987.7876430563138 -275.0,2814.582562299426 -175.0000000000001,2641.3774815425386 24.9999999999999,2641.377481542538" stroke="black" /><polygon fill="none" points="725.0,2814.582562299426 625.0,2987.7876430563138 425.0,2987.7876430563138 325.0,2814.582562299426 424.9999999999999,2641.3774815425386 624.9999999999999,2641.377481542538" stroke="black" /><polygon fill="none" points="1325.0,2814.582562299426 1225.0,2987.7876430563138 1025.0,2987.7876430563138 925.0,2814.582562299426 1024.9999999999998,2641.3774815425386 1225.0,2641.377481542538" stroke="black" /><polygon fill="none" points="1925.0,2814.582562299426 1825.0,2987.7876430563138 1625.0,2987.7876430563138 1525.0,2814.582562299426 1624.9999999999998,2641.3774815425386 1825.0,2641.377481542538" stroke="black" /><polygon fill="none" points="2525.0,2814.582562299426 2425.0,2987.7876430563138 2225.0,2987.7876430563138 2125.0,2814.582562299426 2225.0,2641.3774815425386 2425.0,2641.377481542538" stroke="black" /><polygon fill="none" points="425.0,2987.7876430563138 325.00000000000006,3160.9927238132013 125.00000000000003,3160.9927238132013 24.99999999999997,2987.7876430563138 124.99999999999987,2814.582562299426 324.9999999999999,2814.5825622994257" stroke="black" /><polygon fill="none" points="1025.0,2987.7876430563138 925.0,3160.9927238132013 725.0,3160.9927238132013 625.0,2987.7876430563138 724.9999999999999,2814.582562299426 924.9999999999999,2814.5825622994257" stroke="black" /><polygon fill="none" points="1625.0,2987.7876430563138 1525.0,3160.9927238132013 1325.0,3160.9927238132013 1225.0,2987.7876430563138 1324.9999999999998,2814.582562299426 1525.0,2814.5825622994257" stroke="black" /><polygon fill="none" points="2225.0,2987.7876430563138 2125.0,3160.9927238132013 1925.0,3160.9927238132013 1825.0,2987.7876430563138 1924.9999999999998,2814.582562299426 2125.0,2814.5825622994257" stroke="black" /><polygon fill="none" points="2825.0,2987.7876430563138 2725.0,3160.9927238132013 2525.0,3160.9927238132013 2425.0,2987.7876430563138 2525.0,2814.582562299426 2725.0,2814.5825622994257" stroke="black" /><polygon fill="none" points="125.00000000000003,3160.9927238132013 25.000000000000043,3334.197804570089 -174.99999999999997,3334.197804570089 -275.0,3160.9927238132013 -175.0000000000001,2987.7876430563138 24.9999999999999,2987.7876430563133" stroke="black" /><polygon fill="none" points="725.0,3160.9927238132013 625.0,3334.197804570089 425.0,3334.197804570089 325.0,3160.9927238132013 424.9999999999999,2987.7876430563138 624.9999999999999,2987.7876430563133" stroke="black" /><polygon fill="none" points="1325.0,3160.9927238132013 1225.0,3334.197804570089 1025.0,3334.197804570089 925.0,3160.9927238132013 1024.9999999999998,2987.7876430563138 1225.0,2987.7876430563133" stroke="black" /><polygon fill="none" points="1925.0,3160.9927238132013 1825.0,3334.197804570089 1625.0,3334.197804570089 1525.0,3160.9927238132013 1624.9999999999998,2987.7876430563138 1825.0,2987.7876430563133" stroke="black" /><polygon fill="none" points="2525.0,3160.9927238132013 2425.0,3334.197804570089 2225.0,3334.197804570089 2125.0,3160.9927238132013 2225.0,2987.7876430563138 2425.0,2987.7876430563133" stroke="black" /></svg>