<?xml version="1.0" encoding="utf-8" ?>
<svg baseProfile="full" height="2970" version="1.1" width="2100" xmlns="http://www.w3.org/2000/svg" xmlns:ev="http://www.w3.org/2001/xml-events" xmlns:xlink="http://www.w3.org/1999/xlink"><defs /><polygon fill="none" points="200.00000000000003,0.0 100.00000000000004,173.20508075688775 -99.99999999999997,173.20508075688778 -200.00000000000003,7.771561172376097e-14 -100.00000000000013,-173.20508075688772 99.9999999999999,-173.20508075688787" stroke="black" /><polygon fill="none" points="800.0,0.0 700.0,173.20508075688775 500.0,173.20508075688778 400.0,7.771561172376097e-14 499.9999999999999,-173.20508075688772 699.9999999999999,-173.20508075688787" stroke="black" /><polygon fill="none" points="1400.0,0.0 1300.0,173.20508075688775 1100.0,173.20508075688778 1000.0,7.771561172376097e-14 1099.9999999999998,-173.20508075688772 1300.0,-173.20508075688787" stroke="black" /><polygon fill="none" points="2000.0,0.0 1900.0,173.20508075688775 1700.0,173.20508075688778 1600.0,7.771561172376097e-14 1699.9999999999998,-173.20508075688772 1900.0,-173.20508075688787" stroke="black" /><polygon fill="none" points="2600.0,0.0 2500.0,173.20508075688775 2300.0,173.20508075688778 2200.0,7.771561172376097e-14 2300.0,-173.20508075688772 2500.0,-173.20508075688787" stroke="black" /><polygon fill="none" points="500.0,173.20508075688775 400.00000000000006,346.4101615137755 200.00000000000003,346.4101615137755 99.99999999999997,173.20508075688784 199.9999999999999,2.842170943040401e-14 399.9999999999999,-1.1368683772161603e-13" stroke="black" /><polygon fill="none" points="1100.0,173.20508075688775 1000.0,346.4101615137755 800.0,346.4101615137755 700.0,173.20508075688784 799.9999999999999,2.842170943040401e-14 999.9999999999999,-1.1368683772161603e-13" stroke="black" /><polygon fill="none" points="1700.0,173.20508075688775 1600.0,346.4101615137755 1400.0,346.4101615137755 1300.0,173.20508075688784 1399.9999999999998,2.842170943040401e-14 1600.0,-1.1368683772161603e-13" stroke="black" /><polygon fill="none" points="2300.0,173.20508075688775 2200.0,346.4101615137755 2000.0,346.4101615137755 1900.0,173.20508075688784 1999.9999999999998,2.842170943040401e-14 2200.0,-1.1368683772161603e-13" stroke="black" /><polygon fill="none" points="2900.0,173.20508075688775 2800.0,346.4101615137755 2600.0,346.4101615137755 2500.0,173.20508075688784 2600.0,2.842170943040401e-14 2800.0,-1.1368683772161603e-13" stroke="black" /><polygon fill="none" points="200.00000000000003,346.4101615137755 100.00000000000004,519.6152422706632 -99.99999999999997,519.6152422706633 -200.00000000000003,346.41016151377556 -100.00000000000013,173.20508075688778 99.9999999999999,173.20508075688764" stroke="black" /><polygon fill="none" points="800.0,346.4101615137755 700.0,519.6152422706632 500.0,519.6152422706633 400.0,346.41016151377556 499.9999999999999,173.20508075688778 699.9999999999999,173.20508075688764" stroke="black" /><polygon fill="none" points="1400.0,346.4101615137755 1300.0,519.6152422706632 1100.0,519.6152422706633 1000.0,346.41016151377556 1099.9999999999998,173.20508075688778 1300.0,173.20508075688764" stroke="black" /><polygon fill="none" points="2000.0,346.4101615137755 1900.0,519.6152422706632 1700.0,519.6152422706633 1600.0,346.41016151377556 1699.9999999999998,173.20508075688778 1900.0,173.20508075688764" stroke="black" /><polygon fill="none" points="2600.0,346.4101615137755 2500.0,519.6152422706632 2300.0,519.6152422706633 2200.0,346.41016151377556 2300.0,173.20508075688778 2500.0,173.20508075688764" stroke="black" /><polygon fill="none" points="500.0,519.6152422706632 400.00000000000006,692.820323027551 200.00000000000003,692.820323027551 99.99999999999997,519.6152422706633 199.9999999999999,346.4101615137755 399.9999999999999,346.41016151377534" stroke="black" /><polygon fill="none" points="1100.0,519.6152422706632 1000.0,692.820323027551 800.0,692.820323027551 700.0,519.6152422706633 799.9999999999999,346.4101615137755 999.9999999999999,346.41016151377534" stroke="black" /><polygon fill="none" points="1700.0,519.6152422706632 1600.0,692.820323027551 1400.0,692.820323027551 1300.0,519.6152422706633 1399.9999999999998,346.4101615137755 1600.0,346.41016151377534" stroke="black" /><polygon fill="none" points="2300.0,519.6152422706632 2200.0,692.820323027551 2000.0,692.820323027551 1900.0,519.6152422706633 1999.9999999999998,346.4101615137755 2200.0,346.41016151377534" stroke="black" /><polygon fill="none" points="2900.0,519.6152422706632 2800.0,692.820323027551 2600.0,692.820323027551 2500.0,519.6152422706633 2600.0,346.4101615137755 2800.0,346.41016151377534" stroke="black" /><polygon fill="none" points="200.00000000000003,692.820323027551 100.00000000000004,866.0254037844388 -99.99999999999997,866.0254037844388 -200.00000000000003,692.8203230275511 -100.00000000000013,519.6152422706633 99.9999999999999,519.6152422706632" stroke="black" /><polygon fill="none" points="800.0,692.820323027551 700.0,866.0254037844388 500.0,866.0254037844388 400.0,692.8203230275511 499.9999999999999,519.6152422706633 699.9999999999999,519.6152422706632" stroke="black" /><polygon fill="none" points="1400.0,692.820323027551 1300.0,866.0254037844388 1100.0,866.0254037844388 1000.0,692.8203230275511 1099.9999999999998,519.6152422706633 1300.0,519.6152422706632" stroke="black" /><polygon fill="none" points="2000.0,692.820323027551 1900.0,866.0254037844388 1700.0,866.0254037844388 1600.0,692.8203230275511 1699.9999999999998,519.6152422706633 1900.0,519.6152422706632" stroke="black" /><polygon fill="none" points="2600.0,692.820323027551 2500.0,866.0254037844388 2300.0,866.0254037844388 2200.0,692.8203230275511 2300.0,519.6152422706633 2500.0,519.6152422706632" stroke="black" /><polygon fill="none" points="500.0,866.0254037844388 400.00000000000006,1039.2304845413266 200.00000000000003,1039.2304845413266 99.99999999999997,866.0254037844389 199.9999999999999,692.8203230275511 399.9999999999999,692.820323027551" stroke="black" /><polygon fill="none" points="1100.0,866.0254037844388 1000.0,1039.2304845413266 800.0,1039.2304845413266 700.0,866.0254037844389 799.9999999999999,692.8203230275511 999.9999999999999,692.820323027551" stroke="black" /><polygon fill="none" points="1700.0,866.0254037844388 1600.0,1039.2304845413266 1400.0,1039.2304845413266 1300.0,866.0254037844389 1399.9999999999998,692.8203230275511 1600.0,692.820323027551" stroke="black" /><polygon fill="none" points="2300.0,866.0254037844388 2200.0,1039.2304845413266 2000.0,1039.2304845413266 1900.0,866.0254037844389 1999.9999999999998,692.8203230275511 2200.0,692.820323027551" stroke="black" /><polygon fill="none" points="2900.0,866.0254037844388 2800.0,1039.2304845413266 2600.0,1039.2304845413266 2500.0,866.0254037844389 2600.0,692.8203230275511 2800.0,692.820323027551" stroke="black" /><polygon fill="none" points="200.00000000000003,1039.2304845413264 100.00000000000004,1212.4355652982142 -99.99999999999997,1212.4355652982142 -200.00000000000003,1039.2304845413264 -100.00000000000013,866.0254037844387 99.9999999999999,866.0254037844386" stroke="black" /><polygon fill="none" points="800.0,1039.2304845413264 700.0,1212.4355652982142 500.0,1212.4355652982142 400.0,1039.2304845413264 499.9999999999999,866.0254037844387 699.9999999999999,866.0254037844386" stroke="black" /><polygon fill="none" points="1400.0,1039.2304845413264 1300.0,1212.4355652982142 1100.0,1212.4355652982142 1000.0,1039.2304845413264 1099.9999999999998,866.0254037844387 1300.0,866.0254037844386" stroke="black" /><polygon fill="none" points="2000.0,1039.2304845413264 1900.0,1212.4355652982142 1700.0,1212.4355652982142 1600.0,1039.2304845413264 1699.9999999999998,866.0254037844387 1900.0,866.0254037844386" stroke="black" /><polygon fill="none" points="2600.0,1039.2304845413264 2500.0,1212.4355652982142 2300.0,1212.4355652982142 2200.0,1039.2304845413264 2300.0,866.0254037844387 2500.0,866.0254037844386" stroke="black" /><polygon fill="none" points="500.0,1212.4355652982142 400.00000000000006,1385.640646055102 200.00000000000003,1385.640646055102 99.99999999999997,1212.4355652982142 199.9999999999999,1039.2304845413264 399.9999999999999,1039.2304845413264" stroke="black" /><polygon fill="none" points="1100.0,1212.4355652982142 1000.0,1385.640646055102 800.0,1385.640646055102 700.0,1212.4355652982142 799.9999999999999,1039.2304845413264 999.9999999999999,1039.2304845413264" stroke="black" /><polygon fill="none" points="1700.0,1212.4355652982142 1600.0,1385.640646055102 1400.0,1385.640646055102 1300.0,1212.4355652982142 1399.9999999999998,1039.2304845413264 1600.0,1039.2304845413264" stroke="black" /><polygon fill="none" points="2300.0,1212.4355652982142 2200.0,1385.640646055102 2000.0,1385.640646055102 1900.0,1212.4355652982142 1999.9999999999998,1039.2304845413264 2200.0,1039.2304845413264" stroke="black" /><polygon fill="none" points="2900.0,1212.4355652982142 2800.0,1385.640646055102 2600.0,1385.640646055102 2500.0,1212.4355652982142 2600.0,1039.2304845413264 2800.0,1039.2304845413264" stroke="black" /><polygon fill="none" points="200.00000000000003,1385.640646055102 100.00000000000004,1558.8457268119898 -99.99999999999997,1558.8457268119898 -200.00000000000003,1385.640646055102 -100.00000000000013,1212.4355652982142 99.9999999999999,1212.4355652982142" stroke="black" /><polygon fill="none" points="800.0,1385.640646055102 700.0,1558.8457268119898 500.0,1558.8457268119898 400.0,1385.640646055102 499.9999999999999,1212.4355652982142 699.9999999999999,1212.4355652982142" stroke="black" /><polygon fill="none" points="1400.0,1385.640646055102 1300.0,1558.8457268119898 1100.0,1558.8457268119898 1000.0,1385.640646055102 1099.9999999999998,1212.4355652982142 1300.0,1212.4355652982142" stroke="black" /><polygon fill="none" points="2000.0,1385.640646055102 1900.0,1558.8457268119898 1700.0,1558.8457268119898 1600.0,1385.640646055102 1699.9999999999998,1212.4355652982142 1900.0,1212.4355652982142" stroke="black" /><polygon fill="none" points="2600.0,1385.640646055102 2500.0,1558.8457268119898 2300.0,1558.8457268119898 2200.0,1385.640646055102 2300.0,1212.4355652982142 2500.0,1212.4355652982142" stroke="black" /><polygon fill="none" points="500.0,1558.8457268119898 400.00000000000006,1732.0508075688776 200.00000000000003,1732.0508075688776 99.99999999999997,1558.8457268119898 199.9999999999999,1385.640646055102 399.9999999999999,1385.640646055102" stroke="black" /><polygon fill="none" points="1100.0,1558.8457268119898 1000.0,1732.0508075688776 800.0,1732.0508075688776 700.0,1558.8457268119898 799.9999999999999,1385.640646055102 999.9999999999999,1385.640646055102" stroke="black" /><polygon fill="none" points="1700.0,1558.8457268119898 1600.0,1732.0508075688776 1400.0,1732.0508075688776 1300.0,1558.8457268119898 1399.9999999999998,1385.640646055102 1600.0,1385.640646055102" stroke="black" /><polygon fill="none" points="2300.0,1558.8457268119898 2200.0,1732.0508075688776 2000.0,1732.0508075688776 1900.0,1558.8457268119898 1999.9999999999998,1385.640646055102 2200.0,1385.640646055102" stroke="black" /><polygon fill="none" points="2900.0,1558.8457268119898 2800.0,1732.0508075688776 2600.0,1732.0508075688776 2500.0,1558.8457268119898 2600.0,1385.640646055102 2800.0,1385.640646055102" stroke="black" /><polygon fill="none" points="200.00000000000003,1732.0508075688776 100.00000000000004,1905.2558883257655 -99.99999999999997,1905.2558883257655 -200.00000000000003,1732.0508075688776 -100.00000000000013,1558.8457268119898 99.9999999999999,1558.8457268119898" stroke="black" /><polygon fill="none" points="800.0,1732.0508075688776 700.0,1905.2558883257655 500.0,1905.2558883257655 400.0,1732.0508075688776 499.9999999999999,1558.8457268119898 699.9999999999999,1558.8457268119898" stroke="black" /><polygon fill="none" points="1400.0,1732.0508075688776 1300.0,1905.2558883257655 1100.0,1905.2558883257655 1000.0,1732.0508075688776 1099.9999999999998,1558.8457268119898 1300.0,1558.8457268119898" stroke="black" /><polygon fill="none" points="2000.0,1732.0508075688776 1900.0,1905.2558883257655 1700.0,1905.2558883257655 1600.0,1732.0508075688776 1699.9999999999998,1558.8457268119898 1900.0,1558.8457268119898" stroke="black" /><polygon fill="none" points="2600.0,1732.0508075688776 2500.0,1905.2558883257655 2300.0,1905.2558883257655 2200.0,1732.0508075688776 2300.0,1558.8457268119898 2500.0,1558.8457268119898" stroke="black" /><polygon fill="none" points="500.0,1905.2558883257652 400.00000000000006,2078.460969082653 200.00000000000003,2078.460969082653 99.99999999999997,1905.2558883257652 199.9999999999999,1732.0508075688774 399.9999999999999,1732.0508075688774" stroke="black" /><polygon fill="none" points="1100.0,1905.2558883257652 1000.0,2078.460969082653 800.0,2078.460969082653 700.0,1905.2558883257652 799.9999999999999,1732.0508075688774 999.9999999999999,1732.0508075688774" stroke="black" /><polygon fill="none" points="1700.0,1905.2558883257652 1600.0,2078.460969082653 1400.0,2078.460969082653 1300.0,1905.2558883257652 1399.9999999999998,1732.0508075688774 1600.0,1732.0508075688774" stroke="black" /><polygon fill="none" points="2300.0,1905.2558883257652 2200.0,2078.460969082653 2000.0,2078.460969082653 1900.0,1905.2558883257652 1999.9999999999998,1732.0508075688774 2200.0,1732.0508075688774" stroke="black" /><polygon fill="none" points="2900.0,1905.2558883257652 2800.0,2078.460969082653 2600.0,2078.460969082653 2500.0,1905.2558883257652 2600.0,1732.0508075688774 2800.0,1732.0508075688774" stroke="black" /><polygon fill="none" points="200.00000000000003,2078.460969082653 100.00000000000004,2251.6660498395404 -99.99999999999997,2251.6660498395404 -200.00000000000003,2078.460969082653 -100.00000000000013,1905.255888325765 99.9999999999999,1905.255888325765" stroke="black" /><polygon fill="none" points="800.0,2078.460969082653 700.0,2251.6660498395404 500.0,2251.6660498395404 400.0,2078.460969082653 499.9999999999999,1905.255888325765 699.9999999999999,1905.255888325765" stroke="black" /><polygon fill="none" points="1400.0,2078.460969082653 1300.0,2251.6660498395404 1100.0,2251.6660498395404 1000.0,2078.460969082653 1099.9999999999998,1905.255888325765 1300.0,1905.255888325765" stroke="black" /><polygon fill="none" points="2000.0,2078.460969082653 1900.0,2251.6660498395404 1700.0,2251.6660498395404 1600.0,2078.460969082653 1699.9999999999998,1905.255888325765 1900.0,1905.255888325765" stroke="black" /><polygon fill="none" points="2600.0,2078.460969082653 2500.0,2251.6660498395404 2300.0,2251.6660498395404 2200.0,2078.460969082653 2300.0,1905.255888325765 2500.0,1905.255888325765" stroke="black" /><polygon fill="none" points="500.0,2251.666049839541 400.00000000000006,2424.8711305964284 200.00000000000003,2424.8711305964284 99.99999999999997,2251.666049839541 199.9999999999999,2078.4609690826533 399.9999999999999,2078.460969082653" stroke="black" /><polygon fill="none" points="1100.0,2251.666049839541 1000.0,2424.8711305964284 800.0,2424.8711305964284 700.0,2251.666049839541 799.9999999999999,2078.4609690826533 999.9999999999999,2078.460969082653" stroke="black" /><polygon fill="none" points="1700.0,2251.666049839541 1600.0,2424.8711305964284 1400.0,2424.8711305964284 1300.0,2251.666049839541 1399.9999999999998,2078.4609690826533 1600.0,2078.460969082653" stroke="black" /><polygon fill="none" points="2300.0,2251.666049839541 2200.0,2424.8711305964284 2000.0,2424.8711305964284 1900.0,2251.666049839541 1999.9999999999998,2078.4609690826533 2200.0,2078.460969082653" stroke="black" /><polygon fill="none" points="2900.0,2251.666049839541 2800.0,2424.8711305964284 2600.0,2424.8711305964284 2500.0,2251.666049839541 2600.0,2078.4609690826533 2800.0,2078.460969082653" stroke="black" /><polygon fill="none" points="200.00000000000003,2424.8711305964284 100.00000000000004,2598.076211353316 -99.99999999999997,2598.076211353316 -200.00000000000003,2424.8711305964284 -100.00000000000013,2251.666049839541 99.9999999999999,2251.6660498395404" stroke="black" /><polygon fill="none" points="800.0,2424.8711305964284 700.0,2598.076211353316 500.0,2598.076211353316 400.0,2424.8711305964284 499.9999999999999,2251.666049839541 699.9999999999999,2251.6660498395404" stroke="black" /><polygon fill="none" points="1400.0,2424.8711305964284 1300.0,2598.076211353316 1100.0,2598.076211353316 1000.0,2424.8711305964284 1099.9999999999998,2251.666049839541 1300.0,2251.6660498395404" stroke="black" /><polygon fill="none" points="2000.0,2424.8711305964284 1900.0,2598.076211353316 1700.0,2598.076211353316 1600.0,2424.8711305964284 1699.9999999999998,2251.666049839541 1900.0,2251.6660498395404" stroke="black" /><polygon fill="none" points="2600.0,2424.8711305964284 2500.0,2598.076211353316 2300.0,2598.076211353316 2200.0,2424.8711305964284 2300.0,2251.666049839541 2500.0,2251.6660498395404" stroke="black" /><polygon fill="none" points="500.0,2598.0762113533165 400.00000000000006,2771.281292110204 200.00000000000003,2771.281292110204 99.99999999999997,2598.0762113533165 199.9999999999999,2424.871130596429 399.9999999999999,2424.8711305964284" stroke="black" /><polygon fill="none" points="1100.0,2598.0762113533165 1000.0,2771.281292110204 800.0,2771.281292110204 700.0,2598.0762113533165 799.9999999999999,2424.871130596429 999.9999999999999,2424.8711305964284" stroke="black" /><polygon fill="none" points="1700.0,2598.0762113533165 1600.0,2771.281292110204 1400.0,2771.281292110204 1300.0,2598.0762113533165 1399.9999999999998,2424.871130596429 1600.0,2424.8711305964284" stroke="black" /><polygon fill="none" points="2300.0,2598.0762113533165 2200.0,2771.281292110204 2000.0,2771.281292110204 1900.0,2598.0762113533165 1999.9999999999998,2424.871130596429 2200.0,2424.8711305964284" stroke="black" /><polygon fill="none" points="2900.0,2598.0762113533165 2800.0,2771.281292110204 2600.0,2771.281292110204 2500.0,2598.0762113533165 2600.0,2424.871130596429 2800.0,2424.8711305964284" stroke="black" /><polygon fill="none" points="200.00000000000003,2771.281292110204 100.00000000000004,2944.4863728670916 -99.99999999999997,2944.4863728670916 -200.00000000000003,2771.281292110204 -100.00000000000013,2598.0762113533165 99.9999999999999,2598.076211353316" stroke="black" /><polygon fill="none" points="800.0,2771.281292110204 700.0,2944.4863728670916 500.0,2944.4863728670916 400.0,2771.281292110204 499.9999999999999,2598.0762113533165 699.9999999999999,2598.076211353316" stroke="black" /><polygon fill="none" points="1400.0,2771.281292110204 1300.0,2944.4863728670916 1100.0,2944.4863728670916 1000.0,2771.281292110204 1099.9999999999998,2598.0762113533165 1300.0,2598.076211353316" stroke="black" /><polygon fill="none" points="2000.0,2771.281292110204 1900.0,2944.4863728670916 1700.0,2944.4863728670916 1600.0,2771.281292110204 1699.9999999999998,2598.0762113533165 1900.0,2598.076211353316" stroke="black" /><polygon fill="none" points="2600.0,2771.281292110204 2500.0,2944.4863728670916 2300.0,2944.4863728670916 2200.0,2771.281292110204 2300.0,2598.0762113533165 2500.0,2598.076211353316" stroke="black" /><polygon fill="none" points="500.0,2944.4863728670916 400.00000000000006,3117.691453623979 200.00000000000003,3117.691453623979 99.99999999999997,2944.4863728670916 199.9999999999999,2771.281292110204 399.9999999999999,2771.2812921102036" stroke="black" /><polygon fill="none" points="1100.0,2944.4863728670916 1000.0,3117.691453623979 800.0,3117.691453623979 700.0,2944.4863728670916 799.9999999999999,2771.281292110204 999.9999999999999,2771.2812921102036" stroke="black" /><polygon fill="none" points="1700.0,2944.4863728670916 1600.0,3117.691453623979 1400.0,3117.691453623979 1300.0,2944.4863728670916 1399.9999999999998,2771.281292110204 1600.0,2771.2812921102036" stroke="black" /><polygon fill="none" points="2300.0,2944.4863728670916 2200.0,3117.691453623979 2000.0,3117.691453623979 1900.0,2944.4863728670916 1999.9999999999998,2771.281292110204 2200.0,2771.2812921102036" stroke="black" /><polygon fill="none" points="2900.0,2944.4863728670916 2800.0,3117.691453623979 2600.0,3117.691453623979 2500.0,2944.4863728670916 2600.0,2771.281292110204 2800.0,2771.2812921102036" stroke="black" /><polygon fill="none" points="200.00000000000003,3117.6914536239797 100.00000000000004,3290.8965343808673 -99.99999999999997,3290.8965343808673 -200.00000000000003,3117.6914536239797 -100.00000000000013,2944.486372867092 99.9999999999999,2944.4863728670916" stroke="black" /><polygon fill="none" points="800.0,3117.6914536239797 700.0,3290.8965343808673 500.0,3290.8965343808673 400.0,3117.6914536239797 499.9999999999999,2944.486372867092 699.9999999999999,2944.4863728670916" stroke="black" /><polygon fill="none" points="1400.0,3117.6914536239797 1300.0,3290.8965343808673 1100.0,3290.8965343808673 1000.0,3117.6914536239797 1099.9999999999998,2944.486372867092 1300.0,2944.4863728670916" stroke="black" /><polygon fill="none" points="2000.0,3117.6914536239797 1900.0,3290.8965343808673 1700.0,3290.8965343808673 1600.0,3117.6914536239797 1699.9999999999998,2944.486372867092 1900.0,2944.4863728670916" stroke="black" /><polygon fill="none" points="2600.0,3117.6914536239797 2500.0,3290.8965343808673 2300.0,3290.8965343808673 2200.0,3117.6914536239797 2300.0,2944.486372867092 2500.0,2944.4863728670916" stroke="black" /></svg>