<?xml version="1.0" encoding="utf-8" ?>
<svg baseProfile="full" height="2970" version="1.1" width="2100" xmlns="http://www.w3.org/2000/svg" xmlns:ev="http://www.w3.org/2001/xml-events" xmlns:xlink="http://www.w3.org/1999/xlink"><defs /><polygon fill="none" points="87.10419765842511,-174.20839531685021 10.56751118540717,10.56751118540717 -174.20839531685021,87.10419765842516 -358.9843018191076,10.567511185407199 -435.52098829212565,-174.20839531685021 -358.9843018191077,-358.9843018191077 -174.20839531685021,-435.5209882921257 10.567511185407284,-358.9843018191077" stroke="black" /><polygon fill="none" points="609.7293836089758,-174.20839531685021 533.1926971359578,10.56751118540717 348.4167906337005,87.10419765842516 163.64088413144307,10.567511185407199 87.10419765842505,-174.20839531685021 163.64088413144302,-358.9843018191077 348.4167906337005,-435.5209882921257 533.192697135958,-358.9843018191077" stroke="black" /><polygon fill="none" points="1132.3545695595265,-174.20839531685021 1055.8178830865086,10.56751118540717 871.0419765842511,87.10419765842516 686.2660700819937,10.567511185407199 609.7293836089757,-174.20839531685021 686.2660700819936,-358.9843018191077 871.0419765842511,-435.5209882921257 1055.8178830865086,-358.9843018191077" stroke="black" /><polygon fill="none" points="1654.979755510077,-174.20839531685021 1578.443069037059,10.56751118540717 1393.6671625348017,87.10419765842516 1208.8912560325443,10.567511185407199 1132.3545695595262,-174.20839531685021 1208.8912560325443,-358.9843018191077 1393.6671625348017,-435.5209882921257 1578.443069037059,-358.9843018191077" stroke="black" /><polygon fill="none" points="2177.6049414606277,-174.20839531685021 2101.0682549876096,10.56751118540717 1916.2923484853522,87.10419765842516 1731.5164419830949,10.567511185407199 1654.9797555100768,-174.20839531685021 1731.5164419830949,-358.9843018191077 1916.2923484853522,-435.5209882921257 2101.0682549876096,-358.9843018191077" stroke="black" /><polygon fill="none" points="2700.2301274111787,-174.20839531685021 2623.6934409381606,10.56751118540717 2438.9175344359032,87.10419765842516 2254.141627933646,10.567511185407199 2177.6049414606277,-174.20839531685021 2254.141627933646,-358.9843018191077 2438.9175344359032,-435.5209882921257 2623.6934409381606,-358.9843018191077" stroke="black" /><polygon fill="none" points="87.10419765842511,348.4167906337005 10.56751118540717,533.1926971359578 -174.20839531685021,609.7293836089759 -358.9843018191076,533.1926971359579 -435.52098829212565,348.4167906337005 -358.9843018191077,163.64088413144302 -174.20839531685021,87.104197658425 10.567511185407284,163.640884131443" stroke="black" /><polygon fill="none" points="609.7293836089758,348.4167906337005 533.1926971359578,533.1926971359578 348.4167906337005,609.7293836089759 163.64088413144307,533.1926971359579 87.10419765842505,348.4167906337005 163.64088413144302,163.64088413144302 348.4167906337005,87.104197658425 533.192697135958,163.640884131443" stroke="black" /><polygon fill="none" points="1132.3545695595265,348.4167906337005 1055.8178830865086,533.1926971359578 871.0419765842511,609.7293836089759 686.2660700819937,533.1926971359579 609.7293836089757,348.4167906337005 686.2660700819936,163.64088413144302 871.0419765842511,87.104197658425 1055.8178830865086,163.640884131443" stroke="black" /><polygon fill="none" points="1654.979755510077,348.4167906337005 1578.443069037059,533.1926971359578 1393.6671625348017,609.7293836089759 1208.8912560325443,533.1926971359579 1132.3545695595262,348.4167906337005 1208.8912560325443,163.64088413144302 1393.6671625348017,87.104197658425 1578.443069037059,163.640884131443" stroke="black" /><polygon fill="none" points="2177.6049414606277,348.4167906337005 2101.0682549876096,533.1926971359578 1916.2923484853522,609.7293836089759 1731.5164419830949,533.1926971359579 1654.9797555100768,348.4167906337005 1731.5164419830949,163.64088413144302 1916.2923484853522,87.104197658425 2101.0682549876096,163.640884131443" stroke="black" /><polygon fill="none" points="2700.2301274111787,348.4167906337005 2623.6934409381606,533.1926971359578 2438.9175344359032,609.7293836089759 2254.141627933646,533.1926971359579 2177.6049414606277,348.4167906337005 2254.141627933646,163.64088413144302 2438.9175344359032,87.104197658425 2623.6934409381606,163.640884131443" stroke="black" /><polygon fill="none" points="87.10419765842511,871.0419765842511 10.56751118540717,1055.8178830865086 -174.20839531685021,1132.3545695595265 -358.9843018191076,1055.8178830865086 -435.52098829212565,871.0419765842511 -358.9843018191077,686.2660700819936 -174.20839531685021,609.7293836089756 10.567511185407284,686.2660700819936" stroke="black" /><polygon fill="none" points="609.7293836089758,871.0419765842511 533.1926971359578,1055.8178830865086 348.4167906337005,1132.3545695595265 163.64088413144307,1055.8178830865086 87.10419765842505,871.0419765842511 163.64088413144302,686.2660700819936 348.4167906337005,609.7293836089756 533.192697135958,686.2660700819936" stroke="black" /><polygon fill="none" points="1132.3545695595265,871.0419765842511 1055.8178830865086,1055.8178830865086 871.0419765842511,1132.3545695595265 686.2660700819937,1055.8178830865086 609.7293836089757,871.0419765842511 686.2660700819936,686.2660700819936 871.0419765842511,609.7293836089756 1055.8178830865086,686.2660700819936" stroke="black" /><polygon fill="none" points="1654.979755510077,871.0419765842511 1578.443069037059,1055.8178830865086 1393.6671625348017,1132.3545695595265 1208.8912560325443,1055.8178830865086 1132.3545695595262,871.0419765842511 1208.8912560325443,686.2660700819936 1393.6671625348017,609.7293836089756 1578.443069037059,686.2660700819936" stroke="black" /><polygon fill="none" points="2177.6049414606277,871.0419765842511 2101.0682549876096,1055.8178830865086 1916.2923484853522,1132.3545695595265 1731.5164419830949,1055.8178830865086 1654.9797555100768,871.0419765842511 1731.5164419830949,686.2660700819936 1916.2923484853522,609.7293836089756 2101.0682549876096,686.2660700819936" stroke="black" /><polygon fill="none" points="2700.2301274111787,871.0419765842511 2623.6934409381606,1055.8178830865086 2438.9175344359032,1132.3545695595265 2254.141627933646,1055.8178830865086 2177.6049414606277,871.0419765842511 2254.141627933646,686.2660700819936 2438.9175344359032,609.7293836089756 2623.6934409381606,686.2660700819936" stroke="black" /><polygon fill="none" points="87.10419765842511,1393.6671625348017 10.56751118540717,1578.443069037059 -174.20839531685021,1654.9797555100772 -358.9843018191076,1578.443069037059 -435.52098829212565,1393.6671625348017 -358.9843018191077,1208.8912560325443 -174.20839531685021,1132.3545695595262 10.567511185407284,1208.8912560325443" stroke="black" /><polygon fill="none" points="609.7293836089758,1393.6671625348017 533.1926971359578,1578.443069037059 348.4167906337005,1654.9797555100772 163.64088413144307,1578.443069037059 87.10419765842505,1393.6671625348017 163.64088413144302,1208.8912560325443 348.4167906337005,1132.3545695595262 533.192697135958,1208.8912560325443" stroke="black" /><polygon fill="none" points="1132.3545695595265,1393.6671625348017 1055.8178830865086,1578.443069037059 871.0419765842511,1654.9797555100772 686.2660700819937,1578.443069037059 609.7293836089757,1393.6671625348017 686.2660700819936,1208.8912560325443 871.0419765842511,1132.3545695595262 1055.8178830865086,1208.8912560325443" stroke="black" /><polygon fill="none" points="1654.979755510077,1393.6671625348017 1578.443069037059,1578.443069037059 1393.6671625348017,1654.9797555100772 1208.8912560325443,1578.443069037059 1132.3545695595262,1393.6671625348017 1208.8912560325443,1208.8912560325443 1393.6671625348017,1132.3545695595262 1578.443069037059,1208.8912560325443" stroke="black" /><polygon fill="none" points="2177.6049414606277,1393.6671625348017 2101.0682549876096,1578.443069037059 1916.2923484853522,1654.9797555100772 1731.5164419830949,1578.443069037059 1654.9797555100768,1393.6671625348017 1731.5164419830949,1208.8912560325443 1916.2923484853522,1132.3545695595262 2101.0682549876096,1208.8912560325443" stroke="black" /><polygon fill="none" points="2700.2301274111787,1393.6671625348017 2623.6934409381606,1578.443069037059 2438.9175344359032,1654.9797555100772 2254.141627933646,1578.443069037059 2177.6049414606277,1393.6671625348017 2254.141627933646,1208.8912560325443 2438.9175344359032,1132.3545695595262 2623.6934409381606,1208.8912560325443" stroke="black" /><polygon fill="none" points="87.10419765842511,1916.2923484853522 10.56751118540717,2101.0682549876096 -174.20839531685021,2177.6049414606277 -358.9843018191076,2101.0682549876096 -435.52098829212565,1916.2923484853522 -358.9843018191077,1731.5164419830949 -174.20839531685021,1654.9797555100768 10.567511185407284,1731.5164419830949" stroke="black" /><polygon fill="none" points="609.7293836089758,1916.2923484853522 533.1926971359578,2101.0682549876096 348.4167906337005,2177.6049414606277 163.64088413144307,2101.0682549876096 87.10419765842505,1916.2923484853522 163.64088413144302,1731.5164419830949 348.4167906337005,1654.9797555100768 533.192697135958,1731.5164419830949" stroke="black" /><polygon fill="none" points="1132.3545695595265,1916.2923484853522 1055.8178830865086,2101.0682549876096 871.0419765842511,2177.6049414606277 686.2660700819937,2101.0682549876096 609.7293836089757,1916.2923484853522 686.2660700819936,1731.5164419830949 871.0419765842511,1654.9797555100768 1055.8178830865086,1731.5164419830949" stroke="black" /><polygon fill="none" points="1654.979755510077,1916.2923484853522 1578.443069037059,2101.0682549876096 1393.6671625348017,2177.6049414606277 1208.8912560325443,2101.0682549876096 1132.3545695595262,1916.2923484853522 1208.8912560325443,1731.5164419830949 1393.6671625348017,1654.9797555100768 1578.443069037059,1731.5164419830949" stroke="black" /><polygon fill="none" points="2177.6049414606277,1916.2923484853522 2101.0682549876096,2101.0682549876096 1916.2923484853522,2177.6049414606277 1731.5164419830949,2101.0682549876096 1654.9797555100768,1916.2923484853522 1731.5164419830949,1731.5164419830949 1916.2923484853522,1654.9797555100768 2101.0682549876096,1731.5164419830949" stroke="black" /><polygon fill="none" points="2700.2301274111787,1916.2923484853522 2623.6934409381606,2101.0682549876096 2438.9175344359032,2177.6049414606277 2254.141627933646,2101.0682549876096 2177.6049414606277,1916.2923484853522 2254.141627933646,1731.5164419830949 2438.9175344359032,1654.9797555100768 2623.6934409381606,1731.5164419830949" stroke="black" /><polygon fill="none" points="87.10419765842511,2438.9175344359032 10.56751118540717,2623.6934409381606 -174.20839531685021,2700.2301274111787 -358.9843018191076,2623.6934409381606 -435.52098829212565,2438.9175344359032 -358.9843018191077,2254.141627933646 -174.20839531685021,2177.6049414606277 10.567511185407284,2254.141627933646" stroke="black" /><polygon fill="none" points="609.7293836089758,2438.9175344359032 533.1926971359578,2623.6934409381606 348.4167906337005,2700.2301274111787 163.64088413144307,2623.6934409381606 87.10419765842505,2438.9175344359032 163.64088413144302,2254.141627933646 348.4167906337005,2177.6049414606277 533.192697135958,2254.141627933646" stroke="black" /><polygon fill="none" points="1132.3545695595265,2438.9175344359032 1055.8178830865086,2623.6934409381606 871.0419765842511,2700.2301274111787 686.2660700819937,2623.6934409381606 609.7293836089757,2438.9175344359032 686.2660700819936,2254.141627933646 871.0419765842511,2177.6049414606277 1055.8178830865086,2254.141627933646" stroke="black" /><polygon fill="none" points="1654.979755510077,2438.9175344359032 1578.443069037059,2623.6934409381606 1393.6671625348017,2700.2301274111787 1208.8912560325443,2623.6934409381606 1132.3545695595262,2438.9175344359032 1208.8912560325443,2254.141627933646 1393.6671625348017,2177.6049414606277 1578.443069037059,2254.141627933646" stroke="black" /><polygon fill="none" points="2177.6049414606277,2438.9175344359032 2101.0682549876096,2623.6934409381606 1916.2923484853522,2700.2301274111787 1731.5164419830949,2623.6934409381606 1654.9797555100768,2438.9175344359032 1731.5164419830949,2254.141627933646 1916.2923484853522,2177.6049414606277 2101.0682549876096,2254.141627933646" stroke="black" /><polygon fill="none" points="2700.2301274111787,2438.9175344359032 2623.6934409381606,2623.6934409381606 2438.9175344359032,2700.2301274111787 2254.141627933646,2623.6934409381606 2177.6049414606277,2438.9175344359032 2254.141627933646,2254.141627933646 2438.9175344359032,2177.6049414606277 2623.6934409381606,2254.141627933646" stroke="black" /><polygon fill="none" points="87.10419765842511,2961.5427203864538 10.56751118540717,3146.318626888711 -174.20839531685021,3222.8553133617293 -358.9843018191076,3146.318626888711 -435.52098829212565,2961.5427203864538 -358.9843018191077,2776.7668138841964 -174.20839531685021,2700.2301274111783 10.567511185407284,2776.7668138841964" stroke="black" /><polygon fill="none" points="609.7293836089758,2961.5427203864538 533.1926971359578,3146.318626888711 348.4167906337005,3222.8553133617293 163.64088413144307,3146.318626888711 87.10419765842505,2961.5427203864538 163.64088413144302,2776.7668138841964 348.4167906337005,2700.2301274111783 533.192697135958,2776.7668138841964" stroke="black" /><polygon fill="none" points="1132.3545695595265,2961.5427203864538 1055.8178830865086,3146.318626888711 871.0419765842511,3222.8553133617293 686.2660700819937,3146.318626888711 609.7293836089757,2961.5427203864538 686.2660700819936,2776.7668138841964 871.0419765842511,2700.2301274111783 1055.8178830865086,2776.7668138841964" stroke="black" /><polygon fill="none" points="1654.979755510077,2961.5427203864538 1578.443069037059,3146.318626888711 1393.6671625348017,3222.8553133617293 1208.8912560325443,3146.318626888711 1132.3545695595262,2961.5427203864538 1208.8912560325443,2776.7668138841964 1393.6671625348017,2700.2301274111783 1578.443069037059,2776.7668138841964" stroke="black" /><polygon fill="none" points="2177.6049414606277,2961.5427203864538 2101.0682549876096,3146.318626888711 1916.2923484853522,3222.8553133617293 1731.5164419830949,3146.318626888711 1654.9797555100768,2961.5427203864538 1731.5164419830949,2776.7668138841964 1916.2923484853522,2700.2301274111783 2101.0682549876096,2776.7668138841964" stroke="black" /><polygon fill="none" points="2700.2301274111787,2961.5427203864538 2623.6934409381606,3146.318626888711 2438.9175344359032,3222.8553133617293 2254.141627933646,3146.318626888711 2177.6049414606277,2961.5427203864538 2254.141627933646,2776.7668138841964 2438.9175344359032,2700.2301274111783 2623.6934409381606,2776.7668138841964" stroke="black" /></svg>