<?xml version="1.0" encoding="utf-8" ?>
<svg baseProfile="full" height="2970" version="1.1" width="2100" xmlns="http://www.w3.org/2000/svg" xmlns:ev="http://www.w3.org/2001/xml-events" xmlns:xlink="http://www.w3.org/1999/xlink"><defs /><polygon fill="none" points="261.3125929752753,0.0 184.77590650225739,184.77590650225739 0.0,261.3125929752754 -184.7759065022574,184.7759065022574 -261.31259297527544,0.0 -184.77590650225747,-184.77590650225747 0.0,-261.3125929752755 184.7759065022575,-184.7759065022575" stroke="black" /><polygon fill="none" points="783.937778925826,0.0 707.401092452808,184.77590650225739 522.6251859505506,261.3125929752754 337.84927944829326,184.7759065022574 261.3125929752752,0.0 337.84927944829315,-184.77590650225747 522.6251859505506,-261.3125929752755 707.4010924528081,-184.7759065022575" stroke="black" /><polygon fill="none" points="1306.5629648763766,0.0 1230.0262784033587,184.77590650225739 1045.2503719011013,261.3125929752754 860.4744653988439,184.7759065022574 783.9377789258258,0.0 860.4744653988438,-184.77590650225747 1045.2503719011013,-261.3125929752755 1230.026278403359,-184.7759065022575" stroke="black" /><polygon fill="none" points="1829.1881508269273,0.0 1752.6514643539094,184.77590650225739 1567.875557851652,261.3125929752754 1383.0996513493947,184.7759065022574 1306.5629648763766,0.0 1383.0996513493947,-184.77590650225747 1567.875557851652,-261.3125929752755 1752.6514643539094,-184.7759065022575" stroke="black" /><polygon fill="none" points="2351.813336777478,0.0 2275.27665030446,184.77590650225739 2090.5007438022026,261.3125929752754 1905.7248372999452,184.7759065022574 1829.188150826927,0.0 1905.7248372999452,-184.77590650225747 2090.5007438022026,-261.3125929752755 2275.27665030446,-184.7759065022575" stroke="black" /><polygon fill="none" points="2874.4385227280286,0.0 2797.9018362550105,184.77590650225739 2613.125929752753,261.3125929752754 2428.3500232504957,184.7759065022574 2351.8133367774776,0.0 2428.3500232504957,-184.77590650225747 2613.125929752753,-261.3125929752755 2797.9018362550105,-184.7759065022575" stroke="black" /><polygon fill="none" points="261.3125929752753,522.6251859505506 184.77590650225739,707.401092452808 0.0,783.937778925826 -184.7759065022574,707.401092452808 -261.31259297527544,522.6251859505506 -184.77590650225747,337.84927944829315 0.0,261.31259297527515 184.7759065022575,337.84927944829315" stroke="black" /><polygon fill="none" points="783.937778925826,522.6251859505506 707.401092452808,707.401092452808 522.6251859505506,783.937778925826 337.84927944829326,707.401092452808 261.3125929752752,522.6251859505506 337.84927944829315,337.84927944829315 522.6251859505506,261.31259297527515 707.4010924528081,337.84927944829315" stroke="black" /><polygon fill="none" points="1306.5629648763766,522.6251859505506 1230.0262784033587,707.401092452808 1045.2503719011013,783.937778925826 860.4744653988439,707.401092452808 783.9377789258258,522.6251859505506 860.4744653988438,337.84927944829315 1045.2503719011013,261.31259297527515 1230.026278403359,337.84927944829315" stroke="black" /><polygon fill="none" points="1829.1881508269273,522.6251859505506 1752.6514643539094,707.401092452808 1567.875557851652,783.937778925826 1383.0996513493947,707.401092452808 1306.5629648763766,522.6251859505506 1383.0996513493947,337.84927944829315 1567.875557851652,261.31259297527515 1752.6514643539094,337.84927944829315" stroke="black" /><polygon fill="none" points="2351.813336777478,522.6251859505506 2275.27665030446,707.401092452808 2090.5007438022026,783.937778925826 1905.7248372999452,707.401092452808 1829.188150826927,522.6251859505506 1905.7248372999452,337.84927944829315 2090.5007438022026,261.31259297527515 2275.27665030446,337.84927944829315" stroke="black" /><polygon fill="none" points="2874.4385227280286,522.6251859505506 2797.9018362550105,707.401092452808 2613.125929752753,783.937778925826 2428.3500232504957,707.401092452808 2351.8133367774776,522.6251859505506 2428.3500232504957,337.84927944829315 2613.125929752753,261.31259297527515 2797.9018362550105,337.84927944829315" stroke="black" /><polygon fill="none" points="261.3125929752753,1045.2503719011013 184.77590650225739,1230.0262784033587 0.0,1306.5629648763766 -184.7759065022574,1230.0262784033587 -261.31259297527544,1045.2503719011013 -184.77590650225747,860.4744653988438 0.0,783.9377789258258 184.7759065022575,860.4744653988438" stroke="black" /><polygon fill="none" points="783.937778925826,1045.2503719011013 707.401092452808,1230.0262784033587 522.6251859505506,1306.5629648763766 337.84927944829326,1230.0262784033587 261.3125929752752,1045.2503719011013 337.84927944829315,860.4744653988438 522.6251859505506,783.9377789258258 707.4010924528081,860.4744653988438" stroke="black" /><polygon fill="none" points="1306.5629648763766,1045.2503719011013 1230.0262784033587,1230.0262784033587 1045.2503719011013,1306.5629648763766 860.4744653988439,1230.0262784033587 783.9377789258258,1045.2503719011013 860.4744653988438,860.4744653988438 1045.2503719011013,783.9377789258258 1230.026278403359,860.4744653988438" stroke="black" /><polygon fill="none" points="1829.1881508269273,1045.2503719011013 1752.6514643539094,1230.0262784033587 1567.875557851652,1306.5629648763766 1383.0996513493947,1230.0262784033587 1306.5629648763766,1045.2503719011013 1383.0996513493947,860.4744653988438 1567.875557851652,783.9377789258258 1752.6514643539094,860.4744653988438" stroke="black" /><polygon fill="none" points="2351.813336777478,1045.2503719011013 2275.27665030446,1230.0262784033587 2090.5007438022026,1306.5629648763766 1905.7248372999452,1230.0262784033587 1829.188150826927,1045.2503719011013 1905.7248372999452,860.4744653988438 2090.5007438022026,783.9377789258258 2275.27665030446,860.4744653988438" stroke="black" /><polygon fill="none" points="2874.4385227280286,1045.2503719011013 2797.9018362550105,1230.0262784033587 2613.125929752753,1306.5629648763766 2428.3500232504957,1230.0262784033587 2351.8133367774776,1045.2503719011013 2428.3500232504957,860.4744653988438 2613.125929752753,783.9377789258258 2797.9018362550105,860.4744653988438" stroke="black" /><polygon fill="none" points="261.3125929752753,1567.875557851652 184.77590650225739,1752.6514643539094 0.0,1829.1881508269275 -184.7759065022574,1752.6514643539094 -261.31259297527544,1567.875557851652 -184.77590650225747,1383.0996513493947 0.0,1306.5629648763766 184.7759065022575,1383.0996513493947" stroke="black" /><polygon fill="none" points="783.937778925826,1567.875557851652 707.401092452808,1752.6514643539094 522.6251859505506,1829.1881508269275 337.84927944829326,1752.6514643539094 261.3125929752752,1567.875557851652 337.84927944829315,1383.0996513493947 522.6251859505506,1306.5629648763766 707.4010924528081,1383.0996513493947" stroke="black" /><polygon fill="none" points="1306.5629648763766,1567.875557851652 1230.0262784033587,1752.6514643539094 1045.2503719011013,1829.1881508269275 860.4744653988439,1752.6514643539094 783.9377789258258,1567.875557851652 860.4744653988438,1383.0996513493947 1045.2503719011013,1306.5629648763766 1230.026278403359,1383.0996513493947" stroke="black" /><polygon fill="none" points="1829.1881508269273,1567.875557851652 1752.6514643539094,1752.6514643539094 1567.875557851652,1829.1881508269275 1383.0996513493947,1752.6514643539094 1306.5629648763766,1567.875557851652 1383.0996513493947,1383.0996513493947 1567.875557851652,1306.5629648763766 1752.6514643539094,1383.0996513493947" stroke="black" /><polygon fill="none" points="2351.813336777478,1567.875557851652 2275.27665030446,1752.6514643539094 2090.5007438022026,1829.1881508269275 1905.7248372999452,1752.6514643539094 1829.188150826927,1567.875557851652 1905.7248372999452,1383.0996513493947 2090.5007438022026,1306.5629648763766 2275.27665030446,1383.0996513493947" stroke="black" /><polygon fill="none" points="2874.4385227280286,1567.875557851652 2797.9018362550105,1752.6514643539094 2613.125929752753,1829.1881508269275 2428.3500232504957,1752.6514643539094 2351.8133367774776,1567.875557851652 2428.3500232504957,1383.0996513493947 2613.125929752753,1306.5629648763766 2797.9018362550105,1383.0996513493947" stroke="black" /><polygon fill="none" points="261.3125929752753,2090.5007438022026 184.77590650225739,2275.27665030446 0.0,2351.813336777478 -184.7759065022574,2275.27665030446 -261.31259297527544,2090.5007438022026 -184.77590650225747,1905.7248372999452 0.0,1829.188150826927 184.7759065022575,1905.7248372999452" stroke="black" /><polygon fill="none" points="783.937778925826,2090.5007438022026 707.401092452808,2275.27665030446 522.6251859505506,2351.813336777478 337.84927944829326,2275.27665030446 261.3125929752752,2090.5007438022026 337.84927944829315,1905.7248372999452 522.6251859505506,1829.188150826927 707.4010924528081,1905.7248372999452" stroke="black" /><polygon fill="none" points="1306.5629648763766,2090.5007438022026 1230.0262784033587,2275.27665030446 1045.2503719011013,2351.813336777478 860.4744653988439,2275.27665030446 783.9377789258258,2090.5007438022026 860.4744653988438,1905.7248372999452 1045.2503719011013,1829.188150826927 1230.026278403359,1905.7248372999452" stroke="black" /><polygon fill="none" points="1829.1881508269273,2090.5007438022026 1752.6514643539094,2275.27665030446 1567.875557851652,2351.813336777478 1383.0996513493947,2275.27665030446 1306.5629648763766,2090.5007438022026 1383.0996513493947,1905.7248372999452 1567.875557851652,1829.188150826927 1752.6514643539094,1905.7248372999452" stroke="black" /><polygon fill="none" points="2351.813336777478,2090.5007438022026 2275.27665030446,2275.27665030446 2090.5007438022026,2351.813336777478 1905.7248372999452,2275.27665030446 1829.188150826927,2090.5007438022026 1905.7248372999452,1905.7248372999452 2090.5007438022026,1829.188150826927 2275.27665030446,1905.7248372999452" stroke="black" /><polygon fill="none" points="2874.4385227280286,2090.5007438022026 2797.9018362550105,2275.27665030446 2613.125929752753,2351.813336777478 2428.3500232504957,2275.27665030446 2351.8133367774776,2090.5007438022026 2428.3500232504957,1905.7248372999452 2613.125929752753,1829.188150826927 2797.9018362550105,1905.7248372999452" stroke="black" /><polygon fill="none" points="261.3125929752753,2613.125929752753 184.77590650225739,2797.9018362550105 0.0,2874.4385227280286 -184.7759065022574,2797.9018362550105 -261.31259297527544,2613.125929752753 -184.77590650225747,2428.3500232504957 0.0,2351.8133367774776 184.7759065022575,2428.3500232504957" stroke="black" /><polygon fill="none" points="783.937778925826,2613.125929752753 707.401092452808,2797.9018362550105 522.6251859505506,2874.4385227280286 337.84927944829326,2797.9018362550105 261.3125929752752,2613.125929752753 337.84927944829315,2428.3500232504957 522.6251859505506,2351.8133367774776 707.4010924528081,2428.3500232504957" stroke="black" /><polygon fill="none" points="1306.5629648763766,2613.125929752753 1230.0262784033587,2797.9018362550105 1045.2503719011013,2874.4385227280286 860.4744653988439,2797.9018362550105 783.9377789258258,2613.125929752753 860.4744653988438,2428.3500232504957 1045.2503719011013,2351.8133367774776 1230.026278403359,2428.3500232504957" stroke="black" /><polygon fill="none" points="1829.1881508269273,2613.125929752753 1752.6514643539094,2797.9018362550105 1567.875557851652,2874.4385227280286 1383.0996513493947,2797.9018362550105 1306.5629648763766,2613.125929752753 1383.0996513493947,2428.3500232504957 1567.875557851652,2351.8133367774776 1752.6514643539094,2428.3500232504957" stroke="black" /><polygon fill="none" points="2351.813336777478,2613.125929752753 2275.27665030446,2797.9018362550105 2090.5007438022026,2874.4385227280286 1905.7248372999452,2797.9018362550105 1829.188150826927,2613.125929752753 1905.7248372999452,2428.3500232504957 2090.5007438022026,2351.8133367774776 2275.27665030446,2428.3500232504957" stroke="black" /><polygon fill="none" points="2874.4385227280286,2613.125929752753 2797.9018362550105,2797.9018362550105 2613.125929752753,2874.4385227280286 2428.3500232504957,2797.9018362550105 2351.8133367774776,2613.125929752753 2428.3500232504957,2428.3500232504957 2613.125929752753,2351.8133367774776 2797.9018362550105,2428.3500232504957" stroke="black" /><polygon fill="none" points="261.3125929752753,3135.751115703304 184.77590650225739,3320.5270222055615 0.0,3397.0637086785796 -184.7759065022574,3320.5270222055615 -261.31259297527544,3135.751115703304 -184.77590650225747,2950.9752092010467 0.0,2874.4385227280286 184.7759065022575,2950.9752092010467" stroke="black" /><polygon fill="none" points="783.937778925826,3135.751115703304 707.401092452808,3320.5270222055615 522.6251859505506,3397.0637086785796 337.84927944829326,3320.5270222055615 261.3125929752752,3135.751115703304 337.84927944829315,2950.9752092010467 522.6251859505506,2874.4385227280286 707.4010924528081,2950.9752092010467" stroke="black" /><polygon fill="none" points="1306.5629648763766,3135.751115703304 1230.0262784033587,3320.5270222055615 1045.2503719011013,3397.0637086785796 860.4744653988439,3320.5270222055615 783.9377789258258,3135.751115703304 860.4744653988438,2950.9752092010467 1045.2503719011013,2874.4385227280286 1230.026278403359,2950.9752092010467" stroke="black" /><polygon fill="none" points="1829.1881508269273,3135.751115703304 1752.6514643539094,3320.5270222055615 1567.875557851652,3397.0637086785796 1383.0996513493947,3320.5270222055615 1306.5629648763766,3135.751115703304 1383.0996513493947,2950.9752092010467 1567.875557851652,2874.4385227280286 1752.6514643539094,2950.9752092010467" stroke="black" /><polygon fill="none" points="2351.813336777478,3135.751115703304 2275.27665030446,3320.5270222055615 2090.5007438022026,3397.0637086785796 1905.7248372999452,3320.5270222055615 1829.188150826927,3135.751115703304 1905.7248372999452,2950.9752092010467 2090.5007438022026,2874.4385227280286 2275.27665030446,2950.9752092010467" stroke="black" /><polygon fill="none" points="2874.4385227280286,3135.751115703304 2797.9018362550105,3320.5270222055615 2613.125929752753,3397.0637086785796 2428.3500232504957,3320.5270222055615 2351.8133367774776,3135.751115703304 2428.3500232504957,2950.9752092010467 2613.125929752753,2874.4385227280286 2797.9018362550105,2950.9752092010467" stroke="black" /></svg>