<?xml version="1.0" encoding="utf-8" ?>
<svg baseProfile="full" height="2970" version="1.1" width="2100" xmlns="http://www.w3.org/2000/svg" xmlns:ev="http://www.w3.org/2001/xml-events" xmlns:xlink="http://www.w3.org/1999/xlink"><defs /><polygon fill="none" points="93.18807324102666,-80.90169943749474 -24.36897721746797,80.90169943749474 -214.58028047649867,19.098300562505273 -214.58028047649873,-180.90169943749473 -24.368977217467993,-242.7050983124842" stroke="black" /><polygon fill="none" points="93.18807324102661,-80.90169943749474 210.74512369952123,-242.7050983124842 400.95642695855196,-180.90169943749476 400.956426958552,19.098300562505244 210.74512369952126,80.90169943749474" stroke="black" /><polygon fill="none" points="708.7247806760774,-80.90169943749474 591.1677302175827,80.90169943749474 400.9564269585521,19.098300562505273 400.956426958552,-180.90169943749473 591.1677302175827,-242.7050983124842" stroke="black" /><polygon fill="none" points="708.7247806760773,-80.90169943749474 826.281831134572,-242.7050983124842 1016.4931343936028,-180.90169943749476 1016.4931343936028,19.098300562505244 826.281831134572,80.90169943749474" stroke="black" /><polygon fill="none" points="1324.261488111128,-80.90169943749474 1206.7044376526335,80.90169943749474 1016.4931343936028,19.098300562505273 1016.4931343936028,-180.90169943749473 1206.7044376526335,-242.7050983124842" stroke="black" /><polygon fill="none" points="1324.261488111128,-80.90169943749474 1441.8185385696227,-242.7050983124842 1632.0298418286534,-180.90169943749476 1632.0298418286534,19.098300562505244 1441.8185385696227,80.90169943749474" stroke="black" /><polygon fill="none" points="1939.7981955461787,-80.90169943749474 1822.2411450876841,80.90169943749474 1632.0298418286534,19.098300562505273 1632.0298418286534,-180.90169943749473 1822.2411450876841,-242.7050983124842" stroke="black" /><polygon fill="none" points="1939.7981955461794,-80.90169943749474 2057.355246004674,-242.7050983124842 2247.5665492637045,-180.90169943749476 2247.5665492637045,19.098300562505244 2057.355246004674,80.90169943749474" stroke="black" /><polygon fill="none" points="93.18807324102666,242.7050983124842 -24.36897721746797,404.5084971874737 -214.58028047649867,342.7050983124842 -214.58028047649873,142.7050983124842 -24.368977217467993,80.90169943749473" stroke="black" /><polygon fill="none" points="93.18807324102661,242.7050983124842 210.74512369952123,80.90169943749473 400.95642695855196,142.7050983124842 400.956426958552,342.7050983124842 210.74512369952126,404.5084971874737" stroke="black" /><polygon fill="none" points="708.7247806760774,242.7050983124842 591.1677302175827,404.5084971874737 400.9564269585521,342.7050983124842 400.956426958552,142.7050983124842 591.1677302175827,80.90169943749473" stroke="black" /><polygon fill="none" points="708.7247806760773,242.7050983124842 826.281831134572,80.90169943749473 1016.4931343936028,142.7050983124842 1016.4931343936028,342.7050983124842 826.281831134572,404.5084971874737" stroke="black" /><polygon fill="none" points="1324.261488111128,242.7050983124842 1206.7044376526335,404.5084971874737 1016.4931343936028,342.7050983124842 1016.4931343936028,142.7050983124842 1206.7044376526335,80.90169943749473" stroke="black" /><polygon fill="none" points="1324.261488111128,242.7050983124842 1441.8185385696227,80.90169943749473 1632.0298418286534,142.7050983124842 1632.0298418286534,342.7050983124842 1441.8185385696227,404.5084971874737" stroke="black" /><polygon fill="none" points="1939.7981955461787,242.7050983124842 1822.2411450876841,404.5084971874737 1632.0298418286534,342.7050983124842 1632.0298418286534,142.7050983124842 1822.2411450876841,80.90169943749473" stroke="black" /><polygon fill="none" points="1939.7981955461794,242.7050983124842 2057.355246004674,80.90169943749473 2247.5665492637045,142.7050983124842 2247.5665492637045,342.7050983124842 2057.355246004674,404.5084971874737" stroke="black" /><polygon fill="none" points="93.18807324102666,566.3118960624632 -24.36897721746797,728.1152949374527 -214.58028047649867,666.3118960624632 -214.58028047649873,466.31189606246323 -24.368977217467993,404.5084971874737" stroke="black" /><polygon fill="none" points="93.18807324102661,566.3118960624632 210.74512369952123,404.5084971874737 400.95642695855196,466.31189606246323 400.956426958552,666.3118960624632 210.74512369952126,728.1152949374527" stroke="black" /><polygon fill="none" points="708.7247806760774,566.3118960624632 591.1677302175827,728.1152949374527 400.9564269585521,666.3118960624632 400.956426958552,466.31189606246323 591.1677302175827,404.5084971874737" stroke="black" /><polygon fill="none" points="708.7247806760773,566.3118960624632 826.281831134572,404.5084971874737 1016.4931343936028,466.31189606246323 1016.4931343936028,666.3118960624632 826.281831134572,728.1152949374527" stroke="black" /><polygon fill="none" points="1324.261488111128,566.3118960624632 1206.7044376526335,728.1152949374527 1016.4931343936028,666.3118960624632 1016.4931343936028,466.31189606246323 1206.7044376526335,404.5084971874737" stroke="black" /><polygon fill="none" points="1324.261488111128,566.3118960624632 1441.8185385696227,404.5084971874737 1632.0298418286534,466.31189606246323 1632.0298418286534,666.3118960624632 1441.8185385696227,728.1152949374527" stroke="black" /><polygon fill="none" points="1939.7981955461787,566.3118960624632 1822.2411450876841,728.1152949374527 1632.0298418286534,666.3118960624632 1632.0298418286534,466.31189606246323 1822.2411450876841,404.5084971874737" stroke="black" /><polygon fill="none" points="1939.7981955461794,566.3118960624632 2057.355246004674,404.5084971874737 2247.5665492637045,466.31189606246323 2247.5665492637045,666.3118960624632 2057.355246004674,728.1152949374527" stroke="black" /><polygon fill="none" points="93.18807324102666,889.9186938124421 -24.36897721746797,1051.7220926874315 -214.58028047649867,989.9186938124421 -214.58028047649873,789.9186938124421 -24.368977217467993,728.1152949374526" stroke="black" /><polygon fill="none" points="93.18807324102661,889.9186938124421 210.74512369952123,728.1152949374526 400.95642695855196,789.9186938124421 400.956426958552,989.9186938124421 210.74512369952126,1051.7220926874315" stroke="black" /><polygon fill="none" points="708.7247806760774,889.9186938124421 591.1677302175827,1051.7220926874315 400.9564269585521,989.9186938124421 400.956426958552,789.9186938124421 591.1677302175827,728.1152949374526" stroke="black" /><polygon fill="none" points="708.7247806760773,889.9186938124421 826.281831134572,728.1152949374526 1016.4931343936028,789.9186938124421 1016.4931343936028,989.9186938124421 826.281831134572,1051.7220926874315" stroke="black" /><polygon fill="none" points="1324.261488111128,889.9186938124421 1206.7044376526335,1051.7220926874315 1016.4931343936028,989.9186938124421 1016.4931343936028,789.9186938124421 1206.7044376526335,728.1152949374526" stroke="black" /><polygon fill="none" points="1324.261488111128,889.9186938124421 1441.8185385696227,728.1152949374526 1632.0298418286534,789.9186938124421 1632.0298418286534,989.9186938124421 1441.8185385696227,1051.7220926874315" stroke="black" /><polygon fill="none" points="1939.7981955461787,889.9186938124421 1822.2411450876841,1051.7220926874315 1632.0298418286534,989.9186938124421 1632.0298418286534,789.9186938124421 1822.2411450876841,728.1152949374526" stroke="black" /><polygon fill="none" points="1939.7981955461794,889.9186938124421 2057.355246004674,728.1152949374526 2247.5665492637045,789.9186938124421 2247.5665492637045,989.9186938124421 2057.355246004674,1051.7220926874315" stroke="black" /><polygon fill="none" points="93.18807324102666,1213.5254915624212 -24.36897721746797,1375.3288904374106 -214.58028047649867,1313.5254915624212 -214.58028047649873,1113.5254915624212 -24.368977217467993,1051.7220926874318" stroke="black" /><polygon fill="none" points="93.18807324102661,1213.5254915624212 210.74512369952123,1051.7220926874318 400.95642695855196,1113.5254915624212 400.956426958552,1313.5254915624212 210.74512369952126,1375.3288904374106" stroke="black" /><polygon fill="none" points="708.7247806760774,1213.5254915624212 591.1677302175827,1375.3288904374106 400.9564269585521,1313.5254915624212 400.956426958552,1113.5254915624212 591.1677302175827,1051.7220926874318" stroke="black" /><polygon fill="none" points="708.7247806760773,1213.5254915624212 826.281831134572,1051.7220926874318 1016.4931343936028,1113.5254915624212 1016.4931343936028,1313.5254915624212 826.281831134572,1375.3288904374106" stroke="black" /><polygon fill="none" points="1324.261488111128,1213.5254915624212 1206.7044376526335,1375.3288904374106 1016.4931343936028,1313.5254915624212 1016.4931343936028,1113.5254915624212 1206.7044376526335,1051.7220926874318" stroke="black" /><polygon fill="none" points="1324.261488111128,1213.5254915624212 1441.8185385696227,1051.7220926874318 1632.0298418286534,1113.5254915624212 1632.0298418286534,1313.5254915624212 1441.8185385696227,1375.3288904374106" stroke="black" /><polygon fill="none" points="1939.7981955461787,1213.5254915624212 1822.2411450876841,1375.3288904374106 1632.0298418286534,1313.5254915624212 1632.0298418286534,1113.5254915624212 1822.2411450876841,1051.7220926874318" stroke="black" /><polygon fill="none" points="1939.7981955461794,1213.5254915624212 2057.355246004674,1051.7220926874318 2247.5665492637045,1113.5254915624212 2247.5665492637045,1313.5254915624212 2057.355246004674,1375.3288904374106" stroke="black" /><polygon fill="none" points="93.18807324102666,1537.1322893124002 -24.36897721746797,1698.9356881873896 -214.58028047649867,1637.1322893124002 -214.58028047649873,1437.1322893124002 -24.368977217467993,1375.3288904374108" stroke="black" /><polygon fill="none" points="93.18807324102661,1537.1322893124002 210.74512369952123,1375.3288904374108 400.95642695855196,1437.1322893124002 400.956426958552,1637.1322893124002 210.74512369952126,1698.9356881873896" stroke="black" /><polygon fill="none" points="708.7247806760774,1537.1322893124002 591.1677302175827,1698.9356881873896 400.9564269585521,1637.1322893124002 400.956426958552,1437.1322893124002 591.1677302175827,1375.3288904374108" stroke="black" /><polygon fill="none" points="708.7247806760773,1537.1322893124002 826.281831134572,1375.3288904374108 1016.4931343936028,1437.1322893124002 1016.4931343936028,1637.1322893124002 826.281831134572,1698.9356881873896" stroke="black" /><polygon fill="none" points="1324.261488111128,1537.1322893124002 1206.7044376526335,1698.9356881873896 1016.4931343936028,1637.1322893124002 1016.4931343936028,1437.1322893124002 1206.7044376526335,1375.3288904374108" stroke="black" /><polygon fill="none" points="1324.261488111128,1537.1322893124002 1441.8185385696227,1375.3288904374108 1632.0298418286534,1437.1322893124002 1632.0298418286534,1637.1322893124002 1441.8185385696227,1698.9356881873896" stroke="black" /><polygon fill="none" points="1939.7981955461787,1537.1322893124002 1822.2411450876841,1698.9356881873896 1632.0298418286534,1637.1322893124002 1632.0298418286534,1437.1322893124002 1822.2411450876841,1375.3288904374108" stroke="black" /><polygon fill="none" points="1939.7981955461794,1537.1322893124002 2057.355246004674,1375.3288904374108 2247.5665492637045,1437.1322893124002 2247.5665492637045,1637.1322893124002 2057.355246004674,1698.9356881873896" stroke="black" /><polygon fill="none" points="93.18807324102666,1860.739087062379 -24.36897721746797,2022.5424859373684 -214.58028047649867,1960.739087062379 -214.58028047649873,1760.739087062379 -24.368977217467993,1698.9356881873896" stroke="black" /><polygon fill="none" points="93.18807324102661,1860.739087062379 210.74512369952123,1698.9356881873896 400.95642695855196,1760.739087062379 400.956426958552,1960.739087062379 210.74512369952126,2022.5424859373684" stroke="black" /><polygon fill="none" points="708.7247806760774,1860.739087062379 591.1677302175827,2022.5424859373684 400.9564269585521,1960.739087062379 400.956426958552,1760.739087062379 591.1677302175827,1698.9356881873896" stroke="black" /><polygon fill="none" points="708.7247806760773,1860.739087062379 826.281831134572,1698.9356881873896 1016.4931343936028,1760.739087062379 1016.4931343936028,1960.739087062379 826.281831134572,2022.5424859373684" stroke="black" /><polygon fill="none" points="1324.261488111128,1860.739087062379 1206.7044376526335,2022.5424859373684 1016.4931343936028,1960.739087062379 1016.4931343936028,1760.739087062379 1206.7044376526335,1698.9356881873896" stroke="black" /><polygon fill="none" points="1324.261488111128,1860.739087062379 1441.8185385696227,1698.9356881873896 1632.0298418286534,1760.739087062379 1632.0298418286534,1960.739087062379 1441.8185385696227,2022.5424859373684" stroke="black" /><polygon fill="none" points="1939.7981955461787,1860.739087062379 1822.2411450876841,2022.5424859373684 1632.0298418286534,1960.739087062379 1632.0298418286534,1760.739087062379 1822.2411450876841,1698.9356881873896" stroke="black" /><polygon fill="none" points="1939.7981955461794,1860.739087062379 2057.355246004674,1698.9356881873896 2247.5665492637045,1760.739087062379 2247.5665492637045,1960.739087062379 2057.355246004674,2022.5424859373684" stroke="black" /><polygon fill="none" points="93.18807324102666,2184.3458848123582 -24.36897721746797,2346.1492836873476 -214.58028047649867,2284.3458848123582 -214.58028047649873,2084.3458848123582 -24.368977217467993,2022.5424859373688" stroke="black" /><polygon fill="none" points="93.18807324102661,2184.3458848123582 210.74512369952123,2022.5424859373688 400.95642695855196,2084.3458848123582 400.956426958552,2284.3458848123582 210.74512369952126,2346.1492836873476" stroke="black" /><polygon fill="none" points="708.7247806760774,2184.3458848123582 591.1677302175827,2346.1492836873476 400.9564269585521,2284.3458848123582 400.956426958552,2084.3458848123582 591.1677302175827,2022.5424859373688" stroke="black" /><polygon fill="none" points="708.7247806760773,2184.3458848123582 826.281831134572,2022.5424859373688 1016.4931343936028,2084.3458848123582 1016.4931343936028,2284.3458848123582 826.281831134572,2346.1492836873476" stroke="black" /><polygon fill="none" points="1324.261488111128,2184.3458848123582 1206.7044376526335,2346.1492836873476 1016.4931343936028,2284.3458848123582 1016.4931343936028,2084.3458848123582 1206.7044376526335,2022.5424859373688" stroke="black" /><polygon fill="none" points="1324.261488111128,2184.3458848123582 1441.8185385696227,2022.5424859373688 1632.0298418286534,2084.3458848123582 1632.0298418286534,2284.3458848123582 1441.8185385696227,2346.1492836873476" stroke="black" /><polygon fill="none" points="1939.7981955461787,2184.3458848123582 1822.2411450876841,2346.1492836873476 1632.0298418286534,2284.3458848123582 1632.0298418286534,2084.3458848123582 1822.2411450876841,2022.5424859373688" stroke="black" /><polygon fill="none" points="1939.7981955461794,2184.3458848123582 2057.355246004674,2022.5424859373688 2247.5665492637045,2084.3458848123582 2247.5665492637045,2284.3458848123582 2057.355246004674,2346.1492836873476" stroke="black" /><polygon fill="none" points="93.18807324102666,2507.952682562337 -24.36897721746797,2669.7560814373264 -214.58028047649867,2607.952682562337 -214.58028047649873,2407.952682562337 -24.368977217467993,2346.1492836873476" stroke="black" /><polygon fill="none" points="93.18807324102661,2507.952682562337 210.74512369952123,2346.1492836873476 400.95642695855196,2407.952682562337 400.956426958552,2607.952682562337 210.74512369952126,2669.7560814373264" stroke="black" /><polygon fill="none" points="708.7247806760774,2507.952682562337 591.1677302175827,2669.7560814373264 400.9564269585521,2607.952682562337 400.956426958552,2407.952682562337 591.1677302175827,2346.1492836873476" stroke="black" /><polygon fill="none" points="708.7247806760773,2507.952682562337 826.281831134572,2346.1492836873476 1016.4931343936028,2407.952682562337 1016.4931343936028,2607.952682562337 826.281831134572,2669.7560814373264" stroke="black" /><polygon fill="none" points="1324.261488111128,2507.952682562337 1206.7044376526335,2669.7560814373264 1016.4931343936028,2607.952682562337 1016.4931343936028,2407.952682562337 1206.7044376526335,2346.1492836873476" stroke="black" /><polygon fill="none" points="1324.261488111128,2507.952682562337 1441.8185385696227,2346.1492836873476 1632.0298418286534,2407.952682562337 1632.0298418286534,2607.952682562337 1441.8185385696227,2669.7560814373264" stroke="black" /><polygon fill="none" points="1939.7981955461787,2507.952682562337 1822.2411450876841,2669.7560814373264 1632.0298418286534,2607.952682562337 1632.0298418286534,2407.952682562337 1822.2411450876841,2346.1492836873476" stroke="black" /><polygon fill="none" points="1939.7981955461794,2507.952682562337 2057.355246004674,2346.1492836873476 2247.5665492637045,2407.952682562337 2247.5665492637045,2607.952682562337 2057.355246004674,2669.7560814373264" stroke="black" /><polygon fill="none" points="93.18807324102666,2831.559480312316 -24.36897721746797,2993.362879187305 -214.58028047649867,2931.559480312316 -214.58028047649873,2731.559480312316 -24.368977217467993,2669.7560814373264" stroke="black" /><polygon fill="none" points="93.18807324102661,2831.559480312316 210.74512369952123,2669.7560814373264 400.95642695855196,2731.559480312316 400.956426958552,2931.559480312316 210.74512369952126,2993.362879187305" stroke="black" /><polygon fill="none" points="708.7247806760774,2831.559480312316 591.1677302175827,2993.362879187305 400.9564269585521,2931.559480312316 400.956426958552,2731.559480312316 591.1677302175827,2669.7560814373264" stroke="black" /><polygon fill="none" points="708.7247806760773,2831.559480312316 826.281831134572,2669.7560814373264 1016.4931343936028,2731.559480312316 1016.4931343936028,2931.559480312316 826.281831134572,2993.362879187305" stroke="black" /><polygon fill="none" points="1324.261488111128,2831.559480312316 1206.7044376526335,2993.362879187305 1016.4931343936028,2931.559480312316 1016.4931343936028,2731.559480312316 1206.7044376526335,2669.7560814373264" stroke="black" /><polygon fill="none" points="1324.261488111128,2831.559480312316 1441.8185385696227,2669.7560814373264 1632.0298418286534,2731.559480312316 1632.0298418286534,2931.559480312316 1441.8185385696227,2993.362879187305" stroke="black" /><polygon fill="none" points="1939.7981955461787,2831.559480312316 1822.2411450876841,2993.362879187305 1632.0298418286534,2931.559480312316 1632.0298418286534,2731.559480312316 1822.2411450876841,2669.7560814373264" stroke="black" /><polygon fill="none" points="1939.7981955461794,2831.559480312316 2057.355246004674,2669.7560814373264 2247.5665492637045,2731.559480312316 2247.5665492637045,2931.559480312316 2057.355246004674,2993.362879187305" stroke="black" /><polygon fill="none" points="93.18807324102666,3155.166278062295 -24.36897721746797,3316.9696769372845 -214.58028047649867,3255.166278062295 -214.58028047649873,3055.166278062295 -24.368977217467993,2993.3628791873057" stroke="black" /><polygon fill="none" points="93.18807324102661,3155.166278062295 210.74512369952123,2993.3628791873057 400.95642695855196,3055.166278062295 400.956426958552,3255.166278062295 210.74512369952126,3316.9696769372845" stroke="black" /><polygon fill="none" points="708.7247806760774,3155.166278062295 591.1677302175827,3316.9696769372845 400.9564269585521,3255.166278062295 400.956426958552,3055.166278062295 591.1677302175827,2993.3628791873057" stroke="black" /><polygon fill="none" points="708.7247806760773,3155.166278062295 826.281831134572,2993.3628791873057 1016.4931343936028,3055.166278062295 1016.4931343936028,3255.166278062295 826.281831134572,3316.9696769372845" stroke="black" /><polygon fill="none" points="1324.261488111128,3155.166278062295 1206.7044376526335,3316.9696769372845 1016.4931343936028,3255.166278062295 1016.4931343936028,3055.166278062295 1206.7044376526335,2993.3628791873057" stroke="black" /><polygon fill="none" points="1324.261488111128,3155.166278062295 1441.8185385696227,2993.3628791873057 1632.0298418286534,3055.166278062295 1632.0298418286534,3255.166278062295 1441.8185385696227,3316.9696769372845" stroke="black" /><polygon fill="none" points="1939.7981955461787,3155.166278062295 1822.2411450876841,3316.9696769372845 1632.0298418286534,3255.166278062295 1632.0298418286534,3055.166278062295 1822.2411450876841,2993.3628791873057" stroke="black" /><polygon fill="none" points="1939.7981955461794,3155.166278062295 2057.355246004674,2993.3628791873057 2247.5665492637045,3055.166278062295 2247.5665492637045,3255.166278062295 2057.355246004674,3316.9696769372845" stroke="black" /></svg>