<?xml version="1.0" encoding="utf-8" ?>
<svg baseProfile="full" height="2970" version="1.1" width="2100" xmlns="http://www.w3.org/2000/svg" xmlns:ev="http://www.w3.org/2001/xml-events" xmlns:xlink="http://www.w3.org/1999/xlink"><defs /><polygon fill="none" points="170.130161670408,0.0 52.57311121191337,161.80339887498948 -137.63819204711734,100.00000000000001 -137.63819204711737,-99.99999999999999 52.57311121191335,-161.80339887498948" stroke="black" /><polygon fill="none" points="170.13016167040794,0.0 287.68721212890256,-161.80339887498948 477.8985153879333,-100.00000000000001 477.89851538793334,99.99999999999999 287.6872121289026,161.80339887498948" stroke="black" /><polygon fill="none" points="785.6668691054588,0.0 668.1098186469641,161.80339887498948 477.8985153879334,100.00000000000001 477.89851538793334,-99.99999999999999 668.1098186469641,-161.80339887498948" stroke="black" /><polygon fill="none" points="785.6668691054587,0.0 903.2239195639534,-161.80339887498948 1093.435222822984,-100.00000000000001 1093.435222822984,99.99999999999999 903.2239195639534,161.80339887498948" stroke="black" /><polygon fill="none" points="1401.2035765405094,0.0 1283.6465260820148,161.80339887498948 1093.435222822984,100.00000000000001 1093.435222822984,-99.99999999999999 1283.6465260820148,-161.80339887498948" stroke="black" /><polygon fill="none" points="1401.2035765405094,0.0 1518.760626999004,-161.80339887498948 1708.9719302580347,-100.00000000000001 1708.9719302580347,99.99999999999999 1518.760626999004,161.80339887498948" stroke="black" /><polygon fill="none" points="2016.7402839755603,0.0 1899.1832335170657,161.80339887498948 1708.971930258035,100.00000000000001 1708.971930258035,-99.99999999999999 1899.1832335170657,-161.80339887498948" stroke="black" /><polygon fill="none" points="2016.7402839755607,0.0 2134.2973344340553,-161.80339887498948 2324.508637693086,-100.00000000000001 2324.508637693086,99.99999999999999 2134.2973344340553,161.80339887498948" stroke="black" /><polygon fill="none" points="170.130161670408,323.60679774997897 52.57311121191337,485.4101966249684 -137.63819204711734,423.60679774997897 -137.63819204711737,223.60679774997897 52.57311121191335,161.80339887498948" stroke="black" /><polygon fill="none" points="170.13016167040794,323.60679774997897 287.68721212890256,161.80339887498948 477.8985153879333,223.60679774997897 477.89851538793334,423.60679774997897 287.6872121289026,485.4101966249684" stroke="black" /><polygon fill="none" points="785.6668691054588,323.60679774997897 668.1098186469641,485.4101966249684 477.8985153879334,423.60679774997897 477.89851538793334,223.60679774997897 668.1098186469641,161.80339887498948" stroke="black" /><polygon fill="none" points="785.6668691054587,323.60679774997897 903.2239195639534,161.80339887498948 1093.435222822984,223.60679774997897 1093.435222822984,423.60679774997897 903.2239195639534,485.4101966249684" stroke="black" /><polygon fill="none" points="1401.2035765405094,323.60679774997897 1283.6465260820148,485.4101966249684 1093.435222822984,423.60679774997897 1093.435222822984,223.60679774997897 1283.6465260820148,161.80339887498948" stroke="black" /><polygon fill="none" points="1401.2035765405094,323.60679774997897 1518.760626999004,161.80339887498948 1708.9719302580347,223.60679774997897 1708.9719302580347,423.60679774997897 1518.760626999004,485.4101966249684" stroke="black" /><polygon fill="none" points="2016.7402839755603,323.60679774997897 1899.1832335170657,485.4101966249684 1708.971930258035,423.60679774997897 1708.971930258035,223.60679774997897 1899.1832335170657,161.80339887498948" stroke="black" /><polygon fill="none" points="2016.7402839755607,323.60679774997897 2134.2973344340553,161.80339887498948 2324.508637693086,223.60679774997897 2324.508637693086,423.60679774997897 2134.2973344340553,485.4101966249684" stroke="black" /><polygon fill="none" points="170.130161670408,647.2135954999579 52.57311121191337,809.0169943749474 -137.63819204711734,747.2135954999579 -137.63819204711737,547.2135954999579 52.57311121191335,485.4101966249684" stroke="black" /><polygon fill="none" points="170.13016167040794,647.2135954999579 287.68721212890256,485.4101966249684 477.8985153879333,547.2135954999579 477.89851538793334,747.2135954999579 287.6872121289026,809.0169943749474" stroke="black" /><polygon fill="none" points="785.6668691054588,647.2135954999579 668.1098186469641,809.0169943749474 477.8985153879334,747.2135954999579 477.89851538793334,547.2135954999579 668.1098186469641,485.4101966249684" stroke="black" /><polygon fill="none" points="785.6668691054587,647.2135954999579 903.2239195639534,485.4101966249684 1093.435222822984,547.2135954999579 1093.435222822984,747.2135954999579 903.2239195639534,809.0169943749474" stroke="black" /><polygon fill="none" points="1401.2035765405094,647.2135954999579 1283.6465260820148,809.0169943749474 1093.435222822984,747.2135954999579 1093.435222822984,547.2135954999579 1283.6465260820148,485.4101966249684" stroke="black" /><polygon fill="none" points="1401.2035765405094,647.2135954999579 1518.760626999004,485.4101966249684 1708.9719302580347,547.2135954999579 1708.9719302580347,747.2135954999579 1518.760626999004,809.0169943749474" stroke="black" /><polygon fill="none" points="2016.7402839755603,647.2135954999579 1899.1832335170657,809.0169943749474 1708.971930258035,747.2135954999579 1708.971930258035,547.2135954999579 1899.1832335170657,485.4101966249684" stroke="black" /><polygon fill="none" points="2016.7402839755607,647.2135954999579 2134.2973344340553,485.4101966249684 2324.508637693086,547.2135954999579 2324.508637693086,747.2135954999579 2134.2973344340553,809.0169943749474" stroke="black" /><polygon fill="none" points="170.130161670408,970.8203932499368 52.57311121191337,1132.6237921249262 -137.63819204711734,1070.8203932499368 -137.63819204711737,870.8203932499368 52.57311121191335,809.0169943749473" stroke="black" /><polygon fill="none" points="170.13016167040794,970.8203932499368 287.68721212890256,809.0169943749473 477.8985153879333,870.8203932499368 477.89851538793334,1070.8203932499368 287.6872121289026,1132.6237921249262" stroke="black" /><polygon fill="none" points="785.6668691054588,970.8203932499368 668.1098186469641,1132.6237921249262 477.8985153879334,1070.8203932499368 477.89851538793334,870.8203932499368 668.1098186469641,809.0169943749473" stroke="black" /><polygon fill="none" points="785.6668691054587,970.8203932499368 903.2239195639534,809.0169943749473 1093.435222822984,870.8203932499368 1093.435222822984,1070.8203932499368 903.2239195639534,1132.6237921249262" stroke="black" /><polygon fill="none" points="1401.2035765405094,970.8203932499368 1283.6465260820148,1132.6237921249262 1093.435222822984,1070.8203932499368 1093.435222822984,870.8203932499368 1283.6465260820148,809.0169943749473" stroke="black" /><polygon fill="none" points="1401.2035765405094,970.8203932499368 1518.760626999004,809.0169943749473 1708.9719302580347,870.8203932499368 1708.9719302580347,1070.8203932499368 1518.760626999004,1132.6237921249262" stroke="black" /><polygon fill="none" points="2016.7402839755603,970.8203932499368 1899.1832335170657,1132.6237921249262 1708.971930258035,1070.8203932499368 1708.971930258035,870.8203932499368 1899.1832335170657,809.0169943749473" stroke="black" /><polygon fill="none" points="2016.7402839755607,970.8203932499368 2134.2973344340553,809.0169943749473 2324.508637693086,870.8203932499368 2324.508637693086,1070.8203932499368 2134.2973344340553,1132.6237921249262" stroke="black" /><polygon fill="none" points="170.130161670408,1294.4271909999159 52.57311121191337,1456.2305898749053 -137.63819204711734,1394.4271909999159 -137.63819204711737,1194.4271909999159 52.57311121191335,1132.6237921249265" stroke="black" /><polygon fill="none" points="170.13016167040794,1294.4271909999159 287.68721212890256,1132.6237921249265 477.8985153879333,1194.4271909999159 477.89851538793334,1394.4271909999159 287.6872121289026,1456.2305898749053" stroke="black" /><polygon fill="none" points="785.6668691054588,1294.4271909999159 668.1098186469641,1456.2305898749053 477.8985153879334,1394.4271909999159 477.89851538793334,1194.4271909999159 668.1098186469641,1132.6237921249265" stroke="black" /><polygon fill="none" points="785.6668691054587,1294.4271909999159 903.2239195639534,1132.6237921249265 1093.435222822984,1194.4271909999159 1093.435222822984,1394.4271909999159 903.2239195639534,1456.2305898749053" stroke="black" /><polygon fill="none" points="1401.2035765405094,1294.4271909999159 1283.6465260820148,1456.2305898749053 1093.435222822984,1394.4271909999159 1093.435222822984,1194.4271909999159 1283.6465260820148,1132.6237921249265" stroke="black" /><polygon fill="none" points="1401.2035765405094,1294.4271909999159 1518.760626999004,1132.6237921249265 1708.9719302580347,1194.4271909999159 1708.9719302580347,1394.4271909999159 1518.760626999004,1456.2305898749053" stroke="black" /><polygon fill="none" points="2016.7402839755603,1294.4271909999159 1899.1832335170657,1456.2305898749053 1708.971930258035,1394.4271909999159 1708.971930258035,1194.4271909999159 1899.1832335170657,1132.6237921249265" stroke="black" /><polygon fill="none" points="2016.7402839755607,1294.4271909999159 2134.2973344340553,1132.6237921249265 2324.508637693086,1194.4271909999159 2324.508637693086,1394.4271909999159 2134.2973344340553,1456.2305898749053" stroke="black" /><polygon fill="none" points="170.130161670408,1618.033988749895 52.57311121191337,1779.8373876248843 -137.63819204711734,1718.033988749895 -137.63819204711737,1518.033988749895 52.57311121191335,1456.2305898749055" stroke="black" /><polygon fill="none" points="170.13016167040794,1618.033988749895 287.68721212890256,1456.2305898749055 477.8985153879333,1518.033988749895 477.89851538793334,1718.033988749895 287.6872121289026,1779.8373876248843" stroke="black" /><polygon fill="none" points="785.6668691054588,1618.033988749895 668.1098186469641,1779.8373876248843 477.8985153879334,1718.033988749895 477.89851538793334,1518.033988749895 668.1098186469641,1456.2305898749055" stroke="black" /><polygon fill="none" points="785.6668691054587,1618.033988749895 903.2239195639534,1456.2305898749055 1093.435222822984,1518.033988749895 1093.435222822984,1718.033988749895 903.2239195639534,1779.8373876248843" stroke="black" /><polygon fill="none" points="1401.2035765405094,1618.033988749895 1283.6465260820148,1779.8373876248843 1093.435222822984,1718.033988749895 1093.435222822984,1518.033988749895 1283.6465260820148,1456.2305898749055" stroke="black" /><polygon fill="none" points="1401.2035765405094,1618.033988749895 1518.760626999004,1456.2305898749055 1708.9719302580347,1518.033988749895 1708.9719302580347,1718.033988749895 1518.760626999004,1779.8373876248843" stroke="black" /><polygon fill="none" points="2016.7402839755603,1618.033988749895 1899.1832335170657,1779.8373876248843 1708.971930258035,1718.033988749895 1708.971930258035,1518.033988749895 1899.1832335170657,1456.2305898749055" stroke="black" /><polygon fill="none" points="2016.7402839755607,1618.033988749895 2134.2973344340553,1456.2305898749055 2324.508637693086,1518.033988749895 2324.508637693086,1718.033988749895 2134.2973344340553,1779.8373876248843" stroke="black" /><polygon fill="none" points="170.130161670408,1941.6407864998737 52.57311121191337,2103.444185374863 -137.63819204711734,2041.6407864998737 -137.63819204711737,1841.6407864998737 52.57311121191335,1779.8373876248843" stroke="black" /><polygon fill="none" points="170.13016167040794,1941.6407864998737 287.68721212890256,1779.8373876248843 477.8985153879333,1841.6407864998737 477.89851538793334,2041.6407864998737 287.6872121289026,2103.444185374863" stroke="black" /><polygon fill="none" points="785.6668691054588,1941.6407864998737 668.1098186469641,2103.444185374863 477.8985153879334,2041.6407864998737 477.89851538793334,1841.6407864998737 668.1098186469641,1779.8373876248843" stroke="black" /><polygon fill="none" points="785.6668691054587,1941.6407864998737 903.2239195639534,1779.8373876248843 1093.435222822984,1841.6407864998737 1093.435222822984,2041.6407864998737 903.2239195639534,2103.444185374863" stroke="black" /><polygon fill="none" points="1401.2035765405094,1941.6407864998737 1283.6465260820148,2103.444185374863 1093.435222822984,2041.6407864998737 1093.435222822984,1841.6407864998737 1283.6465260820148,1779.8373876248843" stroke="black" /><polygon fill="none" points="1401.2035765405094,1941.6407864998737 1518.760626999004,1779.8373876248843 1708.9719302580347,1841.6407864998737 1708.9719302580347,2041.6407864998737 1518.760626999004,2103.444185374863" stroke="black" /><polygon fill="none" points="2016.7402839755603,1941.6407864998737 1899.1832335170657,2103.444185374863 1708.971930258035,2041.6407864998737 1708.971930258035,1841.6407864998737 1899.1832335170657,1779.8373876248843" stroke="black" /><polygon fill="none" points="2016.7402839755607,1941.6407864998737 2134.2973344340553,1779.8373876248843 2324.508637693086,1841.6407864998737 2324.508637693086,2041.6407864998737 2134.2973344340553,2103.444185374863" stroke="black" /><polygon fill="none" points="170.130161670408,2265.247584249853 52.57311121191337,2427.0509831248423 -137.63819204711734,2365.247584249853 -137.63819204711737,2165.247584249853 52.57311121191335,2103.4441853748635" stroke="black" /><polygon fill="none" points="170.13016167040794,2265.247584249853 287.68721212890256,2103.4441853748635 477.8985153879333,2165.247584249853 477.89851538793334,2365.247584249853 287.6872121289026,2427.0509831248423" stroke="black" /><polygon fill="none" points="785.6668691054588,2265.247584249853 668.1098186469641,2427.0509831248423 477.8985153879334,2365.247584249853 477.89851538793334,2165.247584249853 668.1098186469641,2103.4441853748635" stroke="black" /><polygon fill="none" points="785.6668691054587,2265.247584249853 903.2239195639534,2103.4441853748635 1093.435222822984,2165.247584249853 1093.435222822984,2365.247584249853 903.2239195639534,2427.0509831248423" stroke="black" /><polygon fill="none" points="1401.2035765405094,2265.247584249853 1283.6465260820148,2427.0509831248423 1093.435222822984,2365.247584249853 1093.435222822984,2165.247584249853 1283.6465260820148,2103.4441853748635" stroke="black" /><polygon fill="none" points="1401.2035765405094,2265.247584249853 1518.760626999004,2103.4441853748635 1708.9719302580347,2165.247584249853 1708.9719302580347,2365.247584249853 1518.760626999004,2427.0509831248423" stroke="black" /><polygon fill="none" points="2016.7402839755603,2265.247584249853 1899.1832335170657,2427.0509831248423 1708.971930258035,2365.247584249853 1708.971930258035,2165.247584249853 1899.1832335170657,2103.4441853748635" stroke="black" /><polygon fill="none" points="2016.7402839755607,2265.247584249853 2134.2973344340553,2103.4441853748635 2324.508637693086,2165.247584249853 2324.508637693086,2365.247584249853 2134.2973344340553,2427.0509831248423" stroke="black" /><polygon fill="none" points="170.130161670408,2588.8543819998317 52.57311121191337,2750.657780874821 -137.63819204711734,2688.8543819998317 -137.63819204711737,2488.8543819998317 52.57311121191335,2427.0509831248423" stroke="black" /><polygon fill="none" points="170.13016167040794,2588.8543819998317 287.68721212890256,2427.0509831248423 477.8985153879333,2488.8543819998317 477.89851538793334,2688.8543819998317 287.6872121289026,2750.657780874821" stroke="black" /><polygon fill="none" points="785.6668691054588,2588.8543819998317 668.1098186469641,2750.657780874821 477.8985153879334,2688.8543819998317 477.89851538793334,2488.8543819998317 668.1098186469641,2427.0509831248423" stroke="black" /><polygon fill="none" points="785.6668691054587,2588.8543819998317 903.2239195639534,2427.0509831248423 1093.435222822984,2488.8543819998317 1093.435222822984,2688.8543819998317 903.2239195639534,2750.657780874821" stroke="black" /><polygon fill="none" points="1401.2035765405094,2588.8543819998317 1283.6465260820148,2750.657780874821 1093.435222822984,2688.8543819998317 1093.435222822984,2488.8543819998317 1283.6465260820148,2427.0509831248423" stroke="black" /><polygon fill="none" points="1401.2035765405094,2588.8543819998317 1518.760626999004,2427.0509831248423 1708.9719302580347,2488.8543819998317 1708.9719302580347,2688.8543819998317 1518.760626999004,2750.657780874821" stroke="black" /><polygon fill="none" points="2016.7402839755603,2588.8543819998317 1899.1832335170657,2750.657780874821 1708.971930258035,2688.8543819998317 1708.971930258035,2488.8543819998317 1899.1832335170657,2427.0509831248423" stroke="black" /><polygon fill="none" points="2016.7402839755607,2588.8543819998317 2134.2973344340553,2427.0509831248423 2324.508637693086,2488.8543819998317 2324.508637693086,2688.8543819998317 2134.2973344340553,2750.657780874821" stroke="black" /><polygon fill="none" points="170.130161670408,2912.4611797498105 52.57311121191337,3074.2645786248 -137.63819204711734,3012.4611797498105 -137.63819204711737,2812.4611797498105 52.57311121191335,2750.657780874821" stroke="black" /><polygon fill="none" points="170.13016167040794,2912.4611797498105 287.68721212890256,2750.657780874821 477.8985153879333,2812.4611797498105 477.89851538793334,3012.4611797498105 287.6872121289026,3074.2645786248" stroke="black" /><polygon fill="none" points="785.6668691054588,2912.4611797498105 668.1098186469641,3074.2645786248 477.8985153879334,3012.4611797498105 477.89851538793334,2812.4611797498105 668.1098186469641,2750.657780874821" stroke="black" /><polygon fill="none" points="785.6668691054587,2912.4611797498105 903.2239195639534,2750.657780874821 1093.435222822984,2812.4611797498105 1093.435222822984,3012.4611797498105 903.2239195639534,3074.2645786248" stroke="black" /><polygon fill="none" points="1401.2035765405094,2912.4611797498105 1283.6465260820148,3074.2645786248 1093.435222822984,3012.4611797498105 1093.435222822984,2812.4611797498105 1283.6465260820148,2750.657780874821" stroke="black" /><polygon fill="none" points="1401.2035765405094,2912.4611797498105 1518.760626999004,2750.657780874821 1708.9719302580347,2812.4611797498105 1708.9719302580347,3012.4611797498105 1518.760626999004,3074.2645786248" stroke="black" /><polygon fill="none" points="2016.7402839755603,2912.4611797498105 1899.1832335170657,3074.2645786248 1708.971930258035,3012.4611797498105 1708.971930258035,2812.4611797498105 1899.1832335170657,2750.657780874821" stroke="black" /><polygon fill="none" points="2016.7402839755607,2912.4611797498105 2134.2973344340553,2750.657780874821 2324.508637693086,2812.4611797498105 2324.508637693086,3012.4611797498105 2134.2973344340553,3074.2645786248" stroke="black" /><polygon fill="none" points="170.130161670408,3236.06797749979 52.57311121191337,3397.871376374779 -137.63819204711734,3336.06797749979 -137.63819204711737,3136.06797749979 52.57311121191335,3074.2645786248004" stroke="black" /><polygon fill="none" points="170.13016167040794,3236.06797749979 287.68721212890256,3074.2645786248004 477.8985153879333,3136.06797749979 477.89851538793334,3336.06797749979 287.6872121289026,3397.871376374779" stroke="black" /><polygon fill="none" points="785.6668691054588,3236.06797749979 668.1098186469641,3397.871376374779 477.8985153879334,3336.06797749979 477.89851538793334,3136.06797749979 668.1098186469641,3074.2645786248004" stroke="black" /><polygon fill="none" points="785.6668691054587,3236.06797749979 903.2239195639534,3074.2645786248004 1093.435222822984,3136.06797749979 1093.435222822984,3336.06797749979 903.2239195639534,3397.871376374779" stroke="black" /><polygon fill="none" points="1401.2035765405094,3236.06797749979 1283.6465260820148,3397.871376374779 1093.435222822984,3336.06797749979 1093.435222822984,3136.06797749979 1283.6465260820148,3074.2645786248004" stroke="black" /><polygon fill="none" points="1401.2035765405094,3236.06797749979 1518.760626999004,3074.2645786248004 1708.9719302580347,3136.06797749979 1708.9719302580347,3336.06797749979 1518.760626999004,3397.871376374779" stroke="black" /><polygon fill="none" points="2016.7402839755603,3236.06797749979 1899.1832335170657,3397.871376374779 1708.971930258035,3336.06797749979 1708.971930258035,3136.06797749979 1899.1832335170657,3074.2645786248004" stroke="black" /><polygon fill="none" points="2016.7402839755607,3236.06797749979 2134.2973344340553,3074.2645786248004 2324.508637693086,3136.06797749979 2324.508637693086,3336.06797749979 2134.2973344340553,3397.871376374779" stroke="black" /></svg>