<?xml version="1.0" encoding="utf-8" ?>
<svg baseProfile="full" height="2970" version="1.1" width="2100" xmlns="http://www.w3.org/2000/svg" xmlns:ev="http://www.w3.org/2001/xml-events" xmlns:xlink="http://www.w3.org/1999/xlink"><defs /><polygon fill="none" points="100.00000000000001,100.00000000000001 -100.00000000000001,100.00000000000001 -100.00000000000001,-100.00000000000001" stroke="black" /><polygon fill="none" points="100.00000000000001,100.00000000000001 100.00000000000001,-100.00000000000001 -100.00000000000001,-100.00000000000001" stroke="black" /><polygon fill="none" points="300.0,100.00000000000001 99.99999999999999,100.00000000000001 99.99999999999999,-100.00000000000001" stroke="black" /><polygon fill="none" points="300.0,100.00000000000001 300.0,-100.00000000000001 99.99999999999999,-100.00000000000001" stroke="black" /><polygon fill="none" points="500.0,100.00000000000001 300.0,100.00000000000001 300.0,-100.00000000000001" stroke="black" /><polygon fill="none" points="500.0,100.00000000000001 500.0,-100.00000000000001 300.0,-100.00000000000001" stroke="black" /><polygon fill="none" points="700.0,100.00000000000001 500.0,100.00000000000001 500.0,-100.00000000000001" stroke="black" /><polygon fill="none" points="700.0,100.00000000000001 700.0,-100.00000000000001 500.0,-100.00000000000001" stroke="black" /><polygon fill="none" points="900.0,100.00000000000001 700.0,100.00000000000001 700.0,-100.00000000000001" stroke="black" /><polygon fill="none" points="900.0,100.00000000000001 900.0,-100.00000000000001 700.0,-100.00000000000001" stroke="black" /><polygon fill="none" points="1100.0,100.00000000000001 900.0,100.00000000000001 900.0,-100.00000000000001" stroke="black" /><polygon fill="none" points="1100.0,100.00000000000001 1100.0,-100.00000000000001 900.0,-100.00000000000001" stroke="black" /><polygon fill="none" points="1300.0,100.00000000000001 1100.0,100.00000000000001 1100.0,-100.00000000000001" stroke="black" /><polygon fill="none" points="1300.0,100.00000000000001 1300.0,-100.00000000000001 1100.0,-100.00000000000001" stroke="black" /><polygon fill="none" points="1500.0,100.00000000000001 1300.0,100.00000000000001 1300.0,-100.00000000000001" stroke="black" /><polygon fill="none" points="1500.0,100.00000000000001 1500.0,-100.00000000000001 1300.0,-100.00000000000001" stroke="black" /><polygon fill="none" points="1700.0,100.00000000000001 1500.0,100.00000000000001 1500.0,-100.00000000000001" stroke="black" /><polygon fill="none" points="1700.0,100.00000000000001 1700.0,-100.00000000000001 1500.0,-100.00000000000001" stroke="black" /><polygon fill="none" points="1900.0,100.00000000000001 1700.0,100.00000000000001 1700.0,-100.00000000000001" stroke="black" /><polygon fill="none" points="1900.0,100.00000000000001 1900.0,-100.00000000000001 1700.0,-100.00000000000001" stroke="black" /><polygon fill="none" points="2100.0,100.00000000000001 1900.0,100.00000000000001 1900.0,-100.00000000000001" stroke="black" /><polygon fill="none" points="2100.0,100.00000000000001 2100.0,-100.00000000000001 1900.0,-100.00000000000001" stroke="black" /><polygon fill="none" points="2300.0,100.00000000000001 2100.0,100.00000000000001 2100.0,-100.00000000000001" stroke="black" /><polygon fill="none" points="2300.0,100.00000000000001 2300.0,-100.00000000000001 2100.0,-100.00000000000001" stroke="black" /><polygon fill="none" points="100.00000000000001,300.0 -100.00000000000001,300.0 -100.00000000000001,99.99999999999999" stroke="black" /><polygon fill="none" points="100.00000000000001,300.0 100.00000000000001,99.99999999999999 -100.00000000000001,99.99999999999999" stroke="black" /><polygon fill="none" points="300.0,300.0 99.99999999999999,300.0 99.99999999999999,99.99999999999999" stroke="black" /><polygon fill="none" points="300.0,300.0 300.0,99.99999999999999 99.99999999999999,99.99999999999999" stroke="black" /><polygon fill="none" points="500.0,300.0 300.0,300.0 300.0,99.99999999999999" stroke="black" /><polygon fill="none" points="500.0,300.0 500.0,99.99999999999999 300.0,99.99999999999999" stroke="black" /><polygon fill="none" points="700.0,300.0 500.0,300.0 500.0,99.99999999999999" stroke="black" /><polygon fill="none" points="700.0,300.0 700.0,99.99999999999999 500.0,99.99999999999999" stroke="black" /><polygon fill="none" points="900.0,300.0 700.0,300.0 700.0,99.99999999999999" stroke="black" /><polygon fill="none" points="900.0,300.0 900.0,99.99999999999999 700.0,99.99999999999999" stroke="black" /><polygon fill="none" points="1100.0,300.0 900.0,300.0 900.0,99.99999999999999" stroke="black" /><polygon fill="none" points="1100.0,300.0 1100.0,99.99999999999999 900.0,99.99999999999999" stroke="black" /><polygon fill="none" points="1300.0,300.0 1100.0,300.0 1100.0,99.99999999999999" stroke="black" /><polygon fill="none" points="1300.0,300.0 1300.0,99.99999999999999 1100.0,99.99999999999999" stroke="black" /><polygon fill="none" points="1500.0,300.0 1300.0,300.0 1300.0,99.99999999999999" stroke="black" /><polygon fill="none" points="1500.0,300.0 1500.0,99.99999999999999 1300.0,99.99999999999999" stroke="black" /><polygon fill="none" points="1700.0,300.0 1500.0,300.0 1500.0,99.99999999999999" stroke="black" /><polygon fill="none" points="1700.0,300.0 1700.0,99.99999999999999 1500.0,99.99999999999999" stroke="black" /><polygon fill="none" points="1900.0,300.0 1700.0,300.0 1700.0,99.99999999999999" stroke="black" /><polygon fill="none" points="1900.0,300.0 1900.0,99.99999999999999 1700.0,99.99999999999999" stroke="black" /><polygon fill="none" points="2100.0,300.0 1900.0,300.0 1900.0,99.99999999999999" stroke="black" /><polygon fill="none" points="2100.0,300.0 2100.0,99.99999999999999 1900.0,99.99999999999999" stroke="black" /><polygon fill="none" points="2300.0,300.0 2100.0,300.0 2100.0,99.99999999999999" stroke="black" /><polygon fill="none" points="2300.0,300.0 2300.0,99.99999999999999 2100.0,99.99999999999999" stroke="black" /><polygon fill="none" points="100.00000000000001,500.0 -100.00000000000001,500.0 -100.00000000000001,300.0" stroke="black" /><polygon fill="none" points="100.00000000000001,500.0 100.00000000000001,300.0 -100.00000000000001,300.0" stroke="black" /><polygon fill="none" points="300.0,500.0 99.99999999999999,500.0 99.99999999999999,300.0" stroke="black" /><polygon fill="none" points="300.0,500.0 300.0,300.0 99.99999999999999,300.0" stroke="black" /><polygon fill="none" points="500.0,500.0 300.0,500.0 300.0,300.0" stroke="black" /><polygon fill="none" points="500.0,500.0 500.0,300.0 300.0,300.0" stroke="black" /><polygon fill="none" points="700.0,500.0 500.0,500.0 500.0,300.0" stroke="black" /><polygon fill="none" points="700.0,500.0 700.0,300.0 500.0,300.0" stroke="black" /><polygon fill="none" points="900.0,500.0 700.0,500.0 700.0,300.0" stroke="black" /><polygon fill="none" points="900.0,500.0 900.0,300.0 700.0,300.0" stroke="black" /><polygon fill="none" points="1100.0,500.0 900.0,500.0 900.0,300.0" stroke="black" /><polygon fill="none" points="1100.0,500.0 1100.0,300.0 900.0,300.0" stroke="black" /><polygon fill="none" points="1300.0,500.0 1100.0,500.0 1100.0,300.0" stroke="black" /><polygon fill="none" points="1300.0,500.0 1300.0,300.0 1100.0,300.0" stroke="black" /><polygon fill="none" points="1500.0,500.0 1300.0,500.0 1300.0,300.0" stroke="black" /><polygon fill="none" points="1500.0,500.0 1500.0,300.0 1300.0,300.0" stroke="black" /><polygon fill="none" points="1700.0,500.0 1500.0,500.0 1500.0,300.0" stroke="black" /><polygon fill="none" points="1700.0,500.0 1700.0,300.0 1500.0,300.0" stroke="black" /><polygon fill="none" points="1900.0,500.0 1700.0,500.0 1700.0,300.0" stroke="black" /><polygon fill="none" points="1900.0,500.0 1900.0,300.0 1700.0,300.0" stroke="black" /><polygon fill="none" points="2100.0,500.0 1900.0,500.0 1900.0,300.0" stroke="black" /><polygon fill="none" points="2100.0,500.0 2100.0,300.0 1900.0,300.0" stroke="black" /><polygon fill="none" points="2300.0,500.0 2100.0,500.0 2100.0,300.0" stroke="black" /><polygon fill="none" points="2300.0,500.0 2300.0,300.0 2100.0,300.0" stroke="black" /><polygon fill="none" points="100.00000000000001,700.0 -100.00000000000001,700.0 -100.00000000000001,500.0" stroke="black" /><polygon fill="none" points="100.00000000000001,700.0 100.00000000000001,500.0 -100.00000000000001,500.0" stroke="black" /><polygon fill="none" points="300.0,700.0 99.99999999999999,700.0 99.99999999999999,500.0" stroke="black" /><polygon fill="none" points="300.0,700.0 300.0,500.0 99.99999999999999,500.0" stroke="black" /><polygon fill="none" points="500.0,700.0 300.0,700.0 300.0,500.0" stroke="black" /><polygon fill="none" points="500.0,700.0 500.0,500.0 300.0,500.0" stroke="black" /><polygon fill="none" points="700.0,700.0 500.0,700.0 500.0,500.0" stroke="black" /><polygon fill="none" points="700.0,700.0 700.0,500.0 500.0,500.0" stroke="black" /><polygon fill="none" points="900.0,700.0 700.0,700.0 700.0,500.0" stroke="black" /><polygon fill="none" points="900.0,700.0 900.0,500.0 700.0,500.0" stroke="black" /><polygon fill="none" points="1100.0,700.0 900.0,700.0 900.0,500.0" stroke="black" /><polygon fill="none" points="1100.0,700.0 1100.0,500.0 900.0,500.0" stroke="black" /><polygon fill="none" points="1300.0,700.0 1100.0,700.0 1100.0,500.0" stroke="black" /><polygon fill="none" points="1300.0,700.0 1300.0,500.0 1100.0,500.0" stroke="black" /><polygon fill="none" points="1500.0,700.0 1300.0,700.0 1300.0,500.0" stroke="black" /><polygon fill="none" points="1500.0,700.0 1500.0,500.0 1300.0,500.0" stroke="black" /><polygon fill="none" points="1700.0,700.0 1500.0,700.0 1500.0,500.0" stroke="black" /><polygon fill="none" points="1700.0,700.0 1700.0,500.0 1500.0,500.0" stroke="black" /><polygon fill="none" points="1900.0,700.0 1700.0,700.0 1700.0,500.0" stroke="black" /><polygon fill="none" points="1900.0,700.0 1900.0,500.0 1700.0,500.0" stroke="black" /><polygon fill="none" points="2100.0,700.0 1900.0,700.0 1900.0,500.0" stroke="black" /><polygon fill="none" points="2100.0,700.0 2100.0,500.0 1900.0,500.0" stroke="black" /><polygon fill="none" points="2300.0,700.0 2100.0,700.0 2100.0,500.0" stroke="black" /><polygon fill="none" points="2300.0,700.0 2300.0,500.0 2100.0,500.0" stroke="black" /><polygon fill="none" points="100.00000000000001,900.0 -100.00000000000001,900.0 -100.00000000000001,700.0" stroke="black" /><polygon fill="none" points="100.00000000000001,900.0 100.00000000000001,700.0 -100.00000000000001,700.0" stroke="black" /><polygon fill="none" points="300.0,900.0 99.99999999999999,900.0 99.99999999999999,700.0" stroke="black" /><polygon fill="none" points="300.0,900.0 300.0,700.0 99.99999999999999,700.0" stroke="black" /><polygon fill="none" points="500.0,900.0 300.0,900.0 300.0,700.0" stroke="black" /><polygon fill="none" points="500.0,900.0 500.0,700.0 300.0,700.0" stroke="black" /><polygon fill="none" points="700.0,900.0 500.0,900.0 500.0,700.0" stroke="black" /><polygon fill="none" points="700.0,900.0 700.0,700.0 500.0,700.0" stroke="black" /><polygon fill="none" points="900.0,900.0 700.0,900.0 700.0,700.0" stroke="black" /><polygon fill="none" points="900.0,900.0 900.0,700.0 700.0,700.0" stroke="black" /><polygon fill="none" points="1100.0,900.0 900.0,900.0 900.0,700.0" stroke="black" /><polygon fill="none" points="1100.0,900.0 1100.0,700.0 900.0,700.0" stroke="black" /><polygon fill="none" points="1300.0,900.0 1100.0,900.0 1100.0,700.0" stroke="black" /><polygon fill="none" points="1300.0,900.0 1300.0,700.0 1100.0,700.0" stroke="black" /><polygon fill="none" points="1500.0,900.0 1300.0,900.0 1300.0,700.0" stroke="black" /><polygon fill="none" points="1500.0,900.0 1500.0,700.0 1300.0,700.0" stroke="black" /><polygon fill="none" points="1700.0,900.0 1500.0,900.0 1500.0,700.0" stroke="black" /><polygon fill="none" points="1700.0,900.0 1700.0,700.0 1500.0,700.0" stroke="black" /><polygon fill="none" points="1900.0,900.0 1700.0,900.0 1700.0,700.0" stroke="black" /><polygon fill="none" points="1900.0,900.0 1900.0,700.0 1700.0,700.0" stroke="black" /><polygon fill="none" points="2100.0,900.0 1900.0,900.0 1900.0,700.0" stroke="black" /><polygon fill="none" points="2100.0,900.0 2100.0,700.0 1900.0,700.0" stroke="black" /><polygon fill="none" points="2300.0,900.0 2100.0,900.0 2100.0,700.0" stroke="black" /><polygon fill="none" points="2300.0,900.0 2300.0,700.0 2100.0,700.0" stroke="black" /><polygon fill="none" points="100.00000000000001,1100.0 -100.00000000000001,1100.0 -100.00000000000001,900.0" stroke="black" /><polygon fill="none" points="100.00000000000001,1100.0 100.00000000000001,900.0 -100.00000000000001,900.0" stroke="black" /><polygon fill="none" points="300.0,1100.0 99.99999999999999,1100.0 99.99999999999999,900.0" stroke="black" /><polygon fill="none" points="300.0,1100.0 300.0,900.0 99.99999999999999,900.0" stroke="black" /><polygon fill="none" points="500.0,1100.0 300.0,1100.0 300.0,900.0" stroke="black" /><polygon fill="none" points="500.0,1100.0 500.0,900.0 300.0,900.0" stroke="black" /><polygon fill="none" points="700.0,1100.0 500.0,1100.0 500.0,900.0" stroke="black" /><polygon fill="none" points="700.0,1100.0 700.0,900.0 500.0,900.0" stroke="black" /><polygon fill="none" points="900.0,1100.0 700.0,1100.0 700.0,900.0" stroke="black" /><polygon fill="none" points="900.0,1100.0 900.0,900.0 700.0,900.0" stroke="black" /><polygon fill="none" points="1100.0,1100.0 900.0,1100.0 900.0,900.0" stroke="black" /><polygon fill="none" points="1100.0,1100.0 1100.0,900.0 900.0,900.0" stroke="black" /><polygon fill="none" points="1300.0,1100.0 1100.0,1100.0 1100.0,900.0" stroke="black" /><polygon fill="none" points="1300.0,1100.0 1300.0,900.0 1100.0,900.0" stroke="black" /><polygon fill="none" points="1500.0,1100.0 1300.0,1100.0 1300.0,900.0" stroke="black" /><polygon fill="none" points="1500.0,1100.0 1500.0,900.0 1300.0,900.0" stroke="black" /><polygon fill="none" points="1700.0,1100.0 1500.0,1100.0 1500.0,900.0" stroke="black" /><polygon fill="none" points="1700.0,1100.0 1700.0,900.0 1500.0,900.0" stroke="black" /><polygon fill="none" points="1900.0,1100.0 1700.0,1100.0 1700.0,900.0" stroke="black" /><polygon fill="none" points="1900.0,1100.0 1900.0,900.0 1700.0,900.0" stroke="black" /><polygon fill="none" points="2100.0,1100.0 1900.0,1100.0 1900.0,900.0" stroke="black" /><polygon fill="none" points="2100.0,1100.0 2100.0,900.0 1900.0,900.0" stroke="black" /><polygon fill="none" points="2300.0,1100.0 2100.0,1100.0 2100.0,900.0" stroke="black" /><polygon fill="none" points="2300.0,1100.0 2300.0,900.0 2100.0,900.0" stroke="black" /><polygon fill="none" points="100.00000000000001,1300.0 -100.00000000000001,1300.0 -100.00000000000001,1100.0" stroke="black" /><polygon fill="none" points="100.00000000000001,1300.0 100.00000000000001,1100.0 -100.00000000000001,1100.0" stroke="black" /><polygon fill="none" points="300.0,1300.0 99.99999999999999,1300.0 99.99999999999999,1100.0" stroke="black" /><polygon fill="none" points="300.0,1300.0 300.0,1100.0 99.99999999999999,1100.0" stroke="black" /><polygon fill="none" points="500.0,1300.0 300.0,1300.0 300.0,1100.0" stroke="black" /><polygon fill="none" points="500.0,1300.0 500.0,1100.0 300.0,1100.0" stroke="black" /><polygon fill="none" points="700.0,1300.0 500.0,1300.0 500.0,1100.0" stroke="black" /><polygon fill="none" points="700.0,1300.0 700.0,1100.0 500.0,1100.0" stroke="black" /><polygon fill="none" points="900.0,1300.0 700.0,1300.0 700.0,1100.0" stroke="black" /><polygon fill="none" points="900.0,1300.0 900.0,1100.0 700.0,1100.0" stroke="black" /><polygon fill="none" points="1100.0,1300.0 900.0,1300.0 900.0,1100.0" stroke="black" /><polygon fill="none" points="1100.0,1300.0 1100.0,1100.0 900.0,1100.0" stroke="black" /><polygon fill="none" points="1300.0,1300.0 1100.0,1300.0 1100.0,1100.0" stroke="black" /><polygon fill="none" points="1300.0,1300.0 1300.0,1100.0 1100.0,1100.0" stroke="black" /><polygon fill="none" points="1500.0,1300.0 1300.0,1300.0 1300.0,1100.0" stroke="black" /><polygon fill="none" points="1500.0,1300.0 1500.0,1100.0 1300.0,1100.0" stroke="black" /><polygon fill="none" points="1700.0,1300.0 1500.0,1300.0 1500.0,1100.0" stroke="black" /><polygon fill="none" points="1700.0,1300.0 1700.0,1100.0 1500.0,1100.0" stroke="black" /><polygon fill="none" points="1900.0,1300.0 1700.0,1300.0 1700.0,1100.0" stroke="black" /><polygon fill="none" points="1900.0,1300.0 1900.0,1100.0 1700.0,1100.0" stroke="black" /><polygon fill="none" points="2100.0,1300.0 1900.0,1300.0 1900.0,1100.0" stroke="black" /><polygon fill="none" points="2100.0,1300.0 2100.0,1100.0 1900.0,1100.0" stroke="black" /><polygon fill="none" points="2300.0,1300.0 2100.0,1300.0 2100.0,1100.0" stroke="black" /><polygon fill="none" points="2300.0,1300.0 2300.0,1100.0 2100.0,1100.0" stroke="black" /><polygon fill="none" points="100.00000000000001,1500.0 -100.00000000000001,1500.0 -100.00000000000001,1300.0" stroke="black" /><polygon fill="none" points="100.00000000000001,1500.0 100.00000000000001,1300.0 -100.00000000000001,1300.0" stroke="black" /><polygon fill="none" points="300.0,1500.0 99.99999999999999,1500.0 99.99999999999999,1300.0" stroke="black" /><polygon fill="none" points="300.0,1500.0 300.0,1300.0 99.99999999999999,1300.0" stroke="black" /><polygon fill="none" points="500.0,1500.0 300.0,1500.0 300.0,1300.0" stroke="black" /><polygon fill="none" points="500.0,1500.0 500.0,1300.0 300.0,1300.0" stroke="black" /><polygon fill="none" points="700.0,1500.0 500.0,1500.0 500.0,1300.0" stroke="black" /><polygon fill="none" points="700.0,1500.0 700.0,1300.0 500.0,1300.0" stroke="black" /><polygon fill="none" points="900.0,1500.0 700.0,1500.0 700.0,1300.0" stroke="black" /><polygon fill="none" points="900.0,1500.0 900.0,1300.0 700.0,1300.0" stroke="black" /><polygon fill="none" points="1100.0,1500.0 900.0,1500.0 900.0,1300.0" stroke="black" /><polygon fill="none" points="1100.0,1500.0 1100.0,1300.0 900.0,1300.0" stroke="black" /><polygon fill="none" points="1300.0,1500.0 1100.0,1500.0 1100.0,1300.0" stroke="black" /><polygon fill="none" points="1300.0,1500.0 1300.0,1300.0 1100.0,1300.0" stroke="black" /><polygon fill="none" points="1500.0,1500.0 1300.0,1500.0 1300.0,1300.0" stroke="black" /><polygon fill="none" points="1500.0,1500.0 1500.0,1300.0 1300.0,1300.0" stroke="black" /><polygon fill="none" points="1700.0,1500.0 1500.0,1500.0 1500.0,1300.0" stroke="black" /><polygon fill="none" points="1700.0,1500.0 1700.0,1300.0 1500.0,1300.0" stroke="black" /><polygon fill="none" points="1900.0,1500.0 1700.0,1500.0 1700.0,1300.0" stroke="black" /><polygon fill="none" points="1900.0,1500.0 1900.0,1300.0 1700.0,1300.0" stroke="black" /><polygon fill="none" points="2100.0,1500.0 1900.0,1500.0 1900.0,1300.0" stroke="black" /><polygon fill="none" points="2100.0,1500.0 2100.0,1300.0 1900.0,1300.0" stroke="black" /><polygon fill="none" points="2300.0,1500.0 2100.0,1500.0 2100.0,1300.0" stroke="black" /><polygon fill="none" points="2300.0,1500.0 2300.0,1300.0 2100.0,1300.0" stroke="black" /><polygon fill="none" points="100.00000000000001,1700.0 -100.00000000000001,1700.0 -100.00000000000001,1500.0" stroke="black" /><polygon fill="none" points="100.00000000000001,1700.0 100.00000000000001,1500.0 -100.00000000000001,1500.0" stroke="black" /><polygon fill="none" points="300.0,1700.0 99.99999999999999,1700.0 99.99999999999999,1500.0" stroke="black" /><polygon fill="none" points="300.0,1700.0 300.0,1500.0 99.99999999999999,1500.0" stroke="black" /><polygon fill="none" points="500.0,1700.0 300.0,1700.0 300.0,1500.0" stroke="black" /><polygon fill="none" points="500.0,1700.0 500.0,1500.0 300.0,1500.0" stroke="black" /><polygon fill="none" points="700.0,1700.0 500.0,1700.0 500.0,1500.0" stroke="black" /><polygon fill="none" points="700.0,1700.0 700.0,1500.0 500.0,1500.0" stroke="black" /><polygon fill="none" points="900.0,1700.0 700.0,1700.0 700.0,1500.0" stroke="black" /><polygon fill="none" points="900.0,1700.0 900.0,1500.0 700.0,1500.0" stroke="black" /><polygon fill="none" points="1100.0,1700.0 900.0,1700.0 900.0,1500.0" stroke="black" /><polygon fill="none" points="1100.0,1700.0 1100.0,1500.0 900.0,1500.0" stroke="black" /><polygon fill="none" points="1300.0,1700.0 1100.0,1700.0 1100.0,1500.0" stroke="black" /><polygon fill="none" points="1300.0,1700.0 1300.0,1500.0 1100.0,1500.0" stroke="black" /><polygon fill="none" points="1500.0,1700.0 1300.0,1700.0 1300.0,1500.0" stroke="black" /><polygon fill="none" points="1500.0,1700.0 1500.0,1500.0 1300.0,1500.0" stroke="black" /><polygon fill="none" points="1700.0,1700.0 1500.0,1700.0 1500.0,1500.0" stroke="black" /><polygon fill="none" points="1700.0,1700.0 1700.0,1500.0 1500.0,1500.0" stroke="black" /><polygon fill="none" points="1900.0,1700.0 1700.0,1700.0 1700.0,1500.0" stroke="black" /><polygon fill="none" points="1900.0,1700.0 1900.0,1500.0 1700.0,1500.0" stroke="black" /><polygon fill="none" points="2100.0,1700.0 1900.0,1700.0 1900.0,1500.0" stroke="black" /><polygon fill="none" points="2100.0,1700.0 2100.0,1500.0 1900.0,1500.0" stroke="black" /><polygon fill="none" points="2300.0,1700.0 2100.0,1700.0 2100.0,1500.0" stroke="black" /><polygon fill="none" points="2300.0,1700.0 2300.0,1500.0 2100.0,1500.0" stroke="black" /><polygon fill="none" points="100.00000000000001,1900.0 -100.00000000000001,1900.0 -100.00000000000001,1700.0" stroke="black" /><polygon fill="none" points="100.00000000000001,1900.0 100.00000000000001,1700.0 -100.00000000000001,1700.0" stroke="black" /><polygon fill="none" points="300.0,1900.0 99.99999999999999,1900.0 99.99999999999999,1700.0" stroke="black" /><polygon fill="none" points="300.0,1900.0 300.0,1700.0 99.99999999999999,1700.0" stroke="black" /><polygon fill="none" points="500.0,1900.0 300.0,1900.0 300.0,1700.0" stroke="black" /><polygon fill="none" points="500.0,1900.0 500.0,1700.0 300.0,1700.0" stroke="black" /><polygon fill="none" points="700.0,1900.0 500.0,1900.0 500.0,1700.0" stroke="black" /><polygon fill="none" points="700.0,1900.0 700.0,1700.0 500.0,1700.0" stroke="black" /><polygon fill="none" points="900.0,1900.0 700.0,1900.0 700.0,1700.0" stroke="black" /><polygon fill="none" points="900.0,1900.0 900.0,1700.0 700.0,1700.0" stroke="black" /><polygon fill="none" points="1100.0,1900.0 900.0,1900.0 900.0,1700.0" stroke="black" /><polygon fill="none" points="1100.0,1900.0 1100.0,1700.0 900.0,1700.0" stroke="black" /><polygon fill="none" points="1300.0,1900.0 1100.0,1900.0 1100.0,1700.0" stroke="black" /><polygon fill="none" points="1300.0,1900.0 1300.0,1700.0 1100.0,1700.0" stroke="black" /><polygon fill="none" points="1500.0,1900.0 1300.0,1900.0 1300.0,1700.0" stroke="black" /><polygon fill="none" points="1500.0,1900.0 1500.0,1700.0 1300.0,1700.0" stroke="black" /><polygon fill="none" points="1700.0,1900.0 1500.0,1900.0 1500.0,1700.0" stroke="black" /><polygon fill="none" points="1700.0,1900.0 1700.0,1700.0 1500.0,1700.0" stroke="black" /><polygon fill="none" points="1900.0,1900.0 1700.0,1900.0 1700.0,1700.0" stroke="black" /><polygon fill="none" points="1900.0,1900.0 1900.0,1700.0 1700.0,1700.0" stroke="black" /><polygon fill="none" points="2100.0,1900.0 1900.0,1900.0 1900.0,1700.0" stroke="black" /><polygon fill="none" points="2100.0,1900.0 2100.0,1700.0 1900.0,1700.0" stroke="black" /><polygon fill="none" points="2300.0,1900.0 2100.0,1900.0 2100.0,1700.0" stroke="black" /><polygon fill="none" points="2300.0,1900.0 2300.0,1700.0 2100.0,1700.0" stroke="black" /><polygon fill="none" points="100.00000000000001,2100.0 -100.00000000000001,2100.0 -100.00000000000001,1900.0" stroke="black" /><polygon fill="none" points="100.00000000000001,2100.0 100.00000000000001,1900.0 -100.00000000000001,1900.0" stroke="black" /><polygon fill="none" points="300.0,2100.0 99.99999999999999,2100.0 99.99999999999999,1900.0" stroke="black" /><polygon fill="none" points="300.0,2100.0 300.0,1900.0 99.99999999999999,1900.0" stroke="black" /><polygon fill="none" points="500.0,2100.0 300.0,2100.0 300.0,1900.0" stroke="black" /><polygon fill="none" points="500.0,2100.0 500.0,1900.0 300.0,1900.0" stroke="black" /><polygon fill="none" points="700.0,2100.0 500.0,2100.0 500.0,1900.0" stroke="black" /><polygon fill="none" points="700.0,2100.0 700.0,1900.0 500.0,1900.0" stroke="black" /><polygon fill="none" points="900.0,2100.0 700.0,2100.0 700.0,1900.0" stroke="black" /><polygon fill="none" points="900.0,2100.0 900.0,1900.0 700.0,1900.0" stroke="black" /><polygon fill="none" points="1100.0,2100.0 900.0,2100.0 900.0,1900.0" stroke="black" /><polygon fill="none" points="1100.0,2100.0 1100.0,1900.0 900.0,1900.0" stroke="black" /><polygon fill="none" points="1300.0,2100.0 1100.0,2100.0 1100.0,1900.0" stroke="black" /><polygon fill="none" points="1300.0,2100.0 1300.0,1900.0 1100.0,1900.0" stroke="black" /><polygon fill="none" points="1500.0,2100.0 1300.0,2100.0 1300.0,1900.0" stroke="black" /><polygon fill="none" points="1500.0,2100.0 1500.0,1900.0 1300.0,1900.0" stroke="black" /><polygon fill="none" points="1700.0,2100.0 1500.0,2100.0 1500.0,1900.0" stroke="black" /><polygon fill="none" points="1700.0,2100.0 1700.0,1900.0 1500.0,1900.0" stroke="black" /><polygon fill="none" points="1900.0,2100.0 1700.0,2100.0 1700.0,1900.0" stroke="black" /><polygon fill="none" points="1900.0,2100.0 1900.0,1900.0 1700.0,1900.0" stroke="black" /><polygon fill="none" points="2100.0,2100.0 1900.0,2100.0 1900.0,1900.0" stroke="black" /><polygon fill="none" points="2100.0,2100.0 2100.0,1900.0 1900.0,1900.0" stroke="black" /><polygon fill="none" points="2300.0,2100.0 2100.0,2100.0 2100.0,1900.0" stroke="black" /><polygon fill="none" points="2300.0,2100.0 2300.0,1900.0 2100.0,1900.0" stroke="black" /><polygon fill="none" points="100.00000000000001,2300.0 -100.00000000000001,2300.0 -100.00000000000001,2100.0" stroke="black" /><polygon fill="none" points="100.00000000000001,2300.0 100.00000000000001,2100.0 -100.00000000000001,2100.0" stroke="black" /><polygon fill="none" points="300.0,2300.0 99.99999999999999,2300.0 99.99999999999999,2100.0" stroke="black" /><polygon fill="none" points="300.0,2300.0 300.0,2100.0 99.99999999999999,2100.0" stroke="black" /><polygon fill="none" points="500.0,2300.0 300.0,2300.0 300.0,2100.0" stroke="black" /><polygon fill="none" points="500.0,2300.0 500.0,2100.0 300.0,2100.0" stroke="black" /><polygon fill="none" points="700.0,2300.0 500.0,2300.0 500.0,2100.0" stroke="black" /><polygon fill="none" points="700.0,2300.0 700.0,2100.0 500.0,2100.0" stroke="black" /><polygon fill="none" points="900.0,2300.0 700.0,2300.0 700.0,2100.0" stroke="black" /><polygon fill="none" points="900.0,2300.0 900.0,2100.0 700.0,2100.0" stroke="black" /><polygon fill="none" points="1100.0,2300.0 900.0,2300.0 900.0,2100.0" stroke="black" /><polygon fill="none" points="1100.0,2300.0 1100.0,2100.0 900.0,2100.0" stroke="black" /><polygon fill="none" points="1300.0,2300.0 1100.0,2300.0 1100.0,2100.0" stroke="black" /><polygon fill="none" points="1300.0,2300.0 1300.0,2100.0 1100.0,2100.0" stroke="black" /><polygon fill="none" points="1500.0,2300.0 1300.0,2300.0 1300.0,2100.0" stroke="black" /><polygon fill="none" points="1500.0,2300.0 1500.0,2100.0 1300.0,2100.0" stroke="black" /><polygon fill="none" points="1700.0,2300.0 1500.0,2300.0 1500.0,2100.0" stroke="black" /><polygon fill="none" points="1700.0,2300.0 1700.0,2100.0 1500.0,2100.0" stroke="black" /><polygon fill="none" points="1900.0,2300.0 1700.0,2300.0 1700.0,2100.0" stroke="black" /><polygon fill="none" points="1900.0,2300.0 1900.0,2100.0 1700.0,2100.0" stroke="black" /><polygon fill="none" points="2100.0,2300.0 1900.0,2300.0 1900.0,2100.0" stroke="black" /><polygon fill="none" points="2100.0,2300.0 2100.0,2100.0 1900.0,2100.0" stroke="black" /><polygon fill="none" points="2300.0,2300.0 2100.0,2300.0 2100.0,2100.0" stroke="black" /><polygon fill="none" points="2300.0,2300.0 2300.0,2100.0 2100.0,2100.0" stroke="black" /><polygon fill="none" points="100.00000000000001,2500.0 -100.00000000000001,2500.0 -100.00000000000001,2300.0" stroke="black" /><polygon fill="none" points="100.00000000000001,2500.0 100.00000000000001,2300.0 -100.00000000000001,2300.0" stroke="black" /><polygon fill="none" points="300.0,2500.0 99.99999999999999,2500.0 99.99999999999999,2300.0" stroke="black" /><polygon fill="none" points="300.0,2500.0 300.0,2300.0 99.99999999999999,2300.0" stroke="black" /><polygon fill="none" points="500.0,2500.0 300.0,2500.0 300.0,2300.0" stroke="black" /><polygon fill="none" points="500.0,2500.0 500.0,2300.0 300.0,2300.0" stroke="black" /><polygon fill="none" points="700.0,2500.0 500.0,2500.0 500.0,2300.0" stroke="black" /><polygon fill="none" points="700.0,2500.0 700.0,2300.0 500.0,2300.0" stroke="black" /><polygon fill="none" points="900.0,2500.0 700.0,2500.0 700.0,2300.0" stroke="black" /><polygon fill="none" points="900.0,2500.0 900.0,2300.0 700.0,2300.0" stroke="black" /><polygon fill="none" points="1100.0,2500.0 900.0,2500.0 900.0,2300.0" stroke="black" /><polygon fill="none" points="1100.0,2500.0 1100.0,2300.0 900.0,2300.0" stroke="black" /><polygon fill="none" points="1300.0,2500.0 1100.0,2500.0 1100.0,2300.0" stroke="black" /><polygon fill="none" points="1300.0,2500.0 1300.0,2300.0 1100.0,2300.0" stroke="black" /><polygon fill="none" points="1500.0,2500.0 1300.0,2500.0 1300.0,2300.0" stroke="black" /><polygon fill="none" points="1500.0,2500.0 1500.0,2300.0 1300.0,2300.0" stroke="black" /><polygon fill="none" points="1700.0,2500.0 1500.0,2500.0 1500.0,2300.0" stroke="black" /><polygon fill="none" points="1700.0,2500.0 1700.0,2300.0 1500.0,2300.0" stroke="black" /><polygon fill="none" points="1900.0,2500.0 1700.0,2500.0 1700.0,2300.0" stroke="black" /><polygon fill="none" points="1900.0,2500.0 1900.0,2300.0 1700.0,2300.0" stroke="black" /><polygon fill="none" points="2100.0,2500.0 1900.0,2500.0 1900.0,2300.0" stroke="black" /><polygon fill="none" points="2100.0,2500.0 2100.0,2300.0 1900.0,2300.0" stroke="black" /><polygon fill="none" points="2300.0,2500.0 2100.0,2500.0 2100.0,2300.0" stroke="black" /><polygon fill="none" points="2300.0,2500.0 2300.0,2300.0 2100.0,2300.0" stroke="black" /><polygon fill="none" points="100.00000000000001,2700.0 -100.00000000000001,2700.0 -100.00000000000001,2500.0" stroke="black" /><polygon fill="none" points="100.00000000000001,2700.0 100.00000000000001,2500.0 -100.00000000000001,2500.0" stroke="black" /><polygon fill="none" points="300.0,2700.0 99.99999999999999,2700.0 99.99999999999999,2500.0" stroke="black" /><polygon fill="none" points="300.0,2700.0 300.0,2500.0 99.99999999999999,2500.0" stroke="black" /><polygon fill="none" points="500.0,2700.0 300.0,2700.0 300.0,2500.0" stroke="black" /><polygon fill="none" points="500.0,2700.0 500.0,2500.0 300.0,2500.0" stroke="black" /><polygon fill="none" points="700.0,2700.0 500.0,2700.0 500.0,2500.0" stroke="black" /><polygon fill="none" points="700.0,2700.0 700.0,2500.0 500.0,2500.0" stroke="black" /><polygon fill="none" points="900.0,2700.0 700.0,2700.0 700.0,2500.0" stroke="black" /><polygon fill="none" points="900.0,2700.0 900.0,2500.0 700.0,2500.0" stroke="black" /><polygon fill="none" points="1100.0,2700.0 900.0,2700.0 900.0,2500.0" stroke="black" /><polygon fill="none" points="1100.0,2700.0 1100.0,2500.0 900.0,2500.0" stroke="black" /><polygon fill="none" points="1300.0,2700.0 1100.0,2700.0 1100.0,2500.0" stroke="black" /><polygon fill="none" points="1300.0,2700.0 1300.0,2500.0 1100.0,2500.0" stroke="black" /><polygon fill="none" points="1500.0,2700.0 1300.0,2700.0 1300.0,2500.0" stroke="black" /><polygon fill="none" points="1500.0,2700.0 1500.0,2500.0 1300.0,2500.0" stroke="black" /><polygon fill="none" points="1700.0,2700.0 1500.0,2700.0 1500.0,2500.0" stroke="black" /><polygon fill="none" points="1700.0,2700.0 1700.0,2500.0 1500.0,2500.0" stroke="black" /><polygon fill="none" points="1900.0,2700.0 1700.0,2700.0 1700.0,2500.0" stroke="black" /><polygon fill="none" points="1900.0,2700.0 1900.0,2500.0 1700.0,2500.0" stroke="black" /><polygon fill="none" points="2100.0,2700.0 1900.0,2700.0 1900.0,2500.0" stroke="black" /><polygon fill="none" points="2100.0,2700.0 2100.0,2500.0 1900.0,2500.0" stroke="black" /><polygon fill="none" points="2300.0,2700.0 2100.0,2700.0 2100.0,2500.0" stroke="black" /><polygon fill="none" points="2300.0,2700.0 2300.0,2500.0 2100.0,2500.0" stroke="black" /><polygon fill="none" points="100.00000000000001,2900.0 -100.00000000000001,2900.0 -100.00000000000001,2700.0" stroke="black" /><polygon fill="none" points="100.00000000000001,2900.0 100.00000000000001,2700.0 -100.00000000000001,2700.0" stroke="black" /><polygon fill="none" points="300.0,2900.0 99.99999999999999,2900.0 99.99999999999999,2700.0" stroke="black" /><polygon fill="none" points="300.0,2900.0 300.0,2700.0 99.99999999999999,2700.0" stroke="black" /><polygon fill="none" points="500.0,2900.0 300.0,2900.0 300.0,2700.0" stroke="black" /><polygon fill="none" points="500.0,2900.0 500.0,2700.0 300.0,2700.0" stroke="black" /><polygon fill="none" points="700.0,2900.0 500.0,2900.0 500.0,2700.0" stroke="black" /><polygon fill="none" points="700.0,2900.0 700.0,2700.0 500.0,2700.0" stroke="black" /><polygon fill="none" points="900.0,2900.0 700.0,2900.0 700.0,2700.0" stroke="black" /><polygon fill="none" points="900.0,2900.0 900.0,2700.0 700.0,2700.0" stroke="black" /><polygon fill="none" points="1100.0,2900.0 900.0,2900.0 900.0,2700.0" stroke="black" /><polygon fill="none" points="1100.0,2900.0 1100.0,2700.0 900.0,2700.0" stroke="black" /><polygon fill="none" points="1300.0,2900.0 1100.0,2900.0 1100.0,2700.0" stroke="black" /><polygon fill="none" points="1300.0,2900.0 1300.0,2700.0 1100.0,2700.0" stroke="black" /><polygon fill="none" points="1500.0,2900.0 1300.0,2900.0 1300.0,2700.0" stroke="black" /><polygon fill="none" points="1500.0,2900.0 1500.0,2700.0 1300.0,2700.0" stroke="black" /><polygon fill="none" points="1700.0,2900.0 1500.0,2900.0 1500.0,2700.0" stroke="black" /><polygon fill="none" points="1700.0,2900.0 1700.0,2700.0 1500.0,2700.0" stroke="black" /><polygon fill="none" points="1900.0,2900.0 1700.0,2900.0 1700.0,2700.0" stroke="black" /><polygon fill="none" points="1900.0,2900.0 1900.0,2700.0 1700.0,2700.0" stroke="black" /><polygon fill="none" points="2100.0,2900.0 1900.0,2900.0 1900.0,2700.0" stroke="black" /><polygon fill="none" points="2100.0,2900.0 2100.0,2700.0 1900.0,2700.0" stroke="black" /><polygon fill="none" points="2300.0,2900.0 2100.0,2900.0 2100.0,2700.0" stroke="black" /><polygon fill="none" points="2300.0,2900.0 2300.0,2700.0 2100.0,2700.0" stroke="black" /><polygon fill="none" points="100.00000000000001,3100.0 -100.00000000000001,3100.0 -100.00000000000001,2900.0" stroke="black" /><polygon fill="none" points="100.00000000000001,3100.0 100.00000000000001,2900.0 -100.00000000000001,2900.0" stroke="black" /><polygon fill="none" points="300.0,3100.0 99.99999999999999,3100.0 99.99999999999999,2900.0" stroke="black" /><polygon fill="none" points="300.0,3100.0 300.0,2900.0 99.99999999999999,2900.0" stroke="black" /><polygon fill="none" points="500.0,3100.0 300.0,3100.0 300.0,2900.0" stroke="black" /><polygon fill="none" points="500.0,3100.0 500.0,2900.0 300.0,2900.0" stroke="black" /><polygon fill="none" points="700.0,3100.0 500.0,3100.0 500.0,2900.0" stroke="black" /><polygon fill="none" points="700.0,3100.0 700.0,2900.0 500.0,2900.0" stroke="black" /><polygon fill="none" points="900.0,3100.0 700.0,3100.0 700.0,2900.0" stroke="black" /><polygon fill="none" points="900.0,3100.0 900.0,2900.0 700.0,2900.0" stroke="black" /><polygon fill="none" points="1100.0,3100.0 900.0,3100.0 900.0,2900.0" stroke="black" /><polygon fill="none" points="1100.0,3100.0 1100.0,2900.0 900.0,2900.0" stroke="black" /><polygon fill="none" points="1300.0,3100.0 1100.0,3100.0 1100.0,2900.0" stroke="black" /><polygon fill="none" points="1300.0,3100.0 1300.0,2900.0 1100.0,2900.0" stroke="black" /><polygon fill="none" points="1500.0,3100.0 1300.0,3100.0 1300.0,2900.0" stroke="black" /><polygon fill="none" points="1500.0,3100.0 1500.0,2900.0 1300.0,2900.0" stroke="black" /><polygon fill="none" points="1700.0,3100.0 1500.0,3100.0 1500.0,2900.0" stroke="black" /><polygon fill="none" points="1700.0,3100.0 1700.0,2900.0 1500.0,2900.0" stroke="black" /><polygon fill="none" points="1900.0,3100.0 1700.0,3100.0 1700.0,2900.0" stroke="black" /><polygon fill="none" points="1900.0,3100.0 1900.0,2900.0 1700.0,2900.0" stroke="black" /><polygon fill="none" points="2100.0,3100.0 1900.0,3100.0 1900.0,2900.0" stroke="black" /><polygon fill="none" points="2100.0,3100.0 2100.0,2900.0 1900.0,2900.0" stroke="black" /><polygon fill="none" points="2300.0,3100.0 2100.0,3100.0 2100.0,2900.0" stroke="black" /><polygon fill="none" points="2300.0,3100.0 2300.0,2900.0 2100.0,2900.0" stroke="black" /></svg>