<?xml version="1.0" encoding="utf-8" ?>
<svg baseProfile="full" height="2970" version="1.1" width="2100" xmlns="http://www.w3.org/2000/svg" xmlns:ev="http://www.w3.org/2001/xml-events" xmlns:xlink="http://www.w3.org/1999/xlink"><defs /><polygon fill="none" points="50.000000000000014,50.000000000000014 -150.0,50.000000000000014 -150.00000000000003,-150.0 50.0,-150.00000000000003" stroke="black" /><polygon fill="none" points="250.0,50.000000000000014 49.999999999999986,50.000000000000014 49.99999999999997,-150.0 250.0,-150.00000000000003" stroke="black" /><polygon fill="none" points="450.0,50.000000000000014 250.0,50.000000000000014 249.99999999999997,-150.0 450.0,-150.00000000000003" stroke="black" /><polygon fill="none" points="650.0,50.000000000000014 450.0,50.000000000000014 450.0,-150.0 650.0,-150.00000000000003" stroke="black" /><polygon fill="none" points="850.0,50.000000000000014 650.0,50.000000000000014 650.0,-150.0 850.0,-150.00000000000003" stroke="black" /><polygon fill="none" points="1050.0,50.000000000000014 850.0,50.000000000000014 850.0,-150.0 1050.0,-150.00000000000003" stroke="black" /><polygon fill="none" points="1250.0,50.000000000000014 1050.0,50.000000000000014 1050.0,-150.0 1250.0,-150.00000000000003" stroke="black" /><polygon fill="none" points="1450.0,50.000000000000014 1250.0,50.000000000000014 1250.0,-150.0 1450.0,-150.00000000000003" stroke="black" /><polygon fill="none" points="1650.0,50.000000000000014 1450.0,50.000000000000014 1450.0,-150.0 1650.0,-150.00000000000003" stroke="black" /><polygon fill="none" points="1850.0,50.000000000000014 1650.0,50.000000000000014 1650.0,-150.0 1850.0,-150.00000000000003" stroke="black" /><polygon fill="none" points="2050.0,50.000000000000014 1850.0,50.000000000000014 1850.0,-150.0 2050.0,-150.00000000000003" stroke="black" /><polygon fill="none" points="2250.0,50.000000000000014 2050.0,50.000000000000014 2050.0,-150.0 2250.0,-150.00000000000003" stroke="black" /><polygon fill="none" points="50.000000000000014,250.0 -150.0,250.0 -150.00000000000003,50.0 50.0,49.99999999999997" stroke="black" /><polygon fill="none" points="250.0,250.0 49.999999999999986,250.0 49.99999999999997,50.0 250.0,49.99999999999997" stroke="black" /><polygon fill="none" points="450.0,250.0 250.0,250.0 249.99999999999997,50.0 450.0,49.99999999999997" stroke="black" /><polygon fill="none" points="650.0,250.0 450.0,250.0 450.0,50.0 650.0,49.99999999999997" stroke="black" /><polygon fill="none" points="850.0,250.0 650.0,250.0 650.0,50.0 850.0,49.99999999999997" stroke="black" /><polygon fill="none" points="1050.0,250.0 850.0,250.0 850.0,50.0 1050.0,49.99999999999997" stroke="black" /><polygon fill="none" points="1250.0,250.0 1050.0,250.0 1050.0,50.0 1250.0,49.99999999999997" stroke="black" /><polygon fill="none" points="1450.0,250.0 1250.0,250.0 1250.0,50.0 1450.0,49.99999999999997" stroke="black" /><polygon fill="none" points="1650.0,250.0 1450.0,250.0 1450.0,50.0 1650.0,49.99999999999997" stroke="black" /><polygon fill="none" points="1850.0,250.0 1650.0,250.0 1650.0,50.0 1850.0,49.99999999999997" stroke="black" /><polygon fill="none" points="2050.0,250.0 1850.0,250.0 1850.0,50.0 2050.0,49.99999999999997" stroke="black" /><polygon fill="none" points="2250.0,250.0 2050.0,250.0 2050.0,50.0 2250.0,49.99999999999997" stroke="black" /><polygon fill="none" points="50.000000000000014,450.0 -150.0,450.0 -150.00000000000003,250.0 50.0,249.99999999999997" stroke="black" /><polygon fill="none" points="250.0,450.0 49.999999999999986,450.0 49.99999999999997,250.0 250.0,249.99999999999997" stroke="black" /><polygon fill="none" points="450.0,450.0 250.0,450.0 249.99999999999997,250.0 450.0,249.99999999999997" stroke="black" /><polygon fill="none" points="650.0,450.0 450.0,450.0 450.0,250.0 650.0,249.99999999999997" stroke="black" /><polygon fill="none" points="850.0,450.0 650.0,450.0 650.0,250.0 850.0,249.99999999999997" stroke="black" /><polygon fill="none" points="1050.0,450.0 850.0,450.0 850.0,250.0 1050.0,249.99999999999997" stroke="black" /><polygon fill="none" points="1250.0,450.0 1050.0,450.0 1050.0,250.0 1250.0,249.99999999999997" stroke="black" /><polygon fill="none" points="1450.0,450.0 1250.0,450.0 1250.0,250.0 1450.0,249.99999999999997" stroke="black" /><polygon fill="none" points="1650.0,450.0 1450.0,450.0 1450.0,250.0 1650.0,249.99999999999997" stroke="black" /><polygon fill="none" points="1850.0,450.0 1650.0,450.0 1650.0,250.0 1850.0,249.99999999999997" stroke="black" /><polygon fill="none" points="2050.0,450.0 1850.0,450.0 1850.0,250.0 2050.0,249.99999999999997" stroke="black" /><polygon fill="none" points="2250.0,450.0 2050.0,450.0 2050.0,250.0 2250.0,249.99999999999997" stroke="black" /><polygon fill="none" points="50.000000000000014,650.0 -150.0,650.0 -150.00000000000003,450.0 50.0,450.0" stroke="black" /><polygon fill="none" points="250.0,650.0 49.999999999999986,650.0 49.99999999999997,450.0 250.0,450.0" stroke="black" /><polygon fill="none" points="450.0,650.0 250.0,650.0 249.99999999999997,450.0 450.0,450.0" stroke="black" /><polygon fill="none" points="650.0,650.0 450.0,650.0 450.0,450.0 650.0,450.0" stroke="black" /><polygon fill="none" points="850.0,650.0 650.0,650.0 650.0,450.0 850.0,450.0" stroke="black" /><polygon fill="none" points="1050.0,650.0 850.0,650.0 850.0,450.0 1050.0,450.0" stroke="black" /><polygon fill="none" points="1250.0,650.0 1050.0,650.0 1050.0,450.0 1250.0,450.0" stroke="black" /><polygon fill="none" points="1450.0,650.0 1250.0,650.0 1250.0,450.0 1450.0,450.0" stroke="black" /><polygon fill="none" points="1650.0,650.0 1450.0,650.0 1450.0,450.0 1650.0,450.0" stroke="black" /><polygon fill="none" points="1850.0,650.0 1650.0,650.0 1650.0,450.0 1850.0,450.0" stroke="black" /><polygon fill="none" points="2050.0,650.0 1850.0,650.0 1850.0,450.0 2050.0,450.0" stroke="black" /><polygon fill="none" points="2250.0,650.0 2050.0,650.0 2050.0,450.0 2250.0,450.0" stroke="black" /><polygon fill="none" points="50.000000000000014,850.0 -150.0,850.0 -150.00000000000003,650.0 50.0,650.0" stroke="black" /><polygon fill="none" points="250.0,850.0 49.999999999999986,850.0 49.99999999999997,650.0 250.0,650.0" stroke="black" /><polygon fill="none" points="450.0,850.0 250.0,850.0 249.99999999999997,650.0 450.0,650.0" stroke="black" /><polygon fill="none" points="650.0,850.0 450.0,850.0 450.0,650.0 650.0,650.0" stroke="black" /><polygon fill="none" points="850.0,850.0 650.0,850.0 650.0,650.0 850.0,650.0" stroke="black" /><polygon fill="none" points="1050.0,850.0 850.0,850.0 850.0,650.0 1050.0,650.0" stroke="black" /><polygon fill="none" points="1250.0,850.0 1050.0,850.0 1050.0,650.0 1250.0,650.0" stroke="black" /><polygon fill="none" points="1450.0,850.0 1250.0,850.0 1250.0,650.0 1450.0,650.0" stroke="black" /><polygon fill="none" points="1650.0,850.0 1450.0,850.0 1450.0,650.0 1650.0,650.0" stroke="black" /><polygon fill="none" points="1850.0,850.0 1650.0,850.0 1650.0,650.0 1850.0,650.0" stroke="black" /><polygon fill="none" points="2050.0,850.0 1850.0,850.0 1850.0,650.0 2050.0,650.0" stroke="black" /><polygon fill="none" points="2250.0,850.0 2050.0,850.0 2050.0,650.0 2250.0,650.0" stroke="black" /><polygon fill="none" points="50.000000000000014,1050.0 -150.0,1050.0 -150.00000000000003,850.0 50.0,850.0" stroke="black" /><polygon fill="none" points="250.0,1050.0 49.999999999999986,1050.0 49.99999999999997,850.0 250.0,850.0" stroke="black" /><polygon fill="none" points="450.0,1050.0 250.0,1050.0 249.99999999999997,850.0 450.0,850.0" stroke="black" /><polygon fill="none" points="650.0,1050.0 450.0,1050.0 450.0,850.0 650.0,850.0" stroke="black" /><polygon fill="none" points="850.0,1050.0 650.0,1050.0 650.0,850.0 850.0,850.0" stroke="black" /><polygon fill="none" points="1050.0,1050.0 850.0,1050.0 850.0,850.0 1050.0,850.0" stroke="black" /><polygon fill="none" points="1250.0,1050.0 1050.0,1050.0 1050.0,850.0 1250.0,850.0" stroke="black" /><polygon fill="none" points="1450.0,1050.0 1250.0,1050.0 1250.0,850.0 1450.0,850.0" stroke="black" /><polygon fill="none" points="1650.0,1050.0 1450.0,1050.0 1450.0,850.0 1650.0,850.0" stroke="black" /><polygon fill="none" points="1850.0,1050.0 1650.0,1050.0 1650.0,850.0 1850.0,850.0" stroke="black" /><polygon fill="none" points="2050.0,1050.0 1850.0,1050.0 1850.0,850.0 2050.0,850.0" stroke="black" /><polygon fill="none" points="2250.0,1050.0 2050.0,1050.0 2050.0,850.0 2250.0,850.0" stroke="black" /><polygon fill="none" points="50.000000000000014,1250.0 -150.0,1250.0 -150.00000000000003,1050.0 50.0,1050.0" stroke="black" /><polygon fill="none" points="250.0,1250.0 49.999999999999986,1250.0 49.99999999999997,1050.0 250.0,1050.0" stroke="black" /><polygon fill="none" points="450.0,1250.0 250.0,1250.0 249.99999999999997,1050.0 450.0,1050.0" stroke="black" /><polygon fill="none" points="650.0,1250.0 450.0,1250.0 450.0,1050.0 650.0,1050.0" stroke="black" /><polygon fill="none" points="850.0,1250.0 650.0,1250.0 650.0,1050.0 850.0,1050.0" stroke="black" /><polygon fill="none" points="1050.0,1250.0 850.0,1250.0 850.0,1050.0 1050.0,1050.0" stroke="black" /><polygon fill="none" points="1250.0,1250.0 1050.0,1250.0 1050.0,1050.0 1250.0,1050.0" stroke="black" /><polygon fill="none" points="1450.0,1250.0 1250.0,1250.0 1250.0,1050.0 1450.0,1050.0" stroke="black" /><polygon fill="none" points="1650.0,1250.0 1450.0,1250.0 1450.0,1050.0 1650.0,1050.0" stroke="black" /><polygon fill="none" points="1850.0,1250.0 1650.0,1250.0 1650.0,1050.0 1850.0,1050.0" stroke="black" /><polygon fill="none" points="2050.0,1250.0 1850.0,1250.0 1850.0,1050.0 2050.0,1050.0" stroke="black" /><polygon fill="none" points="2250.0,1250.0 2050.0,1250.0 2050.0,1050.0 2250.0,1050.0" stroke="black" /><polygon fill="none" points="50.000000000000014,1450.0 -150.0,1450.0 -150.00000000000003,1250.0 50.0,1250.0" stroke="black" /><polygon fill="none" points="250.0,1450.0 49.999999999999986,1450.0 49.99999999999997,1250.0 250.0,1250.0" stroke="black" /><polygon fill="none" points="450.0,1450.0 250.0,1450.0 249.99999999999997,1250.0 450.0,1250.0" stroke="black" /><polygon fill="none" points="650.0,1450.0 450.0,1450.0 450.0,1250.0 650.0,1250.0" stroke="black" /><polygon fill="none" points="850.0,1450.0 650.0,1450.0 650.0,1250.0 850.0,1250.0" stroke="black" /><polygon fill="none" points="1050.0,1450.0 850.0,1450.0 850.0,1250.0 1050.0,1250.0" stroke="black" /><polygon fill="none" points="1250.0,1450.0 1050.0,1450.0 1050.0,1250.0 1250.0,1250.0" stroke="black" /><polygon fill="none" points="1450.0,1450.0 1250.0,1450.0 1250.0,1250.0 1450.0,1250.0" stroke="black" /><polygon fill="none" points="1650.0,1450.0 1450.0,1450.0 1450.0,1250.0 1650.0,1250.0" stroke="black" /><polygon fill="none" points="1850.0,1450.0 1650.0,1450.0 1650.0,1250.0 1850.0,1250.0" stroke="black" /><polygon fill="none" points="2050.0,1450.0 1850.0,1450.0 1850.0,1250.0 2050.0,1250.0" stroke="black" /><polygon fill="none" points="2250.0,1450.0 2050.0,1450.0 2050.0,1250.0 2250.0,1250.0" stroke="black" /><polygon fill="none" points="50.000000000000014,1650.0 -150.0,1650.0 -150.00000000000003,1450.0 50.0,1450.0" stroke="black" /><polygon fill="none" points="250.0,1650.0 49.999999999999986,1650.0 49.99999999999997,1450.0 250.0,1450.0" stroke="black" /><polygon fill="none" points="450.0,1650.0 250.0,1650.0 249.99999999999997,1450.0 450.0,1450.0" stroke="black" /><polygon fill="none" points="650.0,1650.0 450.0,1650.0 450.0,1450.0 650.0,1450.0" stroke="black" /><polygon fill="none" points="850.0,1650.0 650.0,1650.0 650.0,1450.0 850.0,1450.0" stroke="black" /><polygon fill="none" points="1050.0,1650.0 850.0,1650.0 850.0,1450.0 1050.0,1450.0" stroke="black" /><polygon fill="none" points="1250.0,1650.0 1050.0,1650.0 1050.0,1450.0 1250.0,1450.0" stroke="black" /><polygon fill="none" points="1450.0,1650.0 1250.0,1650.0 1250.0,1450.0 1450.0,1450.0" stroke="black" /><polygon fill="none" points="1650.0,1650.0 1450.0,1650.0 1450.0,1450.0 1650.0,1450.0" stroke="black" /><polygon fill="none" points="1850.0,1650.0 1650.0,1650.0 1650.0,1450.0 1850.0,1450.0" stroke="black" /><polygon fill="none" points="2050.0,1650.0 1850.0,1650.0 1850.0,1450.0 2050.0,1450.0" stroke="black" /><polygon fill="none" points="2250.0,1650.0 2050.0,1650.0 2050.0,1450.0 2250.0,1450.0" stroke="black" /><polygon fill="none" points="50.000000000000014,1850.0 -150.0,1850.0 -150.00000000000003,1650.0 50.0,1650.0" stroke="black" /><polygon fill="none" points="250.0,1850.0 49.999999999999986,1850.0 49.99999999999997,1650.0 250.0,1650.0" stroke="black" /><polygon fill="none" points="450.0,1850.0 250.0,1850.0 249.99999999999997,1650.0 450.0,1650.0" stroke="black" /><polygon fill="none" points="650.0,1850.0 450.0,1850.0 450.0,1650.0 650.0,1650.0" stroke="black" /><polygon fill="none" points="850.0,1850.0 650.0,1850.0 650.0,1650.0 850.0,1650.0" stroke="black" /><polygon fill="none" points="1050.0,1850.0 850.0,1850.0 850.0,1650.0 1050.0,1650.0" stroke="black" /><polygon fill="none" points="1250.0,1850.0 1050.0,1850.0 1050.0,1650.0 1250.0,1650.0" stroke="black" /><polygon fill="none" points="1450.0,1850.0 1250.0,1850.0 1250.0,1650.0 1450.0,1650.0" stroke="black" /><polygon fill="none" points="1650.0,1850.0 1450.0,1850.0 1450.0,1650.0 1650.0,1650.0" stroke="black" /><polygon fill="none" points="1850.0,1850.0 1650.0,1850.0 1650.0,1650.0 1850.0,1650.0" stroke="black" /><polygon fill="none" points="2050.0,1850.0 1850.0,1850.0 1850.0,1650.0 2050.0,1650.0" stroke="black" /><polygon fill="none" points="2250.0,1850.0 2050.0,1850.0 2050.0,1650.0 2250.0,1650.0" stroke="black" /><polygon fill="none" points="50.000000000000014,2050.0 -150.0,2050.0 -150.00000000000003,1850.0 50.0,1850.0" stroke="black" /><polygon fill="none" points="250.0,2050.0 49.999999999999986,2050.0 49.99999999999997,1850.0 250.0,1850.0" stroke="black" /><polygon fill="none" points="450.0,2050.0 250.0,2050.0 249.99999999999997,1850.0 450.0,1850.0" stroke="black" /><polygon fill="none" points="650.0,2050.0 450.0,2050.0 450.0,1850.0 650.0,1850.0" stroke="black" /><polygon fill="none" points="850.0,2050.0 650.0,2050.0 650.0,1850.0 850.0,1850.0" stroke="black" /><polygon fill="none" points="1050.0,2050.0 850.0,2050.0 850.0,1850.0 1050.0,1850.0" stroke="black" /><polygon fill="none" points="1250.0,2050.0 1050.0,2050.0 1050.0,1850.0 1250.0,1850.0" stroke="black" /><polygon fill="none" points="1450.0,2050.0 1250.0,2050.0 1250.0,1850.0 1450.0,1850.0" stroke="black" /><polygon fill="none" points="1650.0,2050.0 1450.0,2050.0 1450.0,1850.0 1650.0,1850.0" stroke="black" /><polygon fill="none" points="1850.0,2050.0 1650.0,2050.0 1650.0,1850.0 1850.0,1850.0" stroke="black" /><polygon fill="none" points="2050.0,2050.0 1850.0,2050.0 1850.0,1850.0 2050.0,1850.0" stroke="black" /><polygon fill="none" points="2250.0,2050.0 2050.0,2050.0 2050.0,1850.0 2250.0,1850.0" stroke="black" /><polygon fill="none" points="50.000000000000014,2250.0 -150.0,2250.0 -150.00000000000003,2050.0 50.0,2050.0" stroke="black" /><polygon fill="none" points="250.0,2250.0 49.999999999999986,2250.0 49.99999999999997,2050.0 250.0,2050.0" stroke="black" /><polygon fill="none" points="450.0,2250.0 250.0,2250.0 249.99999999999997,2050.0 450.0,2050.0" stroke="black" /><polygon fill="none" points="650.0,2250.0 450.0,2250.0 450.0,2050.0 650.0,2050.0" stroke="black" /><polygon fill="none" points="850.0,2250.0 650.0,2250.0 650.0,2050.0 850.0,2050.0" stroke="black" /><polygon fill="none" points="1050.0,2250.0 850.0,2250.0 850.0,2050.0 1050.0,2050.0" stroke="black" /><polygon fill="none" points="1250.0,2250.0 1050.0,2250.0 1050.0,2050.0 1250.0,2050.0" stroke="black" /><polygon fill="none" points="1450.0,2250.0 1250.0,2250.0 1250.0,2050.0 1450.0,2050.0" stroke="black" /><polygon fill="none" points="1650.0,2250.0 1450.0,2250.0 1450.0,2050.0 1650.0,2050.0" stroke="black" /><polygon fill="none" points="1850.0,2250.0 1650.0,2250.0 1650.0,2050.0 1850.0,2050.0" stroke="black" /><polygon fill="none" points="2050.0,2250.0 1850.0,2250.0 1850.0,2050.0 2050.0,2050.0" stroke="black" /><polygon fill="none" points="2250.0,2250.0 2050.0,2250.0 2050.0,2050.0 2250.0,2050.0" stroke="black" /><polygon fill="none" points="50.000000000000014,2450.0 -150.0,2450.0 -150.00000000000003,2250.0 50.0,2250.0" stroke="black" /><polygon fill="none" points="250.0,2450.0 49.999999999999986,2450.0 49.99999999999997,2250.0 250.0,2250.0" stroke="black" /><polygon fill="none" points="450.0,2450.0 250.0,2450.0 249.99999999999997,2250.0 450.0,2250.0" stroke="black" /><polygon fill="none" points="650.0,2450.0 450.0,2450.0 450.0,2250.0 650.0,2250.0" stroke="black" /><polygon fill="none" points="850.0,2450.0 650.0,2450.0 650.0,2250.0 850.0,2250.0" stroke="black" /><polygon fill="none" points="1050.0,2450.0 850.0,2450.0 850.0,2250.0 1050.0,2250.0" stroke="black" /><polygon fill="none" points="1250.0,2450.0 1050.0,2450.0 1050.0,2250.0 1250.0,2250.0" stroke="black" /><polygon fill="none" points="1450.0,2450.0 1250.0,2450.0 1250.0,2250.0 1450.0,2250.0" stroke="black" /><polygon fill="none" points="1650.0,2450.0 1450.0,2450.0 1450.0,2250.0 1650.0,2250.0" stroke="black" /><polygon fill="none" points="1850.0,2450.0 1650.0,2450.0 1650.0,2250.0 1850.0,2250.0" stroke="black" /><polygon fill="none" points="2050.0,2450.0 1850.0,2450.0 1850.0,2250.0 2050.0,2250.0" stroke="black" /><polygon fill="none" points="2250.0,2450.0 2050.0,2450.0 2050.0,2250.0 2250.0,2250.0" stroke="black" /><polygon fill="none" points="50.000000000000014,2650.0 -150.0,2650.0 -150.00000000000003,2450.0 50.0,2450.0" stroke="black" /><polygon fill="none" points="250.0,2650.0 49.999999999999986,2650.0 49.99999999999997,2450.0 250.0,2450.0" stroke="black" /><polygon fill="none" points="450.0,2650.0 250.0,2650.0 249.99999999999997,2450.0 450.0,2450.0" stroke="black" /><polygon fill="none" points="650.0,2650.0 450.0,2650.0 450.0,2450.0 650.0,2450.0" stroke="black" /><polygon fill="none" points="850.0,2650.0 650.0,2650.0 650.0,2450.0 850.0,2450.0" stroke="black" /><polygon fill="none" points="1050.0,2650.0 850.0,2650.0 850.0,2450.0 1050.0,2450.0" stroke="black" /><polygon fill="none" points="1250.0,2650.0 1050.0,2650.0 1050.0,2450.0 1250.0,2450.0" stroke="black" /><polygon fill="none" points="1450.0,2650.0 1250.0,2650.0 1250.0,2450.0 1450.0,2450.0" stroke="black" /><polygon fill="none" points="1650.0,2650.0 1450.0,2650.0 1450.0,2450.0 1650.0,2450.0" stroke="black" /><polygon fill="none" points="1850.0,2650.0 1650.0,2650.0 1650.0,2450.0 1850.0,2450.0" stroke="black" /><polygon fill="none" points="2050.0,2650.0 1850.0,2650.0 1850.0,2450.0 2050.0,2450.0" stroke="black" /><polygon fill="none" points="2250.0,2650.0 2050.0,2650.0 2050.0,2450.0 2250.0,2450.0" stroke="black" /><polygon fill="none" points="50.000000000000014,2850.0 -150.0,2850.0 -150.00000000000003,2650.0 50.0,2650.0" stroke="black" /><polygon fill="none" points="250.0,2850.0 49.999999999999986,2850.0 49.99999999999997,2650.0 250.0,2650.0" stroke="black" /><polygon fill="none" points="450.0,2850.0 250.0,2850.0 249.99999999999997,2650.0 450.0,2650.0" stroke="black" /><polygon fill="none" points="650.0,2850.0 450.0,2850.0 450.0,2650.0 650.0,2650.0" stroke="black" /><polygon fill="none" points="850.0,2850.0 650.0,2850.0 650.0,2650.0 850.0,2650.0" stroke="black" /><polygon fill="none" points="1050.0,2850.0 850.0,2850.0 850.0,2650.0 1050.0,2650.0" stroke="black" /><polygon fill="none" points="1250.0,2850.0 1050.0,2850.0 1050.0,2650.0 1250.0,2650.0" stroke="black" /><polygon fill="none" points="1450.0,2850.0 1250.0,2850.0 1250.0,2650.0 1450.0,2650.0" stroke="black" /><polygon fill="none" points="1650.0,2850.0 1450.0,2850.0 1450.0,2650.0 1650.0,2650.0" stroke="black" /><polygon fill="none" points="1850.0,2850.0 1650.0,2850.0 1650.0,2650.0 1850.0,2650.0" stroke="black" /><polygon fill="none" points="2050.0,2850.0 1850.0,2850.0 1850.0,2650.0 2050.0,2650.0" stroke="black" /><polygon fill="none" points="2250.0,2850.0 2050.0,2850.0 2050.0,2650.0 2250.0,2650.0" stroke="black" /><polygon fill="none" points="50.000000000000014,3050.0 -150.0,3050.0 -150.00000000000003,2850.0 50.0,2850.0" stroke="black" /><polygon fill="none" points="250.0,3050.0 49.999999999999986,3050.0 49.99999999999997,2850.0 250.0,2850.0" stroke="black" /><polygon fill="none" points="450.0,3050.0 250.0,3050.0 249.99999999999997,2850.0 450.0,2850.0" stroke="black" /><polygon fill="none" points="650.0,3050.0 450.0,3050.0 450.0,2850.0 650.0,2850.0" stroke="black" /><polygon fill="none" points="850.0,3050.0 650.0,3050.0 650.0,2850.0 850.0,2850.0" stroke="black" /><polygon fill="none" points="1050.0,3050.0 850.0,3050.0 850.0,2850.0 1050.0,2850.0" stroke="black" /><polygon fill="none" points="1250.0,3050.0 1050.0,3050.0 1050.0,2850.0 1250.0,2850.0" stroke="black" /><polygon fill="none" points="1450.0,3050.0 1250.0,3050.0 1250.0,2850.0 1450.0,2850.0" stroke="black" /><polygon fill="none" points="1650.0,3050.0 1450.0,3050.0 1450.0,2850.0 1650.0,2850.0" stroke="black" /><polygon fill="none" points="1850.0,3050.0 1650.0,3050.0 1650.0,2850.0 1850.0,2850.0" stroke="black" /><polygon fill="none" points="2050.0,3050.0 1850.0,3050.0 1850.0,2850.0 2050.0,2850.0" stroke="black" /><polygon fill="none" points="2250.0,3050.0 2050.0,3050.0 2050.0,2850.0 2250.0,2850.0" stroke="black" /></svg>