<?xml version="1.0" encoding="utf-8" ?>
<svg baseProfile="full" height="2970" version="1.1" width="2100" xmlns="http://www.w3.org/2000/svg" xmlns:ev="http://www.w3.org/2001/xml-events" xmlns:xlink="http://www.w3.org/1999/xlink"><defs /><polygon fill="none" points="7.07050159149938e-15,115.47005383792516 -100.00000000000001,-57.73502691896255 99.99999999999997,-57.735026918962625" stroke="black" /><polygon fill="none" points="200.0,115.47005383792516 99.99999999999999,-57.73502691896255 300.0,-57.735026918962625" stroke="black" /><polygon fill="none" points="400.0,115.47005383792516 300.0,-57.73502691896255 500.0,-57.735026918962625" stroke="black" /><polygon fill="none" points="600.0,115.47005383792516 500.0,-57.73502691896255 700.0,-57.735026918962625" stroke="black" /><polygon fill="none" points="800.0,115.47005383792516 700.0,-57.73502691896255 900.0,-57.735026918962625" stroke="black" /><polygon fill="none" points="1000.0,115.47005383792516 900.0,-57.73502691896255 1100.0,-57.735026918962625" stroke="black" /><polygon fill="none" points="1200.0,115.47005383792516 1100.0,-57.73502691896255 1300.0,-57.735026918962625" stroke="black" /><polygon fill="none" points="1400.0,115.47005383792516 1300.0,-57.73502691896255 1500.0,-57.735026918962625" stroke="black" /><polygon fill="none" points="1600.0,115.47005383792516 1500.0,-57.73502691896255 1700.0,-57.735026918962625" stroke="black" /><polygon fill="none" points="1800.0,115.47005383792516 1700.0,-57.73502691896255 1900.0,-57.735026918962625" stroke="black" /><polygon fill="none" points="2000.0,115.47005383792516 1900.0,-57.73502691896255 2100.0,-57.735026918962625" stroke="black" /><polygon fill="none" points="2200.0,115.47005383792516 2100.0,-57.73502691896255 2300.0,-57.735026918962625" stroke="black" /><polygon fill="none" points="100.0,288.6751345948129 -1.4210854715202004e-14,115.47005383792518 199.99999999999997,115.4700538379251" stroke="black" /><polygon fill="none" points="300.0,288.6751345948129 200.0,115.47005383792518 400.0,115.4700538379251" stroke="black" /><polygon fill="none" points="500.0,288.6751345948129 400.0,115.47005383792518 600.0,115.4700538379251" stroke="black" /><polygon fill="none" points="700.0,288.6751345948129 600.0,115.47005383792518 800.0,115.4700538379251" stroke="black" /><polygon fill="none" points="900.0,288.6751345948129 800.0,115.47005383792518 1000.0,115.4700538379251" stroke="black" /><polygon fill="none" points="1100.0,288.6751345948129 1000.0,115.47005383792518 1200.0,115.4700538379251" stroke="black" /><polygon fill="none" points="1300.0,288.6751345948129 1200.0,115.47005383792518 1400.0,115.4700538379251" stroke="black" /><polygon fill="none" points="1500.0,288.6751345948129 1400.0,115.47005383792518 1600.0,115.4700538379251" stroke="black" /><polygon fill="none" points="1700.0,288.6751345948129 1600.0,115.47005383792518 1800.0,115.4700538379251" stroke="black" /><polygon fill="none" points="1900.0,288.6751345948129 1800.0,115.47005383792518 2000.0,115.4700538379251" stroke="black" /><polygon fill="none" points="2100.0,288.6751345948129 2000.0,115.47005383792518 2200.0,115.4700538379251" stroke="black" /><polygon fill="none" points="2300.0,288.6751345948129 2200.0,115.47005383792518 2400.0,115.4700538379251" stroke="black" /><polygon fill="none" points="7.07050159149938e-15,461.8802153517006 -100.00000000000001,288.6751345948129 99.99999999999997,288.67513459481285" stroke="black" /><polygon fill="none" points="200.0,461.8802153517006 99.99999999999999,288.6751345948129 300.0,288.67513459481285" stroke="black" /><polygon fill="none" points="400.0,461.8802153517006 300.0,288.6751345948129 500.0,288.67513459481285" stroke="black" /><polygon fill="none" points="600.0,461.8802153517006 500.0,288.6751345948129 700.0,288.67513459481285" stroke="black" /><polygon fill="none" points="800.0,461.8802153517006 700.0,288.6751345948129 900.0,288.67513459481285" stroke="black" /><polygon fill="none" points="1000.0,461.8802153517006 900.0,288.6751345948129 1100.0,288.67513459481285" stroke="black" /><polygon fill="none" points="1200.0,461.8802153517006 1100.0,288.6751345948129 1300.0,288.67513459481285" stroke="black" /><polygon fill="none" points="1400.0,461.8802153517006 1300.0,288.6751345948129 1500.0,288.67513459481285" stroke="black" /><polygon fill="none" points="1600.0,461.8802153517006 1500.0,288.6751345948129 1700.0,288.67513459481285" stroke="black" /><polygon fill="none" points="1800.0,461.8802153517006 1700.0,288.6751345948129 1900.0,288.67513459481285" stroke="black" /><polygon fill="none" points="2000.0,461.8802153517006 1900.0,288.6751345948129 2100.0,288.67513459481285" stroke="black" /><polygon fill="none" points="2200.0,461.8802153517006 2100.0,288.6751345948129 2300.0,288.67513459481285" stroke="black" /><polygon fill="none" points="100.0,635.0852961085884 -1.4210854715202004e-14,461.88021535170066 199.99999999999997,461.8802153517006" stroke="black" /><polygon fill="none" points="300.0,635.0852961085884 200.0,461.88021535170066 400.0,461.8802153517006" stroke="black" /><polygon fill="none" points="500.0,635.0852961085884 400.0,461.88021535170066 600.0,461.8802153517006" stroke="black" /><polygon fill="none" points="700.0,635.0852961085884 600.0,461.88021535170066 800.0,461.8802153517006" stroke="black" /><polygon fill="none" points="900.0,635.0852961085884 800.0,461.88021535170066 1000.0,461.8802153517006" stroke="black" /><polygon fill="none" points="1100.0,635.0852961085884 1000.0,461.88021535170066 1200.0,461.8802153517006" stroke="black" /><polygon fill="none" points="1300.0,635.0852961085884 1200.0,461.88021535170066 1400.0,461.8802153517006" stroke="black" /><polygon fill="none" points="1500.0,635.0852961085884 1400.0,461.88021535170066 1600.0,461.8802153517006" stroke="black" /><polygon fill="none" points="1700.0,635.0852961085884 1600.0,461.88021535170066 1800.0,461.8802153517006" stroke="black" /><polygon fill="none" points="1900.0,635.0852961085884 1800.0,461.88021535170066 2000.0,461.8802153517006" stroke="black" /><polygon fill="none" points="2100.0,635.0852961085884 2000.0,461.88021535170066 2200.0,461.8802153517006" stroke="black" /><polygon fill="none" points="2300.0,635.0852961085884 2200.0,461.88021535170066 2400.0,461.8802153517006" stroke="black" /><polygon fill="none" points="7.07050159149938e-15,808.2903768654761 -100.00000000000001,635.0852961085884 99.99999999999997,635.0852961085883" stroke="black" /><polygon fill="none" points="200.0,808.2903768654761 99.99999999999999,635.0852961085884 300.0,635.0852961085883" stroke="black" /><polygon fill="none" points="400.0,808.2903768654761 300.0,635.0852961085884 500.0,635.0852961085883" stroke="black" /><polygon fill="none" points="600.0,808.2903768654761 500.0,635.0852961085884 700.0,635.0852961085883" stroke="black" /><polygon fill="none" points="800.0,808.2903768654761 700.0,635.0852961085884 900.0,635.0852961085883" stroke="black" /><polygon fill="none" points="1000.0,808.2903768654761 900.0,635.0852961085884 1100.0,635.0852961085883" stroke="black" /><polygon fill="none" points="1200.0,808.2903768654761 1100.0,635.0852961085884 1300.0,635.0852961085883" stroke="black" /><polygon fill="none" points="1400.0,808.2903768654761 1300.0,635.0852961085884 1500.0,635.0852961085883" stroke="black" /><polygon fill="none" points="1600.0,808.2903768654761 1500.0,635.0852961085884 1700.0,635.0852961085883" stroke="black" /><polygon fill="none" points="1800.0,808.2903768654761 1700.0,635.0852961085884 1900.0,635.0852961085883" stroke="black" /><polygon fill="none" points="2000.0,808.2903768654761 1900.0,635.0852961085884 2100.0,635.0852961085883" stroke="black" /><polygon fill="none" points="2200.0,808.2903768654761 2100.0,635.0852961085884 2300.0,635.0852961085883" stroke="black" /><polygon fill="none" points="100.0,981.4954576223638 -1.4210854715202004e-14,808.290376865476 199.99999999999997,808.290376865476" stroke="black" /><polygon fill="none" points="300.0,981.4954576223638 200.0,808.290376865476 400.0,808.290376865476" stroke="black" /><polygon fill="none" points="500.0,981.4954576223638 400.0,808.290376865476 600.0,808.290376865476" stroke="black" /><polygon fill="none" points="700.0,981.4954576223638 600.0,808.290376865476 800.0,808.290376865476" stroke="black" /><polygon fill="none" points="900.0,981.4954576223638 800.0,808.290376865476 1000.0,808.290376865476" stroke="black" /><polygon fill="none" points="1100.0,981.4954576223638 1000.0,808.290376865476 1200.0,808.290376865476" stroke="black" /><polygon fill="none" points="1300.0,981.4954576223638 1200.0,808.290376865476 1400.0,808.290376865476" stroke="black" /><polygon fill="none" points="1500.0,981.4954576223638 1400.0,808.290376865476 1600.0,808.290376865476" stroke="black" /><polygon fill="none" points="1700.0,981.4954576223638 1600.0,808.290376865476 1800.0,808.290376865476" stroke="black" /><polygon fill="none" points="1900.0,981.4954576223638 1800.0,808.290376865476 2000.0,808.290376865476" stroke="black" /><polygon fill="none" points="2100.0,981.4954576223638 2000.0,808.290376865476 2200.0,808.290376865476" stroke="black" /><polygon fill="none" points="2300.0,981.4954576223638 2200.0,808.290376865476 2400.0,808.290376865476" stroke="black" /><polygon fill="none" points="7.07050159149938e-15,1154.7005383792516 -100.00000000000001,981.4954576223638 99.99999999999997,981.4954576223638" stroke="black" /><polygon fill="none" points="200.0,1154.7005383792516 99.99999999999999,981.4954576223638 300.0,981.4954576223638" stroke="black" /><polygon fill="none" points="400.0,1154.7005383792516 300.0,981.4954576223638 500.0,981.4954576223638" stroke="black" /><polygon fill="none" points="600.0,1154.7005383792516 500.0,981.4954576223638 700.0,981.4954576223638" stroke="black" /><polygon fill="none" points="800.0,1154.7005383792516 700.0,981.4954576223638 900.0,981.4954576223638" stroke="black" /><polygon fill="none" points="1000.0,1154.7005383792516 900.0,981.4954576223638 1100.0,981.4954576223638" stroke="black" /><polygon fill="none" points="1200.0,1154.7005383792516 1100.0,981.4954576223638 1300.0,981.4954576223638" stroke="black" /><polygon fill="none" points="1400.0,1154.7005383792516 1300.0,981.4954576223638 1500.0,981.4954576223638" stroke="black" /><polygon fill="none" points="1600.0,1154.7005383792516 1500.0,981.4954576223638 1700.0,981.4954576223638" stroke="black" /><polygon fill="none" points="1800.0,1154.7005383792516 1700.0,981.4954576223638 1900.0,981.4954576223638" stroke="black" /><polygon fill="none" points="2000.0,1154.7005383792516 1900.0,981.4954576223638 2100.0,981.4954576223638" stroke="black" /><polygon fill="none" points="2200.0,1154.7005383792516 2100.0,981.4954576223638 2300.0,981.4954576223638" stroke="black" /><polygon fill="none" points="100.0,1327.9056191361392 -1.4210854715202004e-14,1154.7005383792514 199.99999999999997,1154.7005383792514" stroke="black" /><polygon fill="none" points="300.0,1327.9056191361392 200.0,1154.7005383792514 400.0,1154.7005383792514" stroke="black" /><polygon fill="none" points="500.0,1327.9056191361392 400.0,1154.7005383792514 600.0,1154.7005383792514" stroke="black" /><polygon fill="none" points="700.0,1327.9056191361392 600.0,1154.7005383792514 800.0,1154.7005383792514" stroke="black" /><polygon fill="none" points="900.0,1327.9056191361392 800.0,1154.7005383792514 1000.0,1154.7005383792514" stroke="black" /><polygon fill="none" points="1100.0,1327.9056191361392 1000.0,1154.7005383792514 1200.0,1154.7005383792514" stroke="black" /><polygon fill="none" points="1300.0,1327.9056191361392 1200.0,1154.7005383792514 1400.0,1154.7005383792514" stroke="black" /><polygon fill="none" points="1500.0,1327.9056191361392 1400.0,1154.7005383792514 1600.0,1154.7005383792514" stroke="black" /><polygon fill="none" points="1700.0,1327.9056191361392 1600.0,1154.7005383792514 1800.0,1154.7005383792514" stroke="black" /><polygon fill="none" points="1900.0,1327.9056191361392 1800.0,1154.7005383792514 2000.0,1154.7005383792514" stroke="black" /><polygon fill="none" points="2100.0,1327.9056191361392 2000.0,1154.7005383792514 2200.0,1154.7005383792514" stroke="black" /><polygon fill="none" points="2300.0,1327.9056191361392 2200.0,1154.7005383792514 2400.0,1154.7005383792514" stroke="black" /><polygon fill="none" points="7.07050159149938e-15,1501.110699893027 -100.00000000000001,1327.9056191361392 99.99999999999997,1327.9056191361392" stroke="black" /><polygon fill="none" points="200.0,1501.110699893027 99.99999999999999,1327.9056191361392 300.0,1327.9056191361392" stroke="black" /><polygon fill="none" points="400.0,1501.110699893027 300.0,1327.9056191361392 500.0,1327.9056191361392" stroke="black" /><polygon fill="none" points="600.0,1501.110699893027 500.0,1327.9056191361392 700.0,1327.9056191361392" stroke="black" /><polygon fill="none" points="800.0,1501.110699893027 700.0,1327.9056191361392 900.0,1327.9056191361392" stroke="black" /><polygon fill="none" points="1000.0,1501.110699893027 900.0,1327.9056191361392 1100.0,1327.9056191361392" stroke="black" /><polygon fill="none" points="1200.0,1501.110699893027 1100.0,1327.9056191361392 1300.0,1327.9056191361392" stroke="black" /><polygon fill="none" points="1400.0,1501.110699893027 1300.0,1327.9056191361392 1500.0,1327.9056191361392" stroke="black" /><polygon fill="none" points="1600.0,1501.110699893027 1500.0,1327.9056191361392 1700.0,1327.9056191361392" stroke="black" /><polygon fill="none" points="1800.0,1501.110699893027 1700.0,1327.9056191361392 1900.0,1327.9056191361392" stroke="black" /><polygon fill="none" points="2000.0,1501.110699893027 1900.0,1327.9056191361392 2100.0,1327.9056191361392" stroke="black" /><polygon fill="none" points="2200.0,1501.110699893027 2100.0,1327.9056191361392 2300.0,1327.9056191361392" stroke="black" /><polygon fill="none" points="100.0,1674.3157806499148 -1.4210854715202004e-14,1501.110699893027 199.99999999999997,1501.110699893027" stroke="black" /><polygon fill="none" points="300.0,1674.3157806499148 200.0,1501.110699893027 400.0,1501.110699893027" stroke="black" /><polygon fill="none" points="500.0,1674.3157806499148 400.0,1501.110699893027 600.0,1501.110699893027" stroke="black" /><polygon fill="none" points="700.0,1674.3157806499148 600.0,1501.110699893027 800.0,1501.110699893027" stroke="black" /><polygon fill="none" points="900.0,1674.3157806499148 800.0,1501.110699893027 1000.0,1501.110699893027" stroke="black" /><polygon fill="none" points="1100.0,1674.3157806499148 1000.0,1501.110699893027 1200.0,1501.110699893027" stroke="black" /><polygon fill="none" points="1300.0,1674.3157806499148 1200.0,1501.110699893027 1400.0,1501.110699893027" stroke="black" /><polygon fill="none" points="1500.0,1674.3157806499148 1400.0,1501.110699893027 1600.0,1501.110699893027" stroke="black" /><polygon fill="none" points="1700.0,1674.3157806499148 1600.0,1501.110699893027 1800.0,1501.110699893027" stroke="black" /><polygon fill="none" points="1900.0,1674.3157806499148 1800.0,1501.110699893027 2000.0,1501.110699893027" stroke="black" /><polygon fill="none" points="2100.0,1674.3157806499148 2000.0,1501.110699893027 2200.0,1501.110699893027" stroke="black" /><polygon fill="none" points="2300.0,1674.3157806499148 2200.0,1501.110699893027 2400.0,1501.110699893027" stroke="black" /><polygon fill="none" points="7.07050159149938e-15,1847.5208614068024 -100.00000000000001,1674.3157806499146 99.99999999999997,1674.3157806499146" stroke="black" /><polygon fill="none" points="200.0,1847.5208614068024 99.99999999999999,1674.3157806499146 300.0,1674.3157806499146" stroke="black" /><polygon fill="none" points="400.0,1847.5208614068024 300.0,1674.3157806499146 500.0,1674.3157806499146" stroke="black" /><polygon fill="none" points="600.0,1847.5208614068024 500.0,1674.3157806499146 700.0,1674.3157806499146" stroke="black" /><polygon fill="none" points="800.0,1847.5208614068024 700.0,1674.3157806499146 900.0,1674.3157806499146" stroke="black" /><polygon fill="none" points="1000.0,1847.5208614068024 900.0,1674.3157806499146 1100.0,1674.3157806499146" stroke="black" /><polygon fill="none" points="1200.0,1847.5208614068024 1100.0,1674.3157806499146 1300.0,1674.3157806499146" stroke="black" /><polygon fill="none" points="1400.0,1847.5208614068024 1300.0,1674.3157806499146 1500.0,1674.3157806499146" stroke="black" /><polygon fill="none" points="1600.0,1847.5208614068024 1500.0,1674.3157806499146 1700.0,1674.3157806499146" stroke="black" /><polygon fill="none" points="1800.0,1847.5208614068024 1700.0,1674.3157806499146 1900.0,1674.3157806499146" stroke="black" /><polygon fill="none" points="2000.0,1847.5208614068024 1900.0,1674.3157806499146 2100.0,1674.3157806499146" stroke="black" /><polygon fill="none" points="2200.0,1847.5208614068024 2100.0,1674.3157806499146 2300.0,1674.3157806499146" stroke="black" /><polygon fill="none" points="100.0,2020.7259421636902 -1.4210854715202004e-14,1847.5208614068024 199.99999999999997,1847.5208614068024" stroke="black" /><polygon fill="none" points="300.0,2020.7259421636902 200.0,1847.5208614068024 400.0,1847.5208614068024" stroke="black" /><polygon fill="none" points="500.0,2020.7259421636902 400.0,1847.5208614068024 600.0,1847.5208614068024" stroke="black" /><polygon fill="none" points="700.0,2020.7259421636902 600.0,1847.5208614068024 800.0,1847.5208614068024" stroke="black" /><polygon fill="none" points="900.0,2020.7259421636902 800.0,1847.5208614068024 1000.0,1847.5208614068024" stroke="black" /><polygon fill="none" points="1100.0,2020.7259421636902 1000.0,1847.5208614068024 1200.0,1847.5208614068024" stroke="black" /><polygon fill="none" points="1300.0,2020.7259421636902 1200.0,1847.5208614068024 1400.0,1847.5208614068024" stroke="black" /><polygon fill="none" points="1500.0,2020.7259421636902 1400.0,1847.5208614068024 1600.0,1847.5208614068024" stroke="black" /><polygon fill="none" points="1700.0,2020.7259421636902 1600.0,1847.5208614068024 1800.0,1847.5208614068024" stroke="black" /><polygon fill="none" points="1900.0,2020.7259421636902 1800.0,1847.5208614068024 2000.0,1847.5208614068024" stroke="black" /><polygon fill="none" points="2100.0,2020.7259421636902 2000.0,1847.5208614068024 2200.0,1847.5208614068024" stroke="black" /><polygon fill="none" points="2300.0,2020.7259421636902 2200.0,1847.5208614068024 2400.0,1847.5208614068024" stroke="black" /><polygon fill="none" points="7.07050159149938e-15,2193.931022920578 -100.00000000000001,2020.7259421636902 99.99999999999997,2020.7259421636902" stroke="black" /><polygon fill="none" points="200.0,2193.931022920578 99.99999999999999,2020.7259421636902 300.0,2020.7259421636902" stroke="black" /><polygon fill="none" points="400.0,2193.931022920578 300.0,2020.7259421636902 500.0,2020.7259421636902" stroke="black" /><polygon fill="none" points="600.0,2193.931022920578 500.0,2020.7259421636902 700.0,2020.7259421636902" stroke="black" /><polygon fill="none" points="800.0,2193.931022920578 700.0,2020.7259421636902 900.0,2020.7259421636902" stroke="black" /><polygon fill="none" points="1000.0,2193.931022920578 900.0,2020.7259421636902 1100.0,2020.7259421636902" stroke="black" /><polygon fill="none" points="1200.0,2193.931022920578 1100.0,2020.7259421636902 1300.0,2020.7259421636902" stroke="black" /><polygon fill="none" points="1400.0,2193.931022920578 1300.0,2020.7259421636902 1500.0,2020.7259421636902" stroke="black" /><polygon fill="none" points="1600.0,2193.931022920578 1500.0,2020.7259421636902 1700.0,2020.7259421636902" stroke="black" /><polygon fill="none" points="1800.0,2193.931022920578 1700.0,2020.7259421636902 1900.0,2020.7259421636902" stroke="black" /><polygon fill="none" points="2000.0,2193.931022920578 1900.0,2020.7259421636902 2100.0,2020.7259421636902" stroke="black" /><polygon fill="none" points="2200.0,2193.931022920578 2100.0,2020.7259421636902 2300.0,2020.7259421636902" stroke="black" /><polygon fill="none" points="100.0,2367.1361036774656 -1.4210854715202004e-14,2193.931022920578 199.99999999999997,2193.9310229205776" stroke="black" /><polygon fill="none" points="300.0,2367.1361036774656 200.0,2193.931022920578 400.0,2193.9310229205776" stroke="black" /><polygon fill="none" points="500.0,2367.1361036774656 400.0,2193.931022920578 600.0,2193.9310229205776" stroke="black" /><polygon fill="none" points="700.0,2367.1361036774656 600.0,2193.931022920578 800.0,2193.9310229205776" stroke="black" /><polygon fill="none" points="900.0,2367.1361036774656 800.0,2193.931022920578 1000.0,2193.9310229205776" stroke="black" /><polygon fill="none" points="1100.0,2367.1361036774656 1000.0,2193.931022920578 1200.0,2193.9310229205776" stroke="black" /><polygon fill="none" points="1300.0,2367.1361036774656 1200.0,2193.931022920578 1400.0,2193.9310229205776" stroke="black" /><polygon fill="none" points="1500.0,2367.1361036774656 1400.0,2193.931022920578 1600.0,2193.9310229205776" stroke="black" /><polygon fill="none" points="1700.0,2367.1361036774656 1600.0,2193.931022920578 1800.0,2193.9310229205776" stroke="black" /><polygon fill="none" points="1900.0,2367.1361036774656 1800.0,2193.931022920578 2000.0,2193.9310229205776" stroke="black" /><polygon fill="none" points="2100.0,2367.1361036774656 2000.0,2193.931022920578 2200.0,2193.9310229205776" stroke="black" /><polygon fill="none" points="2300.0,2367.1361036774656 2200.0,2193.931022920578 2400.0,2193.9310229205776" stroke="black" /><polygon fill="none" points="7.07050159149938e-15,2540.341184434353 -100.00000000000001,2367.1361036774656 99.99999999999997,2367.136103677465" stroke="black" /><polygon fill="none" points="200.0,2540.341184434353 99.99999999999999,2367.1361036774656 300.0,2367.136103677465" stroke="black" /><polygon fill="none" points="400.0,2540.341184434353 300.0,2367.1361036774656 500.0,2367.136103677465" stroke="black" /><polygon fill="none" points="600.0,2540.341184434353 500.0,2367.1361036774656 700.0,2367.136103677465" stroke="black" /><polygon fill="none" points="800.0,2540.341184434353 700.0,2367.1361036774656 900.0,2367.136103677465" stroke="black" /><polygon fill="none" points="1000.0,2540.341184434353 900.0,2367.1361036774656 1100.0,2367.136103677465" stroke="black" /><polygon fill="none" points="1200.0,2540.341184434353 1100.0,2367.1361036774656 1300.0,2367.136103677465" stroke="black" /><polygon fill="none" points="1400.0,2540.341184434353 1300.0,2367.1361036774656 1500.0,2367.136103677465" stroke="black" /><polygon fill="none" points="1600.0,2540.341184434353 1500.0,2367.1361036774656 1700.0,2367.136103677465" stroke="black" /><polygon fill="none" points="1800.0,2540.341184434353 1700.0,2367.1361036774656 1900.0,2367.136103677465" stroke="black" /><polygon fill="none" points="2000.0,2540.341184434353 1900.0,2367.1361036774656 2100.0,2367.136103677465" stroke="black" /><polygon fill="none" points="2200.0,2540.341184434353 2100.0,2367.1361036774656 2300.0,2367.136103677465" stroke="black" /><polygon fill="none" points="100.0,2713.546265191241 -1.4210854715202004e-14,2540.3411844343536 199.99999999999997,2540.341184434353" stroke="black" /><polygon fill="none" points="300.0,2713.546265191241 200.0,2540.3411844343536 400.0,2540.341184434353" stroke="black" /><polygon fill="none" points="500.0,2713.546265191241 400.0,2540.3411844343536 600.0,2540.341184434353" stroke="black" /><polygon fill="none" points="700.0,2713.546265191241 600.0,2540.3411844343536 800.0,2540.341184434353" stroke="black" /><polygon fill="none" points="900.0,2713.546265191241 800.0,2540.3411844343536 1000.0,2540.341184434353" stroke="black" /><polygon fill="none" points="1100.0,2713.546265191241 1000.0,2540.3411844343536 1200.0,2540.341184434353" stroke="black" /><polygon fill="none" points="1300.0,2713.546265191241 1200.0,2540.3411844343536 1400.0,2540.341184434353" stroke="black" /><polygon fill="none" points="1500.0,2713.546265191241 1400.0,2540.3411844343536 1600.0,2540.341184434353" stroke="black" /><polygon fill="none" points="1700.0,2713.546265191241 1600.0,2540.3411844343536 1800.0,2540.341184434353" stroke="black" /><polygon fill="none" points="1900.0,2713.546265191241 1800.0,2540.3411844343536 2000.0,2540.341184434353" stroke="black" /><polygon fill="none" points="2100.0,2713.546265191241 2000.0,2540.3411844343536 2200.0,2540.341184434353" stroke="black" /><polygon fill="none" points="2300.0,2713.546265191241 2200.0,2540.3411844343536 2400.0,2540.341184434353" stroke="black" /><polygon fill="none" points="7.07050159149938e-15,2886.751345948129 -100.00000000000001,2713.546265191241 99.99999999999997,2713.5462651912408" stroke="black" /><polygon fill="none" points="200.0,2886.751345948129 99.99999999999999,2713.546265191241 300.0,2713.5462651912408" stroke="black" /><polygon fill="none" points="400.0,2886.751345948129 300.0,2713.546265191241 500.0,2713.5462651912408" stroke="black" /><polygon fill="none" points="600.0,2886.751345948129 500.0,2713.546265191241 700.0,2713.5462651912408" stroke="black" /><polygon fill="none" points="800.0,2886.751345948129 700.0,2713.546265191241 900.0,2713.5462651912408" stroke="black" /><polygon fill="none" points="1000.0,2886.751345948129 900.0,2713.546265191241 1100.0,2713.5462651912408" stroke="black" /><polygon fill="none" points="1200.0,2886.751345948129 1100.0,2713.546265191241 1300.0,2713.5462651912408" stroke="black" /><polygon fill="none" points="1400.0,2886.751345948129 1300.0,2713.546265191241 1500.0,2713.5462651912408" stroke="black" /><polygon fill="none" points="1600.0,2886.751345948129 1500.0,2713.546265191241 1700.0,2713.5462651912408" stroke="black" /><polygon fill="none" points="1800.0,2886.751345948129 1700.0,2713.546265191241 1900.0,2713.5462651912408" stroke="black" /><polygon fill="none" points="2000.0,2886.751345948129 1900.0,2713.546265191241 2100.0,2713.5462651912408" stroke="black" /><polygon fill="none" points="2200.0,2886.751345948129 2100.0,2713.546265191241 2300.0,2713.5462651912408" stroke="black" /><polygon fill="none" points="100.0,3059.9564267050164 -1.4210854715202004e-14,2886.751345948129 199.99999999999997,2886.7513459481283" stroke="black" /><polygon fill="none" points="300.0,3059.9564267050164 200.0,2886.751345948129 400.0,2886.7513459481283" stroke="black" /><polygon fill="none" points="500.0,3059.9564267050164 400.0,2886.751345948129 600.0,2886.7513459481283" stroke="black" /><polygon fill="none" points="700.0,3059.9564267050164 600.0,2886.751345948129 800.0,2886.7513459481283" stroke="black" /><polygon fill="none" points="900.0,3059.9564267050164 800.0,2886.751345948129 1000.0,2886.7513459481283" stroke="black" /><polygon fill="none" points="1100.0,3059.9564267050164 1000.0,2886.751345948129 1200.0,2886.7513459481283" stroke="black" /><polygon fill="none" points="1300.0,3059.9564267050164 1200.0,2886.751345948129 1400.0,2886.7513459481283" stroke="black" /><polygon fill="none" points="1500.0,3059.9564267050164 1400.0,2886.751345948129 1600.0,2886.7513459481283" stroke="black" /><polygon fill="none" points="1700.0,3059.9564267050164 1600.0,2886.751345948129 1800.0,2886.7513459481283" stroke="black" /><polygon fill="none" points="1900.0,3059.9564267050164 1800.0,2886.751345948129 2000.0,2886.7513459481283" stroke="black" /><polygon fill="none" points="2100.0,3059.9564267050164 2000.0,2886.751345948129 2200.0,2886.7513459481283" stroke="black" /><polygon fill="none" points="2300.0,3059.9564267050164 2200.0,2886.751345948129 2400.0,2886.7513459481283" stroke="black" /><polygon fill="none" points="7.07050159149938e-15,3233.1615074619044 -100.00000000000001,3059.956426705017 99.99999999999997,3059.9564267050164" stroke="black" /><polygon fill="none" points="200.0,3233.1615074619044 99.99999999999999,3059.956426705017 300.0,3059.9564267050164" stroke="black" /><polygon fill="none" points="400.0,3233.1615074619044 300.0,3059.956426705017 500.0,3059.9564267050164" stroke="black" /><polygon fill="none" points="600.0,3233.1615074619044 500.0,3059.956426705017 700.0,3059.9564267050164" stroke="black" /><polygon fill="none" points="800.0,3233.1615074619044 700.0,3059.956426705017 900.0,3059.9564267050164" stroke="black" /><polygon fill="none" points="1000.0,3233.1615074619044 900.0,3059.956426705017 1100.0,3059.9564267050164" stroke="black" /><polygon fill="none" points="1200.0,3233.1615074619044 1100.0,3059.956426705017 1300.0,3059.9564267050164" stroke="black" /><polygon fill="none" points="1400.0,3233.1615074619044 1300.0,3059.956426705017 1500.0,3059.9564267050164" stroke="black" /><polygon fill="none" points="1600.0,3233.1615074619044 1500.0,3059.956426705017 1700.0,3059.9564267050164" stroke="black" /><polygon fill="none" points="1800.0,3233.1615074619044 1700.0,3059.956426705017 1900.0,3059.9564267050164" stroke="black" /><polygon fill="none" points="2000.0,3233.1615074619044 1900.0,3059.956426705017 2100.0,3059.9564267050164" stroke="black" /><polygon fill="none" points="2200.0,3233.1615074619044 2100.0,3059.956426705017 2300.0,3059.9564267050164" stroke="black" /></svg>