<?xml version="1.0" encoding="utf-8" ?>
<svg baseProfile="full" height="2970" version="1.1" width="2100" xmlns="http://www.w3.org/2000/svg" xmlns:ev="http://www.w3.org/2001/xml-events" xmlns:xlink="http://www.w3.org/1999/xlink"><defs /><polygon fill="none" points="-49.99999999999999,72.16878364870323 -150.0,-101.03629710818447 49.99999999999997,-101.03629710818456" stroke="black" /><polygon fill="none" points="150.0,72.16878364870323 49.999999999999986,-101.03629710818447 249.99999999999997,-101.03629710818456" stroke="black" /><polygon fill="none" points="350.0,72.16878364870323 250.0,-101.03629710818447 450.0,-101.03629710818456" stroke="black" /><polygon fill="none" points="550.0,72.16878364870323 450.0,-101.03629710818447 650.0,-101.03629710818456" stroke="black" /><polygon fill="none" points="750.0,72.16878364870323 650.0,-101.03629710818447 850.0,-101.03629710818456" stroke="black" /><polygon fill="none" points="950.0,72.16878364870323 850.0,-101.03629710818447 1050.0,-101.03629710818456" stroke="black" /><polygon fill="none" points="1150.0,72.16878364870323 1050.0,-101.03629710818447 1250.0,-101.03629710818456" stroke="black" /><polygon fill="none" points="1350.0,72.16878364870323 1250.0,-101.03629710818447 1450.0,-101.03629710818456" stroke="black" /><polygon fill="none" points="1550.0,72.16878364870323 1450.0,-101.03629710818447 1650.0,-101.03629710818456" stroke="black" /><polygon fill="none" points="1750.0,72.16878364870323 1650.0,-101.03629710818447 1850.0,-101.03629710818456" stroke="black" /><polygon fill="none" points="1950.0,72.16878364870323 1850.0,-101.03629710818447 2050.0,-101.03629710818456" stroke="black" /><polygon fill="none" points="2150.0,72.16878364870323 2050.0,-101.03629710818447 2250.0,-101.03629710818456" stroke="black" /><polygon fill="none" points="50.00000000000001,245.37386440559095 -50.000000000000014,72.16878364870325 149.99999999999997,72.16878364870317" stroke="black" /><polygon fill="none" points="250.0,245.37386440559095 150.0,72.16878364870325 350.0,72.16878364870317" stroke="black" /><polygon fill="none" points="450.0,245.37386440559095 350.0,72.16878364870325 550.0,72.16878364870317" stroke="black" /><polygon fill="none" points="650.0,245.37386440559095 550.0,72.16878364870325 750.0,72.16878364870317" stroke="black" /><polygon fill="none" points="850.0,245.37386440559095 750.0,72.16878364870325 950.0,72.16878364870317" stroke="black" /><polygon fill="none" points="1050.0,245.37386440559095 950.0,72.16878364870325 1150.0,72.16878364870317" stroke="black" /><polygon fill="none" points="1250.0,245.37386440559095 1150.0,72.16878364870325 1350.0,72.16878364870317" stroke="black" /><polygon fill="none" points="1450.0,245.37386440559095 1350.0,72.16878364870325 1550.0,72.16878364870317" stroke="black" /><polygon fill="none" points="1650.0,245.37386440559095 1550.0,72.16878364870325 1750.0,72.16878364870317" stroke="black" /><polygon fill="none" points="1850.0,245.37386440559095 1750.0,72.16878364870325 1950.0,72.16878364870317" stroke="black" /><polygon fill="none" points="2050.0,245.37386440559095 1950.0,72.16878364870325 2150.0,72.16878364870317" stroke="black" /><polygon fill="none" points="2250.0,245.37386440559095 2150.0,72.16878364870325 2350.0,72.16878364870317" stroke="black" /><polygon fill="none" points="-49.99999999999999,418.57894516247865 -150.0,245.37386440559095 49.99999999999997,245.37386440559087" stroke="black" /><polygon fill="none" points="150.0,418.57894516247865 49.999999999999986,245.37386440559095 249.99999999999997,245.37386440559087" stroke="black" /><polygon fill="none" points="350.0,418.57894516247865 250.0,245.37386440559095 450.0,245.37386440559087" stroke="black" /><polygon fill="none" points="550.0,418.57894516247865 450.0,245.37386440559095 650.0,245.37386440559087" stroke="black" /><polygon fill="none" points="750.0,418.57894516247865 650.0,245.37386440559095 850.0,245.37386440559087" stroke="black" /><polygon fill="none" points="950.0,418.57894516247865 850.0,245.37386440559095 1050.0,245.37386440559087" stroke="black" /><polygon fill="none" points="1150.0,418.57894516247865 1050.0,245.37386440559095 1250.0,245.37386440559087" stroke="black" /><polygon fill="none" points="1350.0,418.57894516247865 1250.0,245.37386440559095 1450.0,245.37386440559087" stroke="black" /><polygon fill="none" points="1550.0,418.57894516247865 1450.0,245.37386440559095 1650.0,245.37386440559087" stroke="black" /><polygon fill="none" points="1750.0,418.57894516247865 1650.0,245.37386440559095 1850.0,245.37386440559087" stroke="black" /><polygon fill="none" points="1950.0,418.57894516247865 1850.0,245.37386440559095 2050.0,245.37386440559087" stroke="black" /><polygon fill="none" points="2150.0,418.57894516247865 2050.0,245.37386440559095 2250.0,245.37386440559087" stroke="black" /><polygon fill="none" points="50.00000000000001,591.7840259193664 -50.000000000000014,418.5789451624787 149.99999999999997,418.57894516247865" stroke="black" /><polygon fill="none" points="250.0,591.7840259193664 150.0,418.5789451624787 350.0,418.57894516247865" stroke="black" /><polygon fill="none" points="450.0,591.7840259193664 350.0,418.5789451624787 550.0,418.57894516247865" stroke="black" /><polygon fill="none" points="650.0,591.7840259193664 550.0,418.5789451624787 750.0,418.57894516247865" stroke="black" /><polygon fill="none" points="850.0,591.7840259193664 750.0,418.5789451624787 950.0,418.57894516247865" stroke="black" /><polygon fill="none" points="1050.0,591.7840259193664 950.0,418.5789451624787 1150.0,418.57894516247865" stroke="black" /><polygon fill="none" points="1250.0,591.7840259193664 1150.0,418.5789451624787 1350.0,418.57894516247865" stroke="black" /><polygon fill="none" points="1450.0,591.7840259193664 1350.0,418.5789451624787 1550.0,418.57894516247865" stroke="black" /><polygon fill="none" points="1650.0,591.7840259193664 1550.0,418.5789451624787 1750.0,418.57894516247865" stroke="black" /><polygon fill="none" points="1850.0,591.7840259193664 1750.0,418.5789451624787 1950.0,418.57894516247865" stroke="black" /><polygon fill="none" points="2050.0,591.7840259193664 1950.0,418.5789451624787 2150.0,418.57894516247865" stroke="black" /><polygon fill="none" points="2250.0,591.7840259193664 2150.0,418.5789451624787 2350.0,418.57894516247865" stroke="black" /><polygon fill="none" points="-49.99999999999999,764.9891066762542 -150.0,591.7840259193665 49.99999999999997,591.7840259193664" stroke="black" /><polygon fill="none" points="150.0,764.9891066762542 49.999999999999986,591.7840259193665 249.99999999999997,591.7840259193664" stroke="black" /><polygon fill="none" points="350.0,764.9891066762542 250.0,591.7840259193665 450.0,591.7840259193664" stroke="black" /><polygon fill="none" points="550.0,764.9891066762542 450.0,591.7840259193665 650.0,591.7840259193664" stroke="black" /><polygon fill="none" points="750.0,764.9891066762542 650.0,591.7840259193665 850.0,591.7840259193664" stroke="black" /><polygon fill="none" points="950.0,764.9891066762542 850.0,591.7840259193665 1050.0,591.7840259193664" stroke="black" /><polygon fill="none" points="1150.0,764.9891066762542 1050.0,591.7840259193665 1250.0,591.7840259193664" stroke="black" /><polygon fill="none" points="1350.0,764.9891066762542 1250.0,591.7840259193665 1450.0,591.7840259193664" stroke="black" /><polygon fill="none" points="1550.0,764.9891066762542 1450.0,591.7840259193665 1650.0,591.7840259193664" stroke="black" /><polygon fill="none" points="1750.0,764.9891066762542 1650.0,591.7840259193665 1850.0,591.7840259193664" stroke="black" /><polygon fill="none" points="1950.0,764.9891066762542 1850.0,591.7840259193665 2050.0,591.7840259193664" stroke="black" /><polygon fill="none" points="2150.0,764.9891066762542 2050.0,591.7840259193665 2250.0,591.7840259193664" stroke="black" /><polygon fill="none" points="50.00000000000001,938.1941874331419 -50.000000000000014,764.9891066762541 149.99999999999997,764.9891066762541" stroke="black" /><polygon fill="none" points="250.0,938.1941874331419 150.0,764.9891066762541 350.0,764.9891066762541" stroke="black" /><polygon fill="none" points="450.0,938.1941874331419 350.0,764.9891066762541 550.0,764.9891066762541" stroke="black" /><polygon fill="none" points="650.0,938.1941874331419 550.0,764.9891066762541 750.0,764.9891066762541" stroke="black" /><polygon fill="none" points="850.0,938.1941874331419 750.0,764.9891066762541 950.0,764.9891066762541" stroke="black" /><polygon fill="none" points="1050.0,938.1941874331419 950.0,764.9891066762541 1150.0,764.9891066762541" stroke="black" /><polygon fill="none" points="1250.0,938.1941874331419 1150.0,764.9891066762541 1350.0,764.9891066762541" stroke="black" /><polygon fill="none" points="1450.0,938.1941874331419 1350.0,764.9891066762541 1550.0,764.9891066762541" stroke="black" /><polygon fill="none" points="1650.0,938.1941874331419 1550.0,764.9891066762541 1750.0,764.9891066762541" stroke="black" /><polygon fill="none" points="1850.0,938.1941874331419 1750.0,764.9891066762541 1950.0,764.9891066762541" stroke="black" /><polygon fill="none" points="2050.0,938.1941874331419 1950.0,764.9891066762541 2150.0,764.9891066762541" stroke="black" /><polygon fill="none" points="2250.0,938.1941874331419 2150.0,764.9891066762541 2350.0,764.9891066762541" stroke="black" /><polygon fill="none" points="-49.99999999999999,1111.3992681900295 -150.0,938.1941874331419 49.99999999999997,938.1941874331418" stroke="black" /><polygon fill="none" points="150.0,1111.3992681900295 49.999999999999986,938.1941874331419 249.99999999999997,938.1941874331418" stroke="black" /><polygon fill="none" points="350.0,1111.3992681900295 250.0,938.1941874331419 450.0,938.1941874331418" stroke="black" /><polygon fill="none" points="550.0,1111.3992681900295 450.0,938.1941874331419 650.0,938.1941874331418" stroke="black" /><polygon fill="none" points="750.0,1111.3992681900295 650.0,938.1941874331419 850.0,938.1941874331418" stroke="black" /><polygon fill="none" points="950.0,1111.3992681900295 850.0,938.1941874331419 1050.0,938.1941874331418" stroke="black" /><polygon fill="none" points="1150.0,1111.3992681900295 1050.0,938.1941874331419 1250.0,938.1941874331418" stroke="black" /><polygon fill="none" points="1350.0,1111.3992681900295 1250.0,938.1941874331419 1450.0,938.1941874331418" stroke="black" /><polygon fill="none" points="1550.0,1111.3992681900295 1450.0,938.1941874331419 1650.0,938.1941874331418" stroke="black" /><polygon fill="none" points="1750.0,1111.3992681900295 1650.0,938.1941874331419 1850.0,938.1941874331418" stroke="black" /><polygon fill="none" points="1950.0,1111.3992681900295 1850.0,938.1941874331419 2050.0,938.1941874331418" stroke="black" /><polygon fill="none" points="2150.0,1111.3992681900295 2050.0,938.1941874331419 2250.0,938.1941874331418" stroke="black" /><polygon fill="none" points="50.00000000000001,1284.6043489469173 -50.000000000000014,1111.3992681900295 149.99999999999997,1111.3992681900295" stroke="black" /><polygon fill="none" points="250.0,1284.6043489469173 150.0,1111.3992681900295 350.0,1111.3992681900295" stroke="black" /><polygon fill="none" points="450.0,1284.6043489469173 350.0,1111.3992681900295 550.0,1111.3992681900295" stroke="black" /><polygon fill="none" points="650.0,1284.6043489469173 550.0,1111.3992681900295 750.0,1111.3992681900295" stroke="black" /><polygon fill="none" points="850.0,1284.6043489469173 750.0,1111.3992681900295 950.0,1111.3992681900295" stroke="black" /><polygon fill="none" points="1050.0,1284.6043489469173 950.0,1111.3992681900295 1150.0,1111.3992681900295" stroke="black" /><polygon fill="none" points="1250.0,1284.6043489469173 1150.0,1111.3992681900295 1350.0,1111.3992681900295" stroke="black" /><polygon fill="none" points="1450.0,1284.6043489469173 1350.0,1111.3992681900295 1550.0,1111.3992681900295" stroke="black" /><polygon fill="none" points="1650.0,1284.6043489469173 1550.0,1111.3992681900295 1750.0,1111.3992681900295" stroke="black" /><polygon fill="none" points="1850.0,1284.6043489469173 1750.0,1111.3992681900295 1950.0,1111.3992681900295" stroke="black" /><polygon fill="none" points="2050.0,1284.6043489469173 1950.0,1111.3992681900295 2150.0,1111.3992681900295" stroke="black" /><polygon fill="none" points="2250.0,1284.6043489469173 2150.0,1111.3992681900295 2350.0,1111.3992681900295" stroke="black" /><polygon fill="none" points="-49.99999999999999,1457.809429703805 -150.0,1284.6043489469173 49.99999999999997,1284.6043489469173" stroke="black" /><polygon fill="none" points="150.0,1457.809429703805 49.999999999999986,1284.6043489469173 249.99999999999997,1284.6043489469173" stroke="black" /><polygon fill="none" points="350.0,1457.809429703805 250.0,1284.6043489469173 450.0,1284.6043489469173" stroke="black" /><polygon fill="none" points="550.0,1457.809429703805 450.0,1284.6043489469173 650.0,1284.6043489469173" stroke="black" /><polygon fill="none" points="750.0,1457.809429703805 650.0,1284.6043489469173 850.0,1284.6043489469173" stroke="black" /><polygon fill="none" points="950.0,1457.809429703805 850.0,1284.6043489469173 1050.0,1284.6043489469173" stroke="black" /><polygon fill="none" points="1150.0,1457.809429703805 1050.0,1284.6043489469173 1250.0,1284.6043489469173" stroke="black" /><polygon fill="none" points="1350.0,1457.809429703805 1250.0,1284.6043489469173 1450.0,1284.6043489469173" stroke="black" /><polygon fill="none" points="1550.0,1457.809429703805 1450.0,1284.6043489469173 1650.0,1284.6043489469173" stroke="black" /><polygon fill="none" points="1750.0,1457.809429703805 1650.0,1284.6043489469173 1850.0,1284.6043489469173" stroke="black" /><polygon fill="none" points="1950.0,1457.809429703805 1850.0,1284.6043489469173 2050.0,1284.6043489469173" stroke="black" /><polygon fill="none" points="2150.0,1457.809429703805 2050.0,1284.6043489469173 2250.0,1284.6043489469173" stroke="black" /><polygon fill="none" points="50.00000000000001,1631.0145104606927 -50.000000000000014,1457.8094297038049 149.99999999999997,1457.8094297038049" stroke="black" /><polygon fill="none" points="250.0,1631.0145104606927 150.0,1457.8094297038049 350.0,1457.8094297038049" stroke="black" /><polygon fill="none" points="450.0,1631.0145104606927 350.0,1457.8094297038049 550.0,1457.8094297038049" stroke="black" /><polygon fill="none" points="650.0,1631.0145104606927 550.0,1457.8094297038049 750.0,1457.8094297038049" stroke="black" /><polygon fill="none" points="850.0,1631.0145104606927 750.0,1457.8094297038049 950.0,1457.8094297038049" stroke="black" /><polygon fill="none" points="1050.0,1631.0145104606927 950.0,1457.8094297038049 1150.0,1457.8094297038049" stroke="black" /><polygon fill="none" points="1250.0,1631.0145104606927 1150.0,1457.8094297038049 1350.0,1457.8094297038049" stroke="black" /><polygon fill="none" points="1450.0,1631.0145104606927 1350.0,1457.8094297038049 1550.0,1457.8094297038049" stroke="black" /><polygon fill="none" points="1650.0,1631.0145104606927 1550.0,1457.8094297038049 1750.0,1457.8094297038049" stroke="black" /><polygon fill="none" points="1850.0,1631.0145104606927 1750.0,1457.8094297038049 1950.0,1457.8094297038049" stroke="black" /><polygon fill="none" points="2050.0,1631.0145104606927 1950.0,1457.8094297038049 2150.0,1457.8094297038049" stroke="black" /><polygon fill="none" points="2250.0,1631.0145104606927 2150.0,1457.8094297038049 2350.0,1457.8094297038049" stroke="black" /><polygon fill="none" points="-49.99999999999999,1804.2195912175805 -150.0,1631.0145104606927 49.99999999999997,1631.0145104606927" stroke="black" /><polygon fill="none" points="150.0,1804.2195912175805 49.999999999999986,1631.0145104606927 249.99999999999997,1631.0145104606927" stroke="black" /><polygon fill="none" points="350.0,1804.2195912175805 250.0,1631.0145104606927 450.0,1631.0145104606927" stroke="black" /><polygon fill="none" points="550.0,1804.2195912175805 450.0,1631.0145104606927 650.0,1631.0145104606927" stroke="black" /><polygon fill="none" points="750.0,1804.2195912175805 650.0,1631.0145104606927 850.0,1631.0145104606927" stroke="black" /><polygon fill="none" points="950.0,1804.2195912175805 850.0,1631.0145104606927 1050.0,1631.0145104606927" stroke="black" /><polygon fill="none" points="1150.0,1804.2195912175805 1050.0,1631.0145104606927 1250.0,1631.0145104606927" stroke="black" /><polygon fill="none" points="1350.0,1804.2195912175805 1250.0,1631.0145104606927 1450.0,1631.0145104606927" stroke="black" /><polygon fill="none" points="1550.0,1804.2195912175805 1450.0,1631.0145104606927 1650.0,1631.0145104606927" stroke="black" /><polygon fill="none" points="1750.0,1804.2195912175805 1650.0,1631.0145104606927 1850.0,1631.0145104606927" stroke="black" /><polygon fill="none" points="1950.0,1804.2195912175805 1850.0,1631.0145104606927 2050.0,1631.0145104606927" stroke="black" /><polygon fill="none" points="2150.0,1804.2195912175805 2050.0,1631.0145104606927 2250.0,1631.0145104606927" stroke="black" /><polygon fill="none" points="50.00000000000001,1977.4246719744683 -50.000000000000014,1804.2195912175805 149.99999999999997,1804.2195912175805" stroke="black" /><polygon fill="none" points="250.0,1977.4246719744683 150.0,1804.2195912175805 350.0,1804.2195912175805" stroke="black" /><polygon fill="none" points="450.0,1977.4246719744683 350.0,1804.2195912175805 550.0,1804.2195912175805" stroke="black" /><polygon fill="none" points="650.0,1977.4246719744683 550.0,1804.2195912175805 750.0,1804.2195912175805" stroke="black" /><polygon fill="none" points="850.0,1977.4246719744683 750.0,1804.2195912175805 950.0,1804.2195912175805" stroke="black" /><polygon fill="none" points="1050.0,1977.4246719744683 950.0,1804.2195912175805 1150.0,1804.2195912175805" stroke="black" /><polygon fill="none" points="1250.0,1977.4246719744683 1150.0,1804.2195912175805 1350.0,1804.2195912175805" stroke="black" /><polygon fill="none" points="1450.0,1977.4246719744683 1350.0,1804.2195912175805 1550.0,1804.2195912175805" stroke="black" /><polygon fill="none" points="1650.0,1977.4246719744683 1550.0,1804.2195912175805 1750.0,1804.2195912175805" stroke="black" /><polygon fill="none" points="1850.0,1977.4246719744683 1750.0,1804.2195912175805 1950.0,1804.2195912175805" stroke="black" /><polygon fill="none" points="2050.0,1977.4246719744683 1950.0,1804.2195912175805 2150.0,1804.2195912175805" stroke="black" /><polygon fill="none" points="2250.0,1977.4246719744683 2150.0,1804.2195912175805 2350.0,1804.2195912175805" stroke="black" /><polygon fill="none" points="-49.99999999999999,2150.629752731356 -150.0,1977.424671974468 49.99999999999997,1977.424671974468" stroke="black" /><polygon fill="none" points="150.0,2150.629752731356 49.999999999999986,1977.424671974468 249.99999999999997,1977.424671974468" stroke="black" /><polygon fill="none" points="350.0,2150.629752731356 250.0,1977.424671974468 450.0,1977.424671974468" stroke="black" /><polygon fill="none" points="550.0,2150.629752731356 450.0,1977.424671974468 650.0,1977.424671974468" stroke="black" /><polygon fill="none" points="750.0,2150.629752731356 650.0,1977.424671974468 850.0,1977.424671974468" stroke="black" /><polygon fill="none" points="950.0,2150.629752731356 850.0,1977.424671974468 1050.0,1977.424671974468" stroke="black" /><polygon fill="none" points="1150.0,2150.629752731356 1050.0,1977.424671974468 1250.0,1977.424671974468" stroke="black" /><polygon fill="none" points="1350.0,2150.629752731356 1250.0,1977.424671974468 1450.0,1977.424671974468" stroke="black" /><polygon fill="none" points="1550.0,2150.629752731356 1450.0,1977.424671974468 1650.0,1977.424671974468" stroke="black" /><polygon fill="none" points="1750.0,2150.629752731356 1650.0,1977.424671974468 1850.0,1977.424671974468" stroke="black" /><polygon fill="none" points="1950.0,2150.629752731356 1850.0,1977.424671974468 2050.0,1977.424671974468" stroke="black" /><polygon fill="none" points="2150.0,2150.629752731356 2050.0,1977.424671974468 2250.0,1977.424671974468" stroke="black" /><polygon fill="none" points="50.00000000000001,2323.8348334882435 -50.000000000000014,2150.629752731356 149.99999999999997,2150.6297527313554" stroke="black" /><polygon fill="none" points="250.0,2323.8348334882435 150.0,2150.629752731356 350.0,2150.6297527313554" stroke="black" /><polygon fill="none" points="450.0,2323.8348334882435 350.0,2150.629752731356 550.0,2150.6297527313554" stroke="black" /><polygon fill="none" points="650.0,2323.8348334882435 550.0,2150.629752731356 750.0,2150.6297527313554" stroke="black" /><polygon fill="none" points="850.0,2323.8348334882435 750.0,2150.629752731356 950.0,2150.6297527313554" stroke="black" /><polygon fill="none" points="1050.0,2323.8348334882435 950.0,2150.629752731356 1150.0,2150.6297527313554" stroke="black" /><polygon fill="none" points="1250.0,2323.8348334882435 1150.0,2150.629752731356 1350.0,2150.6297527313554" stroke="black" /><polygon fill="none" points="1450.0,2323.8348334882435 1350.0,2150.629752731356 1550.0,2150.6297527313554" stroke="black" /><polygon fill="none" points="1650.0,2323.8348334882435 1550.0,2150.629752731356 1750.0,2150.6297527313554" stroke="black" /><polygon fill="none" points="1850.0,2323.8348334882435 1750.0,2150.629752731356 1950.0,2150.6297527313554" stroke="black" /><polygon fill="none" points="2050.0,2323.8348334882435 1950.0,2150.629752731356 2150.0,2150.6297527313554" stroke="black" /><polygon fill="none" points="2250.0,2323.8348334882435 2150.0,2150.629752731356 2350.0,2150.6297527313554" stroke="black" /><polygon fill="none" points="-49.99999999999999,2497.0399142451315 -150.0,2323.834833488244 49.99999999999997,2323.8348334882435" stroke="black" /><polygon fill="none" points="150.0,2497.0399142451315 49.999999999999986,2323.834833488244 249.99999999999997,2323.8348334882435" stroke="black" /><polygon fill="none" points="350.0,2497.0399142451315 250.0,2323.834833488244 450.0,2323.8348334882435" stroke="black" /><polygon fill="none" points="550.0,2497.0399142451315 450.0,2323.834833488244 650.0,2323.8348334882435" stroke="black" /><polygon fill="none" points="750.0,2497.0399142451315 650.0,2323.834833488244 850.0,2323.8348334882435" stroke="black" /><polygon fill="none" points="950.0,2497.0399142451315 850.0,2323.834833488244 1050.0,2323.8348334882435" stroke="black" /><polygon fill="none" points="1150.0,2497.0399142451315 1050.0,2323.834833488244 1250.0,2323.8348334882435" stroke="black" /><polygon fill="none" points="1350.0,2497.0399142451315 1250.0,2323.834833488244 1450.0,2323.8348334882435" stroke="black" /><polygon fill="none" points="1550.0,2497.0399142451315 1450.0,2323.834833488244 1650.0,2323.8348334882435" stroke="black" /><polygon fill="none" points="1750.0,2497.0399142451315 1650.0,2323.834833488244 1850.0,2323.8348334882435" stroke="black" /><polygon fill="none" points="1950.0,2497.0399142451315 1850.0,2323.834833488244 2050.0,2323.8348334882435" stroke="black" /><polygon fill="none" points="2150.0,2497.0399142451315 2050.0,2323.834833488244 2250.0,2323.8348334882435" stroke="black" /><polygon fill="none" points="50.00000000000001,2670.244995002019 -50.000000000000014,2497.0399142451315 149.99999999999997,2497.039914245131" stroke="black" /><polygon fill="none" points="250.0,2670.244995002019 150.0,2497.0399142451315 350.0,2497.039914245131" stroke="black" /><polygon fill="none" points="450.0,2670.244995002019 350.0,2497.0399142451315 550.0,2497.039914245131" stroke="black" /><polygon fill="none" points="650.0,2670.244995002019 550.0,2497.0399142451315 750.0,2497.039914245131" stroke="black" /><polygon fill="none" points="850.0,2670.244995002019 750.0,2497.0399142451315 950.0,2497.039914245131" stroke="black" /><polygon fill="none" points="1050.0,2670.244995002019 950.0,2497.0399142451315 1150.0,2497.039914245131" stroke="black" /><polygon fill="none" points="1250.0,2670.244995002019 1150.0,2497.0399142451315 1350.0,2497.039914245131" stroke="black" /><polygon fill="none" points="1450.0,2670.244995002019 1350.0,2497.0399142451315 1550.0,2497.039914245131" stroke="black" /><polygon fill="none" points="1650.0,2670.244995002019 1550.0,2497.0399142451315 1750.0,2497.039914245131" stroke="black" /><polygon fill="none" points="1850.0,2670.244995002019 1750.0,2497.0399142451315 1950.0,2497.039914245131" stroke="black" /><polygon fill="none" points="2050.0,2670.244995002019 1950.0,2497.0399142451315 2150.0,2497.039914245131" stroke="black" /><polygon fill="none" points="2250.0,2670.244995002019 2150.0,2497.0399142451315 2350.0,2497.039914245131" stroke="black" /><polygon fill="none" points="-49.99999999999999,2843.4500757589067 -150.0,2670.244995002019 49.99999999999997,2670.2449950020186" stroke="black" /><polygon fill="none" points="150.0,2843.4500757589067 49.999999999999986,2670.244995002019 249.99999999999997,2670.2449950020186" stroke="black" /><polygon fill="none" points="350.0,2843.4500757589067 250.0,2670.244995002019 450.0,2670.2449950020186" stroke="black" /><polygon fill="none" points="550.0,2843.4500757589067 450.0,2670.244995002019 650.0,2670.2449950020186" stroke="black" /><polygon fill="none" points="750.0,2843.4500757589067 650.0,2670.244995002019 850.0,2670.2449950020186" stroke="black" /><polygon fill="none" points="950.0,2843.4500757589067 850.0,2670.244995002019 1050.0,2670.2449950020186" stroke="black" /><polygon fill="none" points="1150.0,2843.4500757589067 1050.0,2670.244995002019 1250.0,2670.2449950020186" stroke="black" /><polygon fill="none" points="1350.0,2843.4500757589067 1250.0,2670.244995002019 1450.0,2670.2449950020186" stroke="black" /><polygon fill="none" points="1550.0,2843.4500757589067 1450.0,2670.244995002019 1650.0,2670.2449950020186" stroke="black" /><polygon fill="none" points="1750.0,2843.4500757589067 1650.0,2670.244995002019 1850.0,2670.2449950020186" stroke="black" /><polygon fill="none" points="1950.0,2843.4500757589067 1850.0,2670.244995002019 2050.0,2670.2449950020186" stroke="black" /><polygon fill="none" points="2150.0,2843.4500757589067 2050.0,2670.244995002019 2250.0,2670.2449950020186" stroke="black" /><polygon fill="none" points="50.00000000000001,3016.6551565157947 -50.000000000000014,2843.450075758907 149.99999999999997,2843.4500757589067" stroke="black" /><polygon fill="none" points="250.0,3016.6551565157947 150.0,2843.450075758907 350.0,2843.4500757589067" stroke="black" /><polygon fill="none" points="450.0,3016.6551565157947 350.0,2843.450075758907 550.0,2843.4500757589067" stroke="black" /><polygon fill="none" points="650.0,3016.6551565157947 550.0,2843.450075758907 750.0,2843.4500757589067" stroke="black" /><polygon fill="none" points="850.0,3016.6551565157947 750.0,2843.450075758907 950.0,2843.4500757589067" stroke="black" /><polygon fill="none" points="1050.0,3016.6551565157947 950.0,2843.450075758907 1150.0,2843.4500757589067" stroke="black" /><polygon fill="none" points="1250.0,3016.6551565157947 1150.0,2843.450075758907 1350.0,2843.4500757589067" stroke="black" /><polygon fill="none" points="1450.0,3016.6551565157947 1350.0,2843.450075758907 1550.0,2843.4500757589067" stroke="black" /><polygon fill="none" points="1650.0,3016.6551565157947 1550.0,2843.450075758907 1750.0,2843.4500757589067" stroke="black" /><polygon fill="none" points="1850.0,3016.6551565157947 1750.0,2843.450075758907 1950.0,2843.4500757589067" stroke="black" /><polygon fill="none" points="2050.0,3016.6551565157947 1950.0,2843.450075758907 2150.0,2843.4500757589067" stroke="black" /><polygon fill="none" points="2250.0,3016.6551565157947 2150.0,2843.450075758907 2350.0,2843.4500757589067" stroke="black" /><polygon fill="none" points="-49.99999999999999,3189.8602372726823 -150.0,3016.6551565157947 49.99999999999997,3016.6551565157943" stroke="black" /><polygon fill="none" points="150.0,3189.8602372726823 49.999999999999986,3016.6551565157947 249.99999999999997,3016.6551565157943" stroke="black" /><polygon fill="none" points="350.0,3189.8602372726823 250.0,3016.6551565157947 450.0,3016.6551565157943" stroke="black" /><polygon fill="none" points="550.0,3189.8602372726823 450.0,3016.6551565157947 650.0,3016.6551565157943" stroke="black" /><polygon fill="none" points="750.0,3189.8602372726823 650.0,3016.6551565157947 850.0,3016.6551565157943" stroke="black" /><polygon fill="none" points="950.0,3189.8602372726823 850.0,3016.6551565157947 1050.0,3016.6551565157943" stroke="black" /><polygon fill="none" points="1150.0,3189.8602372726823 1050.0,3016.6551565157947 1250.0,3016.6551565157943" stroke="black" /><polygon fill="none" points="1350.0,3189.8602372726823 1250.0,3016.6551565157947 1450.0,3016.6551565157943" stroke="black" /><polygon fill="none" points="1550.0,3189.8602372726823 1450.0,3016.6551565157947 1650.0,3016.6551565157943" stroke="black" /><polygon fill="none" points="1750.0,3189.8602372726823 1650.0,3016.6551565157947 1850.0,3016.6551565157943" stroke="black" /><polygon fill="none" points="1950.0,3189.8602372726823 1850.0,3016.6551565157947 2050.0,3016.6551565157943" stroke="black" /><polygon fill="none" points="2150.0,3189.8602372726823 2050.0,3016.6551565157947 2250.0,3016.6551565157943" stroke="black" /></svg>